<svg xmlns="http://www.w3.org/2000/svg" width="380" height="280" viewBox="0 0 380 280">
    <style>
        .st0{fill:#FFF}.st1{fill:#a1e5cf}.st2{fill:#fffbcc}.st3{fill:#ff6680}.st4{fill:#59b395}.st5{fill:#1d97bf}
    </style>
    <path class="st0" d="M4 0h372c2.2 0 4 1.8 4 4v272c0 2.2-1.8 4-4 4H4c-2.2 0-4-1.8-4-4V4c0-2.2 1.8-4 4-4z"/>
    <path class="st1" d="M0 71V4c0-2.2 1.8-4 4-4h372c2.2 0 4 1.8 4 4v67H0z"/>
    <path class="st2" d="M291 35h-10.4c-1.8 0-3.1-1.1-3.5-2.2C274.7 27 269 13 269 13c-.8-1.5-1.9-2-3-2H86c-1.1 0-2.2.5-3 2 0 0-5.7 14-8.1 19.8-.5 1.2-1.7 2.2-3.5 2.2H0v37h380V35h-89z"/>
    <path class="st0" d="M93 42h254c1.1 0 2 .9 2 2v19c0 1.1-.9 2-2 2H93c-1.1 0-2-.9-2-2V44c0-1.1.9-2 2-2z"/>
    <circle class="st3" cx="18" cy="19" r="6"/>
    <circle class="st2" cx="39" cy="19" r="6"/>
    <circle class="st4" cx="60" cy="19" r="6"/>
    <path class="st5" d="M22.5 52h-8.3l2.3-2.3c.6-.6.6-1.5 0-2.1s-1.5-.6-2.1 0l-4.7 4.7c-.2.2-.4.4-.5.7 0 .1 0 .1-.1.2v.1c-.1.3-.1.6.1.9.1.2.2.4.3.5l4.9 4.9c.6.6 1.5.6 2.1 0s.6-1.5 0-2.1L14 55h8.5c.8 0 1.5-.7 1.5-1.5s-.7-1.5-1.5-1.5zm29.4 1.2c0-.2 0-.2-.1-.3-.1-.3-.3-.5-.5-.7l-4.7-4.7c-.6-.6-1.5-.6-2.1 0s-.6 1.5 0 2.1l2.3 2.3h-8.3c-.8 0-1.5.7-1.5 1.5s.7 1.5 1.5 1.5H47l-2.5 2.5c-.6.6-.6 1.5 0 2.1s1.5.6 2.1 0l4.9-4.9c.1-.1.3-.3.3-.5.2-.2.2-.5.1-.9zM359.5 47h10c.8 0 1.5.7 1.5 1.5s-.7 1.5-1.5 1.5h-10c-.8 0-1.5-.7-1.5-1.5s.7-1.5 1.5-1.5zm0 5h10c.8 0 1.5.7 1.5 1.5s-.7 1.5-1.5 1.5h-10c-.8 0-1.5-.7-1.5-1.5s.7-1.5 1.5-1.5zm0 5h10c.8 0 1.5.7 1.5 1.5s-.7 1.5-1.5 1.5h-10c-.8 0-1.5-.7-1.5-1.5s.7-1.5 1.5-1.5zm5.1-39.6c-.6-.6-1.5-.6-2.1 0l-2 2L358 17v7h7l-2.4-2.4 2-2c.5-.6.5-1.6 0-2.2zM372 10h-6.9l2.4 2.4-2 2c-.6.6-.6 1.5 0 2.1s1.5.6 2.1 0l2-2L372 17v-7zM73 53l2.6-2.7c-.8-.8-1.9-1.3-3.1-1.3-2.5 0-4.5 2-4.5 4.5s2 4.5 4.5 4.5c1.6 0 2.9-.8 3.7-2h1.4l1.3 1.4c-1.3 2.2-3.7 3.6-6.4 3.6-4.1 0-7.5-3.4-7.5-7.5s3.4-7.5 7.5-7.5c2.1 0 3.9.8 5.3 2.2L80 46v7h-7z"/>
</svg>
