<svg id="Layer_1" xmlns="http://www.w3.org/2000/svg" width="550" height="230" viewBox="0 0 550 230">
    <style>
        .st0{fill:#1d97bf}.st1{fill:#fffbcc}.st2{fill:#FFF}
    </style>
    <path class="st0" d="M336.3 23.9l2 1.7-.3-11.3-1.9 2.1zM344.7 31.5l-11.3.3-5.7 6.6.1 4.1 7.6-8.7 11.6-.3zM67 157.8c-.1-.3-.2-.6-.2-.9-.8-6.1 24.5-24.8 40.1-29.3 3.8-1.1 5.4-1.7 5.1-3.7-.1-1.1-1.1-2.5-2.6-3.4.3.5.5 1 .6 1.4.2 1.9-1.3 2.6-5.1 3.7-15.6 4.5-40.8 23.1-40.1 29.3.1 1.3.9 2.3 2.2 2.9zM37.6 68.8s28.9-29.5 70.5-34.7c13.8-1.7 31.2.5 40.5 8.7-8.6-9.9-27.6-12.6-42.5-10.7-41.7 5.1-70.5 34.7-70.5 34.7s2.8 1.6 3.3 5.6c.5 4-1.3 4.5-7.3 14.3s-6.9 13.8-9.3 14.1c-1.6.2-7.1-1.3-11-4.5 3.6 4.6 11.1 6.7 13 6.5 2.4-.3 3.2-4.3 9.3-14.1 6-9.8 7.8-10.3 7.3-14.3s-3.3-5.6-3.3-5.6z"/>
    <path class="st0" d="M169.7 66.6c-1.4-11.3-6.4-20.4-13.8-27.4 6.3 6.7 10.6 15.2 11.8 25.4 4.9 39.6-34.7 101.1-87 107.5-7.9 1-15.9-2.5-21-7 4.7 5.4 13.9 10.1 23 9 52.3-6.4 91.9-67.9 87-107.5zM265.5 67.2c.7 5.7-9 35.3-8.3 40.9.3 2.5 1.3 3.2 2.2 3.1-.1-.3-.2-.6-.2-1.1-.7-5.7 9-35.3 8.3-40.9-.3-2.5-2.1-4.9-4.2-6.6 1.2 1.4 2 3 2.2 4.6zM231.9 75.4c.3 2.1-7.5 14.2-9.7 25.7-1.2 6.2-1.2 9.5-1.1 11 .2 1.4 1.1 2.3 2.2 2.8-.1-.3-.2-.5-.2-.8-.2-1.5-.1-4.8 1.1-11 2.2-11.5 9.9-23.6 9.7-25.7-.1-.6-.9-1.5-2.1-2.3.1.2.1.3.1.3zM296.3 63.3c1.3 10.6-5.4 23.8-14.4 36.5l-2.1 2.8.9-.1c1.1-.1 2.1-.3 3-.5l.1-.2c9-12.7 15.7-26 14.4-36.5-.7-5.4-3.6-9.8-6.8-12.6 2.5 2.7 4.4 6.4 4.9 10.6zM359 99.8c-.1-.3-.1-.7-.2-1-2.1-17.3 14.4-46.3 22.3-47.3h.5c-.5-1.5-1.4-2.1-2.5-2-7.9 1-24.4 30-22.3 47.3.2 1.5.6 3 2.2 3zM387.5 51.1c.1-.2.2-.9.6-1.9-.7-1.1-1.6-2.1-2.6-2.9 1 1.3 1.7 2.9 2 4.8zM329.8 52.9c.4 3.1-1.1 5.4-3.4 11.9-8.1 23.7-9.3 28.6-8.6 34.9.3 2.7 1.4 4.3 2.9 5-.4-.8-.7-1.8-.9-3-.8-6.3.4-11.2 8.6-34.9 2.2-6.5 3.8-8.8 3.4-11.9-.1-.9-.9-1.7-2.1-2.4 0 .1.1.2.1.4zM217.3 71.7s.4-.3.9-.7c-.7-1-1.6-2-2.7-2.9 1 1.1 1.6 2.3 1.8 3.6zM186.1 120.6c-.1-.2-.1-.4-.2-.7-1.5-12.4 15.1-42.8 22.1-43.7.7-.1 1.3 0 1.9.2-.6-1.6-2.3-2.4-3.9-2.2-7 .9-23.7 31.3-22.1 43.7.2 1.4 1.1 2.3 2.2 2.7z"/>
    <path class="st0" d="M379.5 86c-2.7 8.6-10.6 21.9-19.5 23-4.8.6-9.7-.1-13.4-3.1 3.9 4.7 9.6 5.8 15.4 5.1 8.1-1 15.3-11.9 18.6-20.3-.5-1.5-.9-3-1.1-4.7zM418.2 16.6c-.1-.9-1-2-2.3-2.9.2.3.3.6.3.9.3 2.5-1.6 4.1-4.5 11.6-3.3 8.6-16.7 48.6-14.9 63.6.6 4.6 3.1 7 3.3 8.4.2 1.3-1.3 4.4-4.4 4.8-2.8.3-6.3-.9-9.4-3.5 3.4 4 8 5.9 11.4 5.5 3.1-.4 4.6-3.4 4.4-4.8-.2-1.3-2.7-3.7-3.3-8.4-1.8-15 11.5-55.1 14.9-63.6 2.9-7.5 4.8-9.1 4.5-11.6zM341.3 97.7c-4.8 7.1-11 14.5-17.9 15.3-4.5.6-9.6-1-13.5-4.4 4.1 4.7 10.2 7.1 15.5 6.4 6.5-.8 12.5-7.5 17.2-14.2-.5-1-.9-2-1.3-3.1zM242.1 110c-4.5 6.7-10.2 13.3-16.6 14.1-5.3.7-10.4-1.1-13.8-3.8 3.1 3.8 9.3 6.6 15.8 5.8 6.1-.7 11.6-6.9 16-13.3-.6-.8-1.1-1.7-1.4-2.8zM304.2 100.1c-5.2 5.4-13 9.8-24.1 11.2-2.4.3-4.8.3-7.1 0-5.7 6.6-9.7 9.5-12.7 9.9-2.8.3-9.3-1.1-13.9-5 4.5 5.4 12.7 7.4 15.9 7 3-.4 7-3.3 12.7-9.9 2.3.3 4.7.3 7.1 0 10.5-1.3 18.1-5.3 23.3-10.3-.4-1-.9-1.9-1.2-2.9zM207.8 112l-.2-1.9s-9.1 18.3-18.5 19.5c-4.8.6-9.8-1.5-13.6-4.9 4 4.5 9.9 7.6 15.6 6.9 7.2-.9 14.3-12 17.1-17-.1-1-.3-1.9-.4-2.6zM89.9 58.9c-.3-2.1-1.9-4.2-3.9-5.9 1 1.2 1.7 2.6 1.9 3.9.5 3.7-5.9 8.3-16.8 40.6-10.9 32.2-10.1 40.7-13.8 41.1-2 .2-5-.9-7.4-2.9 2.5 3.1 6.8 5.2 9.4 4.9 3.7-.5 3-9 13.8-41.1C84 67.1 90.3 62.6 89.9 58.9z"/>
    <path class="st1" d="M334.3 21.9l8.7 7.6-11.6.3-7.6 8.7-.3-11.6-8.7-7.6 11.6-.3 7.6-8.7z"/>
    <g>
        <path class="st0" d="M175.4 161.1c-1.1.1-1.6 1.5-1.7 2.4l-1.2 12.1c.1.7.6 1.1 1.2 1 .3 0 .6-.1 1-.2l1.1-10.9c.1-.9.5-2.3 1.7-2.4 1.7-.2 3.6-.2 5 .5-1.2-2.7-4.3-2.9-7.1-2.5zM206.2 162.3c1.2 9.5-3.8 15.5-10 19.9-.5.4-.7.8-.7 1.2 0 .3.2.8.7 1.1.4.3.9.6 1.3.9 0-.4.2-.8.7-1.2 6.2-4.4 11.1-10.4 10-19.9-.4-3.1-2.6-6.4-5.8-9.4 2.1 2.4 3.5 4.9 3.8 7.4zM172 203c.1 0 .3-.1.5-.1l.5-8.9c.1-1.6 1.5-1.9 2.3-2l1.6-.2c1.1-.1 2.3-.1 3.4.4-1-2.3-3.5-2.6-5.4-2.4l-1.6.2c-.8.1-2.2.4-2.3 2l-.6 9.5c.2 1.1.8 1.6 1.6 1.5zM202.4 189.6c1.9 2.1 3.1 4.3 3.4 6.3 1.9 15.6-15.6 25.7-31.7 27.6-2.3.3-4.9.5-6.7 0-2.8-.7-10.9-5.5-15.9-10 4.5 5.1 14.8 11.2 17.9 12 1.8.5 4.4.3 6.7 0 16.1-2 33.6-12 31.7-27.6-.4-2.7-2.5-5.7-5.4-8.3z"/>
    </g>
    <g>
        <path class="st0" d="M269.7 146.7c-.2-1.9-.5-3.5-2.5-4.3.3.7.4 1.5.5 2.3 2.3 18.6 1.4 67.3-23.7 70.3-6.4.8-18.4-1.8-23.9-5.9-.3-.2-.7-.5-1-.8.9 1 1.9 2 3 2.8 5.5 4.1 17.5 6.7 23.9 5.9 25.2-3 26-51.6 23.7-70.3z"/>
        <path class="st0" d="M239.2 144.7v.7c-2.8 13.2-5.6 36.3-4.5 45.2.4 2.9 1.4 4.7 2.7 4.7-.3-.7-.5-1.7-.7-2.7-1.1-8.9 1.8-32 4.5-45.2 0 0 .1-.4 0-.7-.1-.9-.8-1.9-1.9-2.1h-.1v.1z"/>
    </g>
    <g>
        <path class="st0" d="M295.7 179.9c-5-1.4-10.9-3.1-15.3-6.8 4.4 5.2 11.4 7.2 17.3 8.8 2.7.7 5.3 1.3 6.3 2.1 0-1.9-3.6-2.8-8.3-4.1zM306.6 149.2h.4c-.4-1.4-1.2-2.1-2.4-2-3.4.4-5.5 8.4-5.1 11.5.3 1.9 1.2 3.1 2.7 4.1-.3-.6-.6-1.3-.7-2.1-.3-3.1 1.7-11.1 5.1-11.5zM331.8 147.4c-.3-2.7-2-5.1-4.4-7.2 1.3 1.6 2.2 3.3 2.4 5.2.6 4.6-1.6 11.4-2 12.8-.4 1.6-.9 2-2.7 2.4-4.2 1.1-12.7 2.4-14.2 2.6-.7.1-1.3.1-1.8 0 .3 1.1.8 2.4 3.8 2 1.5-.2 10-1.5 14.2-2.6 1.8-.5 2.3-.9 2.7-2.4.4-1.4 2.6-8.3 2-12.8zM324.2 173.2c1.6 2 2.8 4.5 3.2 7.8 1.5 12.1-7.2 24.6-21.7 26.4-4.7.6-16.7-.5-23.7-4.5-.9-.6-1.8-1.2-2.5-1.8 1.1 1.4 2.6 2.7 4.5 3.8 7 4 19 5.1 23.7 4.5 14.5-1.8 23.2-14.3 21.7-26.4-.6-4.6-2.6-7.7-5.2-9.8zM295.7 187c-.6-1-1.1-2.3-1.7-3.5-.3-.6-.8-.9-1.5-1 .8 1.8 1.5 3.6 3.2 4.5z"/>
    </g>
    <g>
        <path class="st0" d="M367.2 179.1l-.1-.5c-.1-1-1-1.5-2.1-1.4l-5 1c-1.1.1-1.6 1.4-1.8 2.4-.3 6.2-.5 12.3-.4 18.2 0 1-.8 1.8-1.8 2-2.1.3-16-2-18.2-2.5-.1 0-.3-.1-.4-.1.4 1.2 1.3 1.9 2.4 2.1 2.2.5 16.1 2.8 18.2 2.5 1-.1 1.9-.9 1.8-2 0-5.9.1-12.1.4-18.2.2-1.1.6-2.3 1.8-2.4l5-1h.2v-.1zM363.5 129.1v.6c-1.1 5.1-2.3 14.3-3.2 25.5v.7c.1.9.8 1.6 1.9 1.5h.1v-.2c.9-11.2 2.1-20.4 3.2-25.5 0 0 .1-.4 0-.6-.1-.9-.9-1.9-1.9-2.1h-.1v.1zM398 127.1c-.1-.9-.9-1.9-1.9-2.1h-.1v.7c-2.3 11.1-5.6 42.8-5.7 69.3.1 1-.6 1.8-1.6 1.9-1.9.2-15-1.5-18.3-2.5-.1 0-.3-.1-.4-.1.4 1.3 1.4 1.9 2.4 2.1 3.3 1 16.3 2.7 18.3 2.5 1-.1 1.7-.9 1.6-1.9.1-26.5 3.4-58.2 5.7-69.3v-.6z"/>
    </g>
    <g>
        <path class="st0" d="M422.5 165.6l-.1 2.6c.1.9.9 1.5 1.9 1.4h.1l.1-1.9c.2-1.2.9-1.7 2.3-2 6.3-1.4 14.6-2.8 18.7-3.5 1.2-.3 2.1-1.4 2-2.6-.7-3.9-2.4-10.7-3.7-14.5-.3-.8-1-1.5-1.9-1.8 1.4 3.8 3 10.5 3.7 14.3.1 1.1-.8 2.3-2 2.6-4.1.6-12.4 2.1-18.7 3.5-1.4.2-2.2.7-2.4 1.9zM453 132.2c-.6-4.1-2.1-12.4-3.2-16.4-.2-1.2-1.1-1.8-2-2 1.1 4 2.6 12.3 3.2 16.4.1 1.1-.8 2.3-1.9 2.5-4.1.7-13.3 2.3-22.4 3.8-1.2.3-1.6.8-1.9 2.1-.1.7-.2 2.5-.1 3.1.1 1 .9 1.3 2 1.1 0-.8 0-1.8.1-2.3.3-1.3.7-1.8 1.9-2.1 9.1-1.5 18.3-3.1 22.4-3.8 1.1-.1 2-1.2 1.9-2.4zM445.3 170.6c-.3-.6-.9-1.2-1.7-1.5 2.2 3.9 6.2 14.5 6.4 16 .1 1-.6 2-1.6 2.3-6.4 1.4-24.5 5.1-31.2 6.4-1.9.2-3.2-.2-4-.8-1.3-.8-2.7-2.1-4.2-3.5 2.2 2.3 4.4 4.3 6.2 5.5.9.6 2.1 1 4 .8 6.7-1.3 24.8-5 31.2-6.4 1-.2 1.7-1.3 1.6-2.3-.2-1.5-4.5-13-6.7-16.5z"/>
    </g>
    <g>
        <path class="st0" d="M481.4 114.5v.7c-1.5 7.6-5.8 38.5-5 45.5.1 1.1.9 1.4 1.9 1.3-.5-8.2 3.6-37.4 5-44.7 0 0 .1-.5 0-.7-.1-.9-.8-1.9-1.8-2 0-.1 0-.2-.1-.1 0-.1 0 0 0 0zM501.6 180.7c-.3-2.5-4.3-13.6-5.8-17.2-.3-.7-1-1.2-1.8-1.5 1.6 4 5.3 14.4 5.6 16.8.1 1.1-.8 2.1-2 2.3-6.5 1.3-25.3 5.6-28 6-1 .1-2.2 0-3.2-.8-.3-.3-.7-.6-1-.9 1.1 1.1 2.1 2.1 3 2.9 1 .8 2.2.9 3.2.8 2.7-.3 21.5-4.7 28-6 1.2-.3 2.1-1.2 2-2.4z"/>
    </g>
    <g>
        <path class="st0" d="M526.5 108.9v.7c-1.5 7.6-5.8 38.5-5 45.5.1 1.1.9 1.4 1.9 1.3-.5-8.2 3.6-37.4 5-44.7 0 0 .1-.5 0-.7-.1-.9-.8-1.9-1.7-2-.1-.1-.2-.1-.2-.1zM546.7 175.2c-.3-2.5-4.3-13.6-5.8-17.2-.3-.7-1-1.2-1.8-1.5 1.6 4 5.3 14.4 5.6 16.8.1 1.1-.8 2.1-2 2.3-6.5 1.3-25.3 5.6-28 6-1 .1-2.2 0-3.2-.8-.3-.3-.7-.6-1-.9 1.1 1.1 2.1 2.1 3 2.9 1 .8 2.2.9 3.2.8 2.7-.3 21.6-4.7 28-6 1.2-.3 2.1-1.3 2-2.4z"/>
    </g>
    <g>
        <path class="st2" d="M98 19.3c-33.9 4.2-56 19.3-73.8 35.5C11.1 66.9 3.5 80.2 4.3 87c.9 7.6 12.6 11.2 14.9 10.9 2.4-.3 3.2-4.3 9.3-14.1 6-9.8 7.8-10.3 7.3-14.3s-3.3-5.6-3.3-5.6S61.4 34.4 103 29.2c19.1-2.3 44.8 2.7 47 20.8 4.7 38.4-34.9 99.9-80.7 105.6-3.9.5-7.3-.8-7.7-3.6-.8-6.1 24.5-24.8 40.1-29.3 3.8-1.1 5.4-1.7 5.1-3.7-.2-1.9-3.2-4.8-6.3-4.4-17.3 2.1-50.6 27.5-49.1 39.3.9 7.1 13.7 16.8 26.2 15.2 52.3-6.4 91.9-67.9 87-107.5-3.7-30.8-34.9-46.2-66.6-42.3zM413.2 11.6c-.3-2.5-6.5-6.2-12-5.5-4.2.5-16.3 39.9-16.8 42-1.2-7.3-8.8-11.3-19.8-10-8.2 1-22.6 22.8-26.6 40.4-5.2 9.3-13.8 22.9-18.4 23.5-2.4.3-4.4-1.4-4.9-5.3-.8-6.3.4-11.2 8.6-34.9 2.2-6.5 3.8-8.8 3.4-11.9-.4-3.1-9.6-5.5-13.5-5-2.1.3-3.2 3.4-4.5 8.6-2.5 9.7-6.5 19.8-8 29.3-5 8.8-11.5 15.4-23 16.9l-.9.1 2.1-2.8c9-12.7 15.7-26 14.4-36.5-1.2-9.4-9.2-16.1-13.7-15.5-1.3.2-2.1 1.2-2 2.4.2 1.6 1.5 3.4 2 7.8 1 7.7-3.1 19-9.8 32.5-1.4 3-2.8 5.6-4.2 7.9-.3-.1-.8-.2-1.1-.2-3.1.4-6.1 4.5-5.6 8.2.1.4.3.9.8 1.3-1.8 2.5-3 3.5-3.3 3.6-.9.1-1.9-.5-2.2-3.1-.7-5.7 9-35.3 8.3-40.9-.7-5.7-8.7-10.4-12-10-2.4.3-3.2 1.3-3 2.6.5 4.1-4.1 18.3-7 30.7-.3.5-.6 1.1-1 1.8-5.1 9.2-13.7 22.5-16.8 22.9-1.9.2-4.3-.8-4.6-3.2-.2-1.5-.1-4.8 1.1-11 2.2-11.5 9.9-23.6 9.7-25.7-.3-2.1-8.3-6.1-11.4-5.7-1.2.1-3.2 1.9-3.2 1.9-.6-4.9-9-10.5-15.8-9.7-15 1.8-34.3 35.5-32.4 51.3 1 8.5 10.9 17.4 20.1 16.3 9.4-1.2 18.5-19.5 18.5-19.5l.2 1.9c.2 1.9.7 4.7 1.8 6.3 3 3.9 9.3 6.7 15.8 5.9 6.4-.8 12.1-7.4 16.6-14.1 3.1 8.6 14.4 11.5 18.3 11 3-.4 7-3.3 12.7-9.9 2.3.3 4.7.3 7.1 0 11.1-1.4 18.9-5.7 24.1-11.2 2.9 9 11.8 13.9 19.2 13 6.9-.8 13.1-8.2 17.9-15.3 3.1 9.9 10.9 12.3 18.6 11.3 8.9-1.1 16.8-14.3 19.5-23 1.4 11.6 10.5 17.6 16.3 16.9 3.1-.4 4.6-3.4 4.4-4.8-.2-1.3-2.7-3.7-3.3-8.4-1.8-15 11.5-55.1 14.9-63.6 2.8-7.5 4.7-9.1 4.4-11.6zM203.1 89.5c.1 1 .6 1.4 1.2 2.1-4.3 10.4-15.4 25.8-18.8 26.2-2.1.3-4.2-.7-4.4-2.9-1.5-12.4 15.1-42.8 22.1-43.7 1.9-.2 3.9.9 4.2 3.1.7 7.1-4.6 12.7-4.3 15.2zM374.8 69c-3.4 9.5-12.2 27-18.3 27.8-1.9.2-2.4-1.4-2.6-3-2.1-17.3 14.4-46.3 22.3-47.3 1.5-.2 2.5.8 2.8 3.3.2 2.5-1.6 12-4.2 19.2z"/>
        <path class="st2" d="M54.3 135.6c3.7-.5 3-9 13.8-41.1C79 62.1 85.3 57.6 84.9 53.9c-.7-5.4-9.9-10.3-11.8-10-1.6.2-2.5 1.5-3.5 3.5-4.3 8.4-8.5 17.8-16.1 39.9-6.1 17.8-11 36.3-10.6 39.2.6 5.3 7.7 9.6 11.4 9.1z"/>
    </g>
    <g>
        <path class="st2" d="M203.2 160.3c1.2 9.5-3.8 15.5-10 19.9-.5.4-.7.8-.7 1.2 0 .3.2.8.7 1.1 4.9 3.1 9 7.6 9.5 11.5 1.9 15.6-15.6 25.7-31.7 27.6-2.3.3-4.9.5-6.7 0-4.1-1-19.5-10.7-20.1-15.8-.7-5.4.7-29.5 2.8-43.4 0-.6 0-1.6-.1-2.7-.2-1.6-.9-4.5-1-5.4-.2-1.6.5-2.4 1.6-3.2 4.7-3.4 16.3-7.8 24-8.7 14.4-1.9 30.6 8.9 31.7 17.9zM169 201c3.8-.5 9.3-4.6 8.7-9.3-.5-3.8-3.5-4.2-5.8-3.9l-1.6.2c-.8.1-2.2.4-2.3 2l-.6 9.5c.2 1.1.8 1.6 1.6 1.5zm.6-27.4c.1.7.6 1.1 1.2 1 3.2-.4 9.8-6 9.1-11.5-.5-4-4.2-4.3-7.4-4-1.1.1-1.6 1.5-1.7 2.4l-1.2 12.1zM264.7 142.7c2.3 18.6 1.4 67.3-23.7 70.3-6.4.8-18.4-1.8-23.9-5.9-5-3.6-7.6-9.7-8.4-16.4-2.4-19.4 2.2-42.8 4.7-49.7.6-1.7 1-2.6 2.9-2.8 3.2-.4 13.2.8 18 2.2 1.1.2 1.8 1.2 1.9 2.1v.7c-2.8 13.2-5.6 36.3-4.5 45.2.4 3.1 1.5 4.9 2.9 4.7 2.1-.3 3-2.7 4.3-9 3.1-15 4-38.7 4.1-46.2.1-1.3.8-2.1 1.8-2.2 1.9-.2 13 1.3 16.9 2.3 2.5.9 2.8 2.7 3 4.7zM302.7 205.4c-4.7.6-16.7-.5-23.7-4.5-6.6-3.9-7.9-9.9-9.2-13.5l-.3-1.2c-.1-1.1-.1-2.9 1.1-3.6 4.9-2.3 15.1-4.1 15.7-4.1 1.1-.1 2.2.2 2.7 1.1 1.6 3 2.2 6.6 7.4 5.9 3.4-.4 5.2-2 5-3.5-.2-1.8-3.8-2.8-8.5-4.1-8.4-2.3-19.7-5.6-21.2-17.7-1.5-12 5.5-30.7 20.2-32.5 10.2-1.2 33.5 4.5 34.8 15.7.6 4.6-1.6 11.4-2 12.8-.4 1.6-.9 2-2.7 2.4-4.2 1.1-12.7 2.4-14.2 2.6-3.2.4-3.6-1.1-3.9-2.2-.1-.9.8-6 .2-10.7-.3-2.2-1.2-3.2-2.6-3-3.4.4-5.5 8.4-5.1 11.5.5 3.4 2.9 4.5 7 6 7.9 2.7 19.3 4.1 20.8 16.3 1.6 12-7 24.5-21.5 26.3zM371.8 118.4c2.4-.3 16.6 1.8 19.3 2.6 1 .2 1.8 1.2 1.9 2.1v.6c-2.3 11.1-5.6 42.8-5.7 69.3.1 1-.6 1.8-1.6 1.9-1.9.2-15-1.5-18.3-2.5-1.2-.3-2.3-1-2.5-2.8-.4-3.2-.6-7.5-.6-12.4l-.1-.5c-.1-1-1-1.5-2.1-1.4l-5 1c-1.1.1-1.6 1.4-1.8 2.4-.3 6.2-.5 12.3-.4 18.2 0 1-.8 1.8-1.8 2-2.1.3-16-2-18.2-2.5-1.3-.3-2.3-1.1-2.5-2.8-.4-3.4-.5-8-.5-13.5 0 0 0-1.3-.1-2.1-.1-.9-2.9-8.9-3.5-12.4-.2-1.4 0-2.4 2.1-3.3 1.1-.5 2-1.6 2.1-2.9 1.2-14.6 2.9-29.1 4.6-35 .4-1.1 1.2-1.8 2.4-1.9 1.9-.2 15.2 1.4 19.2 2.5 1 .2 1.8 1.2 1.9 2.1v.6c-1.1 5.1-2.3 14.3-3.2 25.5v.7c.1.9.8 1.6 1.9 1.5 1.1-.1 2.8-.5 4.1-.6s1.9-1.3 2-2.4c1.2-13.6 2.6-26.4 4.3-31.9.2-1.1 1-2 2.1-2.1zM419.4 166.2c.1.9.9 1.5 1.9 1.4 5.8-1.3 14.5-2.6 15.3-2.7 1.8-.2 3.1.7 3.7 1.7 2.2 3.4 6.5 15 6.7 16.4.1 1-.6 2-1.6 2.3-6.4 1.4-24.5 5.1-31.2 6.4-1.9.2-3.2-.2-4-.8-3.9-2.5-9.7-8.9-12.5-13.1-.4-.6-.9-1.9-1.1-3-1.2-9.5 1-36.9 2.4-47.2.1-.5 0-1-.1-1.7s-.5-5.2-.6-6.1c-.2-1.5.8-2.3 1.9-2.7 5.9-2.1 21.1-5.3 32.9-6.7 3.4-.4 6.5-.7 8.8-.7 1.2 0 2.6.5 2.9 2.1 1.1 4 2.6 12.3 3.2 16.4.1 1.1-.8 2.3-1.9 2.5-4.1.7-13.3 2.3-22.4 3.8-1.2.3-1.6.8-1.9 2.1-.1.7-.2 2.5-.1 3.1.1 1 1 1.3 2 1.1 4.7-.8 9-1.4 11.7-1.8 1.7-.2 3 .8 3.4 1.9 1.4 3.8 3 10.6 3.7 14.5.1 1.1-.8 2.3-2 2.6-4.1.6-12.4 2.1-18.7 3.5-1.4.3-2.1.8-2.3 2l-.1 2.7zM490.8 159.5c1.5 3.6 5.5 14.7 5.8 17.2.1 1.1-.8 2.1-2 2.3-6.5 1.3-25.3 5.6-28 6-1 .1-2.2 0-3.2-.8-3.9-3.3-9.7-10.5-12.2-14.6-.6-.9-1.1-2.4-1.2-3.6-1.2-9.8 2.3-46.1 4.9-56.2.3-1 1.3-1.8 2.4-1.9 2.5-.3 15 1.6 19.4 2.5.9.1 1.6 1.1 1.8 2v.7c-1.5 7.6-5.8 38.5-5 45.5.1 1.1 1 1.4 2 1.3 5.2-1.1 8.8-1.8 11.8-2.1 1.4-.3 3 .6 3.5 1.7zM535.8 154c1.5 3.6 5.5 14.7 5.8 17.2.1 1.1-.8 2.1-2 2.3-6.5 1.3-25.3 5.6-28 6-1 .1-2.2 0-3.2-.8-3.9-3.3-9.7-10.5-12.2-14.6-.6-.9-1.1-2.4-1.2-3.6-1.2-9.8 2.3-46.1 4.9-56.2.3-1 1.3-1.8 2.4-1.9 2.5-.3 15 1.6 19.4 2.5.9.1 1.6 1.1 1.7 2v.7c-1.5 7.6-5.8 38.5-5 45.5.1 1.1 1 1.4 2 1.3 5.2-1.1 8.8-1.8 11.8-2.1 1.6-.3 3.2.6 3.6 1.7z"/>
    </g>
</svg>
