<svg id="Layer_1" xmlns="http://www.w3.org/2000/svg" width="550" height="230" viewBox="0 0 550 230">
    <style>
        .st0{fill:#1d97bf}.st1{fill:#a1e5cf}.st2{fill:#fffbcc}.st3{fill:#FFF}
    </style>
    <path class="st0" d="M337.3 25.9l8.7 7.6-11.6.3-7.6 8.7-.3-11.6-8.7-7.6 11.6-.3 7.6-8.7z"/>
    <path class="st1" d="M335.3 23.9l8.7 7.6-11.6.3-7.6 8.7-.3-11.6-8.7-7.6 11.6-.3 7.6-8.7z"/>
    <path class="st0" d="M102 24.3c-33.9 4.2-56 19.3-73.8 35.5C15.1 71.9 7.5 85.2 8.3 92c.9 7.6 12.6 11.2 14.9 10.9 2.4-.3 3.2-4.3 9.3-14.1 6-9.8 7.8-10.3 7.3-14.3s-3.3-5.6-3.3-5.6S65.4 39.4 107 34.2c19.1-2.3 44.8 2.7 47 20.8 4.7 38.4-34.9 99.9-80.7 105.6-3.9.5-7.3-.8-7.7-3.6-.8-6.1 24.5-24.8 40.1-29.3 3.8-1.1 5.4-1.7 5.1-3.7-.2-1.9-3.2-4.8-6.3-4.4-17.3 2.1-50.6 27.5-49.1 39.3.9 7.1 13.7 16.8 26.2 15.2 52.3-6.4 91.9-67.9 87-107.5-3.7-30.8-34.9-46.2-66.6-42.3zM417.2 16.6c-.3-2.5-6.5-6.2-12-5.5-4.2.5-16.3 39.9-16.8 42-1.2-7.3-8.8-11.3-19.8-10-8.2 1-22.6 22.8-26.6 40.4-5.2 9.3-13.8 22.9-18.4 23.5-2.4.3-4.4-1.4-4.9-5.3-.8-6.3.4-11.2 8.6-34.9 2.2-6.5 3.8-8.8 3.4-11.9-.4-3.1-9.6-5.5-13.5-5-2.1.3-3.2 3.4-4.5 8.6-2.5 9.7-6.5 19.8-8 29.3-5 8.8-11.5 15.4-23 16.9l-.9.1 2.1-2.8c9-12.7 15.7-26 14.4-36.5-1.2-9.4-9.2-16.1-13.7-15.5-1.3.2-2.1 1.2-2 2.4.2 1.6 1.5 3.4 2 7.8 1 7.7-3.1 19-9.8 32.5-1.4 3-2.8 5.6-4.2 7.9-.3-.1-.8-.2-1.1-.2-3.1.4-6.1 4.5-5.6 8.2.1.4.3.9.8 1.3-1.8 2.5-3 3.5-3.3 3.6-.9.1-1.9-.5-2.2-3.1-.7-5.7 9-35.3 8.3-40.9-.7-5.7-8.7-10.4-12-10-2.4.3-3.2 1.3-3 2.6.5 4.1-4.1 18.3-7 30.7-.3.5-.6 1.1-1 1.8-5.1 9.2-13.7 22.5-16.8 22.9-1.9.2-4.3-.8-4.6-3.2-.2-1.5-.1-4.8 1.1-11 2.2-11.5 9.9-23.6 9.7-25.7-.3-2.1-8.3-6.1-11.4-5.7-1.2.1-3.2 1.9-3.2 1.9-.6-4.9-9-10.5-15.8-9.7-15 1.8-34.3 35.5-32.4 51.3 1 8.5 10.9 17.4 20.1 16.3 9.4-1.2 18.5-19.5 18.5-19.5l.2 1.9c.2 1.9.7 4.7 1.8 6.3 3 3.9 9.3 6.7 15.8 5.9 6.4-.8 12.1-7.4 16.6-14.1 3.1 8.6 14.4 11.5 18.3 11 3-.4 7-3.3 12.7-9.9 2.3.3 4.7.3 7.1 0 11.1-1.4 18.9-5.7 24.1-11.2 2.9 9 11.8 13.9 19.2 13 6.9-.8 13.1-8.2 17.9-15.3 3.1 9.9 10.9 12.3 18.6 11.3 8.9-1.1 16.8-14.3 19.5-23 1.4 11.6 10.5 17.6 16.3 16.9 3.1-.4 4.6-3.4 4.4-4.8-.2-1.3-2.7-3.7-3.3-8.4-1.8-15 11.5-55.1 14.9-63.6 2.8-7.5 4.7-9.1 4.4-11.6zM207.1 94.5c.1 1 .6 1.4 1.2 2.1-4.3 10.4-15.4 25.8-18.8 26.2-2.1.3-4.2-.7-4.4-2.9-1.5-12.4 15.1-42.8 22.1-43.7 1.9-.2 3.9.9 4.2 3.1.7 7.1-4.6 12.7-4.3 15.2zM378.8 74c-3.4 9.5-12.2 27-18.3 27.8-1.9.2-2.4-1.4-2.6-3-2.1-17.3 14.4-46.3 22.3-47.3 1.5-.2 2.5.8 2.8 3.3.2 2.5-1.6 12-4.2 19.2z"/>
    <path class="st0" d="M58.3 140.6c3.7-.5 3-9 13.8-41.1C83 67.1 89.3 62.6 88.9 58.9c-.7-5.4-9.9-10.3-11.8-10-1.6.2-2.5 1.5-3.5 3.5-4.3 8.4-8.5 17.8-16.1 39.9-6.1 17.8-11 36.3-10.6 39.2.6 5.3 7.7 9.6 11.4 9.1z"/>
    <path class="st1" d="M100 22.3c-33.9 4.2-56 19.3-73.8 35.5C13.1 69.9 5.5 83.2 6.3 90c.9 7.6 12.6 11.2 14.9 10.9 2.4-.3 3.2-4.3 9.3-14.1 6-9.8 7.8-10.3 7.3-14.3s-3.3-5.6-3.3-5.6S63.4 37.4 105 32.2c19.1-2.3 44.8 2.7 47 20.8 4.7 38.4-34.9 99.9-80.7 105.6-3.9.5-7.3-.8-7.7-3.6-.8-6.1 24.5-24.8 40.1-29.3 3.8-1.1 5.4-1.7 5.1-3.7-.2-1.9-3.2-4.8-6.3-4.4-17.3 2.1-50.6 27.5-49.1 39.3.9 7.1 13.7 16.8 26.2 15.2 52.3-6.4 91.9-67.9 87-107.5-3.7-30.8-34.9-46.2-66.6-42.3zM415.2 14.6c-.3-2.5-6.5-6.2-12-5.5-4.2.5-16.3 39.9-16.8 42-1.2-7.3-8.8-11.3-19.8-10-8.2 1-22.6 22.8-26.6 40.4-5.2 9.3-13.8 22.9-18.4 23.5-2.4.3-4.4-1.4-4.9-5.3-.8-6.3.4-11.2 8.6-34.9 2.2-6.5 3.8-8.8 3.4-11.9-.4-3.1-9.6-5.5-13.5-5-2.1.3-3.2 3.4-4.5 8.6-2.5 9.7-6.5 19.8-8 29.3-5 8.8-11.5 15.4-23 16.9l-.9.1 2.1-2.8c9-12.7 15.7-26 14.4-36.5-1.2-9.4-9.2-16.1-13.7-15.5-1.3.2-2.1 1.2-2 2.4.2 1.6 1.5 3.4 2 7.8 1 7.7-3.1 19-9.8 32.5-1.4 3-2.8 5.6-4.2 7.9-.3-.1-.8-.2-1.1-.2-3.1.4-6.1 4.5-5.6 8.2.1.4.3.9.8 1.3-1.8 2.5-3 3.5-3.3 3.6-.9.1-1.9-.5-2.2-3.1-.7-5.7 9-35.3 8.3-40.9-.7-5.7-8.7-10.4-12-10-2.4.3-3.2 1.3-3 2.6.5 4.1-4.1 18.3-7 30.7-.3.5-.6 1.1-1 1.8-5.1 9.2-13.7 22.5-16.8 22.9-1.9.2-4.3-.8-4.6-3.2-.2-1.5-.1-4.8 1.1-11 2.2-11.5 9.9-23.6 9.7-25.7-.3-2.1-8.3-6.1-11.4-5.7-1.2.1-3.2 1.9-3.2 1.9-.6-4.9-9-10.5-15.8-9.7-15 1.8-34.3 35.5-32.4 51.3 1 8.5 10.9 17.4 20.1 16.3 9.4-1.2 18.5-19.5 18.5-19.5l.2 1.9c.2 1.9.7 4.7 1.8 6.3 3 3.9 9.3 6.7 15.8 5.9 6.4-.8 12.1-7.4 16.6-14.1 3.1 8.6 14.4 11.5 18.3 11 3-.4 7-3.3 12.7-9.9 2.3.3 4.7.3 7.1 0 11.1-1.4 18.9-5.7 24.1-11.2 2.9 9 11.8 13.9 19.2 13 6.9-.8 13.1-8.2 17.9-15.3 3.1 9.9 10.9 12.3 18.6 11.3 8.9-1.1 16.8-14.3 19.5-23 1.4 11.6 10.5 17.6 16.3 16.9 3.1-.4 4.6-3.4 4.4-4.8-.2-1.3-2.7-3.7-3.3-8.4-1.8-15 11.5-55.1 14.9-63.6 2.8-7.5 4.7-9.1 4.4-11.6zM205.1 92.5c.1 1 .6 1.4 1.2 2.1-4.3 10.4-15.4 25.8-18.8 26.2-2.1.3-4.2-.7-4.4-2.9-1.5-12.4 15.1-42.8 22.1-43.7 1.9-.2 3.9.9 4.2 3.1.7 7.1-4.6 12.7-4.3 15.2zM376.8 72c-3.4 9.5-12.2 27-18.3 27.8-1.9.2-2.4-1.4-2.6-3-2.1-17.3 14.4-46.3 22.3-47.3 1.5-.2 2.5.8 2.8 3.3.2 2.5-1.6 12-4.2 19.2z"/>
    <path class="st1" d="M56.3 138.6c3.7-.5 3-9 13.8-41.1C81 65.1 87.3 60.6 86.9 56.9c-.7-5.4-9.9-10.3-11.8-10-1.6.2-2.5 1.5-3.5 3.5-4.3 8.4-8.5 17.8-16.1 39.9-6.1 17.8-11 36.3-10.6 39.2.6 5.3 7.7 9.6 11.4 9.1z"/>
    <path class="st0" d="M209.5 161.3c1.2 9.5-3.8 15.5-10 19.9-.5.4-.7.8-.7 1.2 0 .3.2.8.7 1.1 4.9 3.1 9 7.6 9.5 11.5 1.9 15.6-15.6 25.7-31.7 27.6-2.3.3-4.9.5-6.7 0-4.1-1-19.5-10.7-20.1-15.8-.7-5.4.7-29.5 2.8-43.4 0-.6 0-1.6-.1-2.7-.2-1.6-.9-4.5-1-5.4-.2-1.6.5-2.4 1.6-3.2 4.7-3.4 16.3-7.8 24-8.7 14.4-1.9 30.6 8.9 31.7 17.9zM175.3 202c3.8-.5 9.3-4.6 8.7-9.3-.5-3.8-3.5-4.2-5.8-3.9l-1.6.2c-.8.1-2.2.4-2.3 2l-.6 9.5c.2 1.1.8 1.6 1.6 1.5zm.6-27.4c.1.7.6 1.1 1.2 1 3.2-.4 9.8-6 9.1-11.5-.5-4-4.2-4.3-7.4-4-1.1.1-1.6 1.5-1.7 2.4l-1.2 12.1zM271.1 143.7c2.3 18.6 1.4 67.3-23.7 70.3-6.4.8-18.4-1.8-23.9-5.9-5-3.6-7.6-9.7-8.4-16.4-2.4-19.4 2.2-42.8 4.7-49.7.6-1.7 1-2.6 2.9-2.8 3.2-.4 13.2.8 18 2.2 1.1.2 1.8 1.2 1.9 2.1v.7c-2.8 13.2-5.6 36.3-4.5 45.2.4 3.1 1.5 4.9 2.9 4.7 2.1-.3 3-2.7 4.3-9 3.1-15 4-38.7 4.1-46.2.1-1.3.8-2.1 1.8-2.2 1.9-.2 13 1.3 16.9 2.3 2.4.9 2.7 2.7 3 4.7zM309 206.4c-4.7.6-16.7-.5-23.7-4.5-6.6-3.9-7.9-9.9-9.2-13.5l-.3-1.2c-.1-1.1-.1-2.9 1.1-3.6 4.9-2.3 15.1-4.1 15.7-4.1 1.1-.1 2.2.2 2.7 1.1 1.6 3 2.2 6.6 7.4 5.9 3.4-.4 5.2-2 5-3.5-.2-1.8-3.8-2.8-8.5-4.1-8.4-2.3-19.7-5.6-21.2-17.7-1.5-12 5.5-30.7 20.2-32.5 10.2-1.2 33.5 4.5 34.8 15.7.6 4.6-1.6 11.4-2 12.8-.4 1.6-.9 2-2.7 2.4-4.2 1.1-12.7 2.4-14.2 2.6-3.2.4-3.6-1.1-3.9-2.2-.1-.9.8-6 .2-10.7-.3-2.2-1.2-3.2-2.6-3-3.4.4-5.5 8.4-5.1 11.5.5 3.4 2.9 4.5 7 6 7.9 2.7 19.3 4.1 20.8 16.3 1.6 12-7 24.5-21.5 26.3zM378.1 119.4c2.4-.3 16.6 1.8 19.3 2.6 1 .2 1.8 1.2 1.9 2.1v.6c-2.3 11.1-5.6 42.8-5.7 69.3.1 1-.6 1.8-1.6 1.9-1.9.2-15-1.5-18.3-2.5-1.2-.3-2.3-1-2.5-2.8-.4-3.2-.6-7.5-.6-12.4l-.1-.5c-.1-1-1-1.5-2.1-1.4l-5 1c-1.1.1-1.6 1.4-1.8 2.4-.3 6.2-.5 12.3-.4 18.2 0 1-.8 1.8-1.8 2-2.1.3-16-2-18.2-2.5-1.3-.3-2.3-1.1-2.5-2.8-.4-3.4-.5-8-.5-13.5 0 0 0-1.3-.1-2.1-.1-.9-2.9-8.9-3.5-12.4-.2-1.4 0-2.4 2.1-3.3 1.1-.5 2-1.6 2.1-2.9 1.2-14.6 2.9-29.1 4.6-35 .4-1.1 1.2-1.8 2.4-1.9 1.9-.2 15.2 1.4 19.2 2.5 1 .2 1.8 1.2 1.9 2.1v.6c-1.1 5.1-2.3 14.3-3.2 25.5v.7c.1.9.8 1.6 1.9 1.5 1.1-.1 2.8-.5 4.1-.6s1.9-1.3 2-2.4c1.2-13.6 2.6-26.4 4.3-31.9.2-1.1 1-2 2.1-2.1zM425.7 167.2c.1.9.9 1.5 1.9 1.4 5.8-1.3 14.5-2.6 15.3-2.7 1.8-.2 3.1.7 3.7 1.7 2.2 3.4 6.5 15 6.7 16.4.1 1-.6 2-1.6 2.3-6.4 1.4-24.5 5.1-31.2 6.4-1.9.2-3.2-.2-4-.8-3.9-2.5-9.7-8.9-12.5-13.1-.4-.6-.9-1.9-1.1-3-1.2-9.5 1-36.9 2.4-47.2.1-.5 0-1-.1-1.7s-.5-5.2-.6-6.1c-.2-1.5.8-2.3 1.9-2.7 5.9-2.1 21.1-5.3 32.9-6.7 3.4-.4 6.5-.7 8.8-.7 1.2 0 2.6.5 2.9 2.1 1.1 4 2.6 12.3 3.2 16.4.1 1.1-.8 2.3-1.9 2.5-4.1.7-13.3 2.3-22.4 3.8-1.2.3-1.6.8-1.9 2.1-.1.7-.2 2.5-.1 3.1.1 1 1 1.3 2 1.1 4.7-.8 9-1.4 11.7-1.8 1.7-.2 3 .8 3.4 1.9 1.4 3.8 3 10.6 3.7 14.5.1 1.1-.8 2.3-2 2.6-4.1.6-12.4 2.1-18.7 3.5-1.4.3-2.1.8-2.3 2l-.1 2.7zM497.1 160.5c1.5 3.6 5.5 14.7 5.8 17.2.1 1.1-.8 2.1-2 2.3-6.5 1.3-25.3 5.6-28 6-1 .1-2.2 0-3.2-.8-3.9-3.3-9.7-10.5-12.2-14.6-.6-.9-1.1-2.4-1.2-3.6-1.2-9.8 2.3-46.1 4.9-56.2.3-1 1.3-1.8 2.4-1.9 2.5-.3 15 1.6 19.4 2.5.9.1 1.6 1.1 1.8 2v.7c-1.5 7.6-5.8 38.5-5 45.5.1 1.1 1 1.4 2 1.3 5.2-1.1 8.8-1.8 11.8-2.1 1.4-.3 3 .6 3.5 1.7zM542.2 155c1.5 3.6 5.5 14.7 5.8 17.2.1 1.1-.8 2.1-2 2.3-6.5 1.3-25.3 5.6-28 6-1 .1-2.2 0-3.2-.8-3.9-3.3-9.7-10.5-12.2-14.6-.6-.9-1.1-2.4-1.2-3.6-1.2-9.8 2.3-46.1 4.9-56.2.3-1 1.3-1.8 2.4-1.9 2.5-.3 15 1.6 19.4 2.5.9.1 1.6 1.1 1.7 2v.7c-1.5 7.6-5.8 38.5-5 45.5.1 1.1 1 1.4 2 1.3 5.2-1.1 8.8-1.8 11.8-2.1 1.5-.3 3.1.6 3.6 1.7z"/>
    <path class="st2" d="M333.3 21.9l8.7 7.6-11.6.3-7.6 8.7-.3-11.6-8.7-7.6 11.6-.3 7.6-8.7z"/>
    <g>
        <path class="st3" d="M97 19.3c-33.9 4.2-56 19.3-73.8 35.5C10.1 66.9 2.5 80.2 3.3 87c.9 7.6 12.6 11.2 14.9 10.9 2.4-.3 3.2-4.3 9.3-14.1 6-9.8 7.8-10.3 7.3-14.3s-3.3-5.6-3.3-5.6S60.4 34.4 102 29.2c19.1-2.3 44.8 2.7 47 20.8 4.7 38.4-34.9 99.9-80.7 105.6-3.9.5-7.3-.8-7.7-3.6-.8-6.1 24.5-24.8 40.1-29.3 3.8-1.1 5.4-1.7 5.1-3.7-.2-1.9-3.2-4.8-6.3-4.4-17.3 2.1-50.6 27.5-49.1 39.3.9 7.1 13.7 16.8 26.2 15.2 52.3-6.4 91.9-67.9 87-107.5-3.7-30.8-34.9-46.2-66.6-42.3zM412.2 11.6c-.3-2.5-6.5-6.2-12-5.5-4.2.5-16.3 39.9-16.8 42-1.2-7.3-8.8-11.3-19.8-10-8.2 1-22.6 22.8-26.6 40.4-5.2 9.3-13.8 22.9-18.4 23.5-2.4.3-4.4-1.4-4.9-5.3-.8-6.3.4-11.2 8.6-34.9 2.2-6.5 3.8-8.8 3.4-11.9-.4-3.1-9.6-5.5-13.5-5-2.1.3-3.2 3.4-4.5 8.6-2.5 9.7-6.5 19.8-8 29.3-5 8.8-11.5 15.4-23 16.9l-.9.1 2.1-2.8c9-12.7 15.7-26 14.4-36.5-1.2-9.4-9.2-16.1-13.7-15.5-1.3.2-2.1 1.2-2 2.4.2 1.6 1.5 3.4 2 7.8 1 7.7-3.1 19-9.8 32.5-1.4 3-2.8 5.6-4.2 7.9-.3-.1-.8-.2-1.1-.2-3.1.4-6.1 4.5-5.6 8.2.1.4.3.9.8 1.3-1.8 2.5-3 3.5-3.3 3.6-.9.1-1.9-.5-2.2-3.1-.7-5.7 9-35.3 8.3-40.9-.7-5.7-8.7-10.4-12-10-2.4.3-3.2 1.3-3 2.6.5 4.1-4.1 18.3-7 30.7-.3.5-.6 1.1-1 1.8-5.1 9.2-13.7 22.5-16.8 22.9-1.9.2-4.3-.8-4.6-3.2-.2-1.5-.1-4.8 1.1-11 2.2-11.5 9.9-23.6 9.7-25.7-.3-2.1-8.3-6.1-11.4-5.7-1.2.1-3.2 1.9-3.2 1.9-.6-4.9-9-10.5-15.8-9.7-15 1.8-34.3 35.5-32.4 51.3 1 8.5 10.9 17.4 20.1 16.3 9.4-1.2 18.5-19.5 18.5-19.5l.2 1.9c.2 1.9.7 4.7 1.8 6.3 3 3.9 9.3 6.7 15.8 5.9 6.4-.8 12.1-7.4 16.6-14.1 3.1 8.6 14.4 11.5 18.3 11 3-.4 7-3.3 12.7-9.9 2.3.3 4.7.3 7.1 0 11.1-1.4 18.9-5.7 24.1-11.2 2.9 9 11.8 13.9 19.2 13 6.9-.8 13.1-8.2 17.9-15.3 3.1 9.9 10.9 12.3 18.6 11.3 8.9-1.1 16.8-14.3 19.5-23 1.4 11.6 10.5 17.6 16.3 16.9 3.1-.4 4.6-3.4 4.4-4.8-.2-1.3-2.7-3.7-3.3-8.4-1.8-15 11.5-55.1 14.9-63.6 2.8-7.5 4.7-9.1 4.4-11.6zM202.1 89.5c.1 1 .6 1.4 1.2 2.1-4.3 10.4-15.4 25.8-18.8 26.2-2.1.3-4.2-.7-4.4-2.9-1.5-12.4 15.1-42.8 22.1-43.7 1.9-.2 3.9.9 4.2 3.1.7 7.1-4.6 12.7-4.3 15.2zM373.8 69c-3.4 9.5-12.2 27-18.3 27.8-1.9.2-2.4-1.4-2.6-3-2.1-17.3 14.4-46.3 22.3-47.3 1.5-.2 2.5.8 2.8 3.3.2 2.5-1.6 12-4.2 19.2z"/>
        <path class="st3" d="M53.3 135.6c3.7-.5 3-9 13.8-41.1C78 62.1 84.3 57.6 83.9 53.9c-.7-5.4-9.9-10.3-11.8-10-1.6.2-2.5 1.5-3.5 3.5-4.3 8.4-8.5 17.8-16.1 39.9-6.1 17.8-11 36.3-10.6 39.2.6 5.3 7.7 9.6 11.4 9.1z"/>
    </g>
    <g>
        <path class="st1" d="M207.5 159.3c1.2 9.5-3.8 15.5-10 19.9-.5.4-.7.8-.7 1.2 0 .3.2.8.7 1.1 4.9 3.1 9 7.6 9.5 11.5 1.9 15.6-15.6 25.7-31.7 27.6-2.3.3-4.9.5-6.7 0-4.1-1-19.5-10.7-20.1-15.8-.7-5.4.7-29.5 2.8-43.4 0-.6 0-1.6-.1-2.7-.2-1.6-.9-4.5-1-5.4-.2-1.6.5-2.4 1.6-3.2 4.7-3.4 16.3-7.8 24-8.7 14.4-1.9 30.6 8.9 31.7 17.9zM173.3 200c3.8-.5 9.3-4.6 8.7-9.3-.5-3.8-3.5-4.2-5.8-3.9l-1.6.2c-.8.1-2.2.4-2.3 2l-.6 9.5c.2 1.1.8 1.6 1.6 1.5zm.6-27.4c.1.7.6 1.1 1.2 1 3.2-.4 9.8-6 9.1-11.5-.5-4-4.2-4.3-7.4-4-1.1.1-1.6 1.5-1.7 2.4l-1.2 12.1zM269.1 141.7c2.3 18.6 1.4 67.3-23.7 70.3-6.4.8-18.4-1.8-23.9-5.9-5-3.6-7.6-9.7-8.4-16.4-2.4-19.4 2.2-42.8 4.7-49.7.6-1.7 1-2.6 2.9-2.8 3.2-.4 13.2.8 18 2.2 1.1.2 1.8 1.2 1.9 2.1v.7c-2.8 13.2-5.6 36.3-4.5 45.2.4 3.1 1.5 4.9 2.9 4.7 2.1-.3 3-2.7 4.3-9 3.1-15 4-38.7 4.1-46.2.1-1.3.8-2.1 1.8-2.2 1.9-.2 13 1.3 16.9 2.3 2.4.9 2.7 2.7 3 4.7zM307 204.4c-4.7.6-16.7-.5-23.7-4.5-6.6-3.9-7.9-9.9-9.2-13.5l-.3-1.2c-.1-1.1-.1-2.9 1.1-3.6 4.9-2.3 15.1-4.1 15.7-4.1 1.1-.1 2.2.2 2.7 1.1 1.6 3 2.2 6.6 7.4 5.9 3.4-.4 5.2-2 5-3.5-.2-1.8-3.8-2.8-8.5-4.1-8.4-2.3-19.7-5.6-21.2-17.7-1.5-12 5.5-30.7 20.2-32.5 10.2-1.2 33.5 4.5 34.8 15.7.6 4.6-1.6 11.4-2 12.8-.4 1.6-.9 2-2.7 2.4-4.2 1.1-12.7 2.4-14.2 2.6-3.2.4-3.6-1.1-3.9-2.2-.1-.9.8-6 .2-10.7-.3-2.2-1.2-3.2-2.6-3-3.4.4-5.5 8.4-5.1 11.5.5 3.4 2.9 4.5 7 6 7.9 2.7 19.3 4.1 20.8 16.3 1.6 12-7 24.5-21.5 26.3zM376.1 117.4c2.4-.3 16.6 1.8 19.3 2.6 1 .2 1.8 1.2 1.9 2.1v.6c-2.3 11.1-5.6 42.8-5.7 69.3.1 1-.6 1.8-1.6 1.9-1.9.2-15-1.5-18.3-2.5-1.2-.3-2.3-1-2.5-2.8-.4-3.2-.6-7.5-.6-12.4l-.1-.5c-.1-1-1-1.5-2.1-1.4l-5 1c-1.1.1-1.6 1.4-1.8 2.4-.3 6.2-.5 12.3-.4 18.2 0 1-.8 1.8-1.8 2-2.1.3-16-2-18.2-2.5-1.3-.3-2.3-1.1-2.5-2.8-.4-3.4-.5-8-.5-13.5 0 0 0-1.3-.1-2.1-.1-.9-2.9-8.9-3.5-12.4-.2-1.4 0-2.4 2.1-3.3 1.1-.5 2-1.6 2.1-2.9 1.2-14.6 2.9-29.1 4.6-35 .4-1.1 1.2-1.8 2.4-1.9 1.9-.2 15.2 1.4 19.2 2.5 1 .2 1.8 1.2 1.9 2.1v.6c-1.1 5.1-2.3 14.3-3.2 25.5v.7c.1.9.8 1.6 1.9 1.5 1.1-.1 2.8-.5 4.1-.6s1.9-1.3 2-2.4c1.2-13.6 2.6-26.4 4.3-31.9.2-1.1 1-2 2.1-2.1zM423.7 165.2c.1.9.9 1.5 1.9 1.4 5.8-1.3 14.5-2.6 15.3-2.7 1.8-.2 3.1.7 3.7 1.7 2.2 3.4 6.5 15 6.7 16.4.1 1-.6 2-1.6 2.3-6.4 1.4-24.5 5.1-31.2 6.4-1.9.2-3.2-.2-4-.8-3.9-2.5-9.7-8.9-12.5-13.1-.4-.6-.9-1.9-1.1-3-1.2-9.5 1-36.9 2.4-47.2.1-.5 0-1-.1-1.7s-.5-5.2-.6-6.1c-.2-1.5.8-2.3 1.9-2.7 5.9-2.1 21.1-5.3 32.9-6.7 3.4-.4 6.5-.7 8.8-.7 1.2 0 2.6.5 2.9 2.1 1.1 4 2.6 12.3 3.2 16.4.1 1.1-.8 2.3-1.9 2.5-4.1.7-13.3 2.3-22.4 3.8-1.2.3-1.6.8-1.9 2.1-.1.7-.2 2.5-.1 3.1.1 1 1 1.3 2 1.1 4.7-.8 9-1.4 11.7-1.8 1.7-.2 3 .8 3.4 1.9 1.4 3.8 3 10.6 3.7 14.5.1 1.1-.8 2.3-2 2.6-4.1.6-12.4 2.1-18.7 3.5-1.4.3-2.1.8-2.3 2l-.1 2.7zM495.1 158.5c1.5 3.6 5.5 14.7 5.8 17.2.1 1.1-.8 2.1-2 2.3-6.5 1.3-25.3 5.6-28 6-1 .1-2.2 0-3.2-.8-3.9-3.3-9.7-10.5-12.2-14.6-.6-.9-1.1-2.4-1.2-3.6-1.2-9.8 2.3-46.1 4.9-56.2.3-1 1.3-1.8 2.4-1.9 2.5-.3 15 1.6 19.4 2.5.9.1 1.6 1.1 1.8 2v.7c-1.5 7.6-5.8 38.5-5 45.5.1 1.1 1 1.4 2 1.3 5.2-1.1 8.8-1.8 11.8-2.1 1.4-.3 3 .6 3.5 1.7zM540.2 153c1.5 3.6 5.5 14.7 5.8 17.2.1 1.1-.8 2.1-2 2.3-6.5 1.3-25.3 5.6-28 6-1 .1-2.2 0-3.2-.8-3.9-3.3-9.7-10.5-12.2-14.6-.6-.9-1.1-2.4-1.2-3.6-1.2-9.8 2.3-46.1 4.9-56.2.3-1 1.3-1.8 2.4-1.9 2.5-.3 15 1.6 19.4 2.5.9.1 1.6 1.1 1.7 2v.7c-1.5 7.6-5.8 38.5-5 45.5.1 1.1 1 1.4 2 1.3 5.2-1.1 8.8-1.8 11.8-2.1 1.5-.3 3.1.6 3.6 1.7z"/>
    </g>
    <g>
        <path class="st3" d="M204.5 157.3c1.2 9.5-3.8 15.5-10 19.9-.5.4-.7.8-.7 1.2 0 .3.2.8.7 1.1 4.9 3.1 9 7.6 9.5 11.5 1.9 15.6-15.6 25.7-31.7 27.6-2.3.3-4.9.5-6.7 0-4.1-1-19.5-10.7-20.1-15.8-.7-5.4.7-29.5 2.8-43.4 0-.6 0-1.6-.1-2.7-.2-1.6-.9-4.5-1-5.4-.2-1.6.5-2.4 1.6-3.2 4.7-3.4 16.3-7.8 24-8.7 14.4-1.9 30.6 8.9 31.7 17.9zM170.3 198c3.8-.5 9.3-4.6 8.7-9.3-.5-3.8-3.5-4.2-5.8-3.9l-1.6.2c-.8.1-2.2.4-2.3 2l-.6 9.5c.2 1.1.8 1.6 1.6 1.5zm.6-27.4c.1.7.6 1.1 1.2 1 3.2-.4 9.8-6 9.1-11.5-.5-4-4.2-4.3-7.4-4-1.1.1-1.6 1.5-1.7 2.4l-1.2 12.1zM266.1 139.7c2.3 18.6 1.4 67.3-23.7 70.3-6.4.8-18.4-1.8-23.9-5.9-5-3.6-7.6-9.7-8.4-16.4-2.4-19.4 2.2-42.8 4.7-49.7.6-1.7 1-2.6 2.9-2.8 3.2-.4 13.2.8 18 2.2 1.1.2 1.8 1.2 1.9 2.1v.7c-2.8 13.2-5.6 36.3-4.5 45.2.4 3.1 1.5 4.9 2.9 4.7 2.1-.3 3-2.7 4.3-9 3.1-15 4-38.7 4.1-46.2.1-1.3.8-2.1 1.8-2.2 1.9-.2 13 1.3 16.9 2.3 2.4.9 2.7 2.7 3 4.7zM304 202.4c-4.7.6-16.7-.5-23.7-4.5-6.6-3.9-7.9-9.9-9.2-13.5l-.3-1.2c-.1-1.1-.1-2.9 1.1-3.6 4.9-2.3 15.1-4.1 15.7-4.1 1.1-.1 2.2.2 2.7 1.1 1.6 3 2.2 6.6 7.4 5.9 3.4-.4 5.2-2 5-3.5-.2-1.8-3.8-2.8-8.5-4.1-8.4-2.3-19.7-5.6-21.2-17.7-1.5-12 5.5-30.7 20.2-32.5 10.2-1.2 33.5 4.5 34.8 15.7.6 4.6-1.6 11.4-2 12.8-.4 1.6-.9 2-2.7 2.4-4.2 1.1-12.7 2.4-14.2 2.6-3.2.4-3.6-1.1-3.9-2.2-.1-.9.8-6 .2-10.7-.3-2.2-1.2-3.2-2.6-3-3.4.4-5.5 8.4-5.1 11.5.5 3.4 2.9 4.5 7 6 7.9 2.7 19.3 4.1 20.8 16.3 1.6 12-7 24.5-21.5 26.3zM373.1 115.4c2.4-.3 16.6 1.8 19.3 2.6 1 .2 1.8 1.2 1.9 2.1v.6c-2.3 11.1-5.6 42.8-5.7 69.3.1 1-.6 1.8-1.6 1.9-1.9.2-15-1.5-18.3-2.5-1.2-.3-2.3-1-2.5-2.8-.4-3.2-.6-7.5-.6-12.4l-.1-.5c-.1-1-1-1.5-2.1-1.4l-5 1c-1.1.1-1.6 1.4-1.8 2.4-.3 6.2-.5 12.3-.4 18.2 0 1-.8 1.8-1.8 2-2.1.3-16-2-18.2-2.5-1.3-.3-2.3-1.1-2.5-2.8-.4-3.4-.5-8-.5-13.5 0 0 0-1.3-.1-2.1-.1-.9-2.9-8.9-3.5-12.4-.2-1.4 0-2.4 2.1-3.3 1.1-.5 2-1.6 2.1-2.9 1.2-14.6 2.9-29.1 4.6-35 .4-1.1 1.2-1.8 2.4-1.9 1.9-.2 15.2 1.4 19.2 2.5 1 .2 1.8 1.2 1.9 2.1v.6c-1.1 5.1-2.3 14.3-3.2 25.5v.7c.1.9.8 1.6 1.9 1.5 1.1-.1 2.8-.5 4.1-.6s1.9-1.3 2-2.4c1.2-13.6 2.6-26.4 4.3-31.9.2-1.1 1-2 2.1-2.1zM420.7 163.2c.1.9.9 1.5 1.9 1.4 5.8-1.3 14.5-2.6 15.3-2.7 1.8-.2 3.1.7 3.7 1.7 2.2 3.4 6.5 15 6.7 16.4.1 1-.6 2-1.6 2.3-6.4 1.4-24.5 5.1-31.2 6.4-1.9.2-3.2-.2-4-.8-3.9-2.5-9.7-8.9-12.5-13.1-.4-.6-.9-1.9-1.1-3-1.2-9.5 1-36.9 2.4-47.2.1-.5 0-1-.1-1.7s-.5-5.2-.6-6.1c-.2-1.5.8-2.3 1.9-2.7 5.9-2.1 21.1-5.3 32.9-6.7 3.4-.4 6.5-.7 8.8-.7 1.2 0 2.6.5 2.9 2.1 1.1 4 2.6 12.3 3.2 16.4.1 1.1-.8 2.3-1.9 2.5-4.1.7-13.3 2.3-22.4 3.8-1.2.3-1.6.8-1.9 2.1-.1.7-.2 2.5-.1 3.1.1 1 1 1.3 2 1.1 4.7-.8 9-1.4 11.7-1.8 1.7-.2 3 .8 3.4 1.9 1.4 3.8 3 10.6 3.7 14.5.1 1.1-.8 2.3-2 2.6-4.1.6-12.4 2.1-18.7 3.5-1.4.3-2.1.8-2.3 2l-.1 2.7zM492.1 156.5c1.5 3.6 5.5 14.7 5.8 17.2.1 1.1-.8 2.1-2 2.3-6.5 1.3-25.3 5.6-28 6-1 .1-2.2 0-3.2-.8-3.9-3.3-9.7-10.5-12.2-14.6-.6-.9-1.1-2.4-1.2-3.6-1.2-9.8 2.3-46.1 4.9-56.2.3-1 1.3-1.8 2.4-1.9 2.5-.3 15 1.6 19.4 2.5.9.1 1.6 1.1 1.8 2v.7c-1.5 7.6-5.8 38.5-5 45.5.1 1.1 1 1.4 2 1.3 5.2-1.1 8.8-1.8 11.8-2.1 1.4-.3 3 .6 3.5 1.7zM537.2 151c1.5 3.6 5.5 14.7 5.8 17.2.1 1.1-.8 2.1-2 2.3-6.5 1.3-25.3 5.6-28 6-1 .1-2.2 0-3.2-.8-3.9-3.3-9.7-10.5-12.2-14.6-.6-.9-1.1-2.4-1.2-3.6-1.2-9.8 2.3-46.1 4.9-56.2.3-1 1.3-1.8 2.4-1.9 2.5-.3 15 1.6 19.4 2.5.9.1 1.6 1.1 1.7 2v.7c-1.5 7.6-5.8 38.5-5 45.5.1 1.1 1 1.4 2 1.3 5.2-1.1 8.8-1.8 11.8-2.1 1.5-.3 3.1.6 3.6 1.7z"/>
    </g>
</svg>
