<svg id="Layer_1" xmlns="http://www.w3.org/2000/svg" width="640" height="400" viewBox="220 -100 640 400"><style>.st0{fill:#a1e5cf}.st1{fill:#fffbcc}.st2{fill:#ff6680}.st3{fill:#494b4d}.st4{fill:#1d97bf}</style><path class="st0" d="M220-100h640v400H220v-400z"/><path class="st0" d="M771.5-50.3c14.8.1 26.9 12 27 26.7L780 224v.4c0 14.8-12.2 26.8-27.1 26.9l-426.3-18.4-.2.1h-.1c-15 0-27.3-12.2-27.3-27.1v-.6L280.5-5.3C280.6-20 292.8-32 307.6-32h.1l.1.1 463.7-18.4m-.1-6L307.7-37.8c-18.3 0-33.1 14.7-33.1 32.9l18.6 210.8c0 18.2 14.8 32.9 33.1 32.9l426.5 18.5c18.3 0 33.1-14.7 33.1-32.9l18.6-247.8c0-18.2-14.8-32.9-33.1-32.9z"/><path class="st1" d="M791 228.7c0 18.6-15.1 33.8-33.8 33.8l-434.5-19c-18.6 0-33.8-15.1-33.8-33.8L270-9.8c0-18.6 15.1-33.7 33.8-33.7l472.5-19c18.7 0 33.8 15.1 33.8 33.8L791 228.7z"/><path class="st0" d="M772-50.8c14.8.1 26.9 12 27 26.7l-18.6 247.6v.4c0 14.8-12.1 26.8-27 26.9L327 232.3h-.2c-15 0-27.1-12.1-27.1-26.9v-.6L281-5.7c.1-14.7 12.3-26.7 27.1-26.7h.2L772-50.8m-.1-6L308.2-38.3c-18.3 0-33.1 14.7-33.1 32.9l18.6 210.8c0 18.2 14.8 32.9 33.1 32.9l426.5 18.5c18.3 0 33.1-14.7 33.1-32.9L805-23.9c0-18.2-14.8-32.9-33.1-32.9z"/><path class="st0" d="M392.4 157.4c-3.7.2-11.8.6-20.1 1.2-1.5.1-1.9.7-2.3 1.9-.3.9-1.3 4.9-1.3 5.7 0 .9.5 1.7 1.9 1.7 3.1-.1 10-.2 12-.2 2.2 0 3.1 1.2 3.3 2.4.6 4 1 12.2 1 16.2 0 1.3-.9 2.2-2.2 2.3-3.8.1-11.9.5-18.3.8-1.3.1-2.6 1-2.7 2.3-1.2 6.6-2.1 13.4-3.1 19.9-.1.9-.9 1.7-2.1 1.7-2.6 0-15.4-3.7-17.7-4.8-1.4-.6-2.2-1.7-2.2-3.6 0-12.6 5-41.1 9.5-57.8 0 0 .2-1.2.2-1.7 0-1.7-.2-4.3-.2-5.6 0-1.6 1-2.6 2.6-2.9 5.4-1.3 18.2-2.6 29.2-2.6 4.4 0 8.5.1 11.5.7 1.7.3 2.6 1.6 2.7 2.8.6 4.2.6 13 .7 17.2-.1 1.3-1 2.4-2.4 2.4zM398 202c-4.3-4.9-5.7-13.4-5.7-19.7 0-15.7 9-47.8 31.9-47.8 5.6 0 24 4.9 29.7 13.3 3.6 5.2 4.7 11.9 4.7 18.2 0 17.6-9.7 47.8-32.9 47.8-9-.1-19.9-3.1-27.7-11.8zm19-18.9c0 8 2.7 10 5 10 6.2 0 12.1-15.7 12.1-30.1 0-3.4-1-8.5-4.8-8.5-5.7 0-12.3 16.6-12.3 28.6zm91 4.1c0 .3.1.7.3 1 3 4 6.4 7.9 9.4 10.9.5.5.7 1.2.7 1.7s-.1 1.2-.8 1.7c-3 2.7-14.9 10.9-18.3 10.9-1 0-2-.1-3.1-1-5.9-5-9.4-18.6-9.9-22-.1-1.2-.3-2.2-.8-2.2s-.7.9-.9 2.2c-1 7-2.2 14.2-3 21.1-.2 1.2-1.2 1.9-2.2 1.9-3.7 0-15.1-3.5-17.9-4.8-1.4-.6-2.1-1.6-2.1-3.1 0-12.8 5-38.9 9.2-56 .2-1 .3-2.2.3-3.4 0-1.6-.3-3.8-.3-4.8 0-1.4.8-2.1 1.9-2.6 3.8-1.4 12.8-4.2 23.3-4.2 14.7 0 31.2 15.4 31.2 26.8 0 11.3-6.9 19.9-15.6 24-.9.5-1.4 1.2-1.4 1.9zm-13.6-32.4c-1.3 0-2.2.8-2.6 1.9-.9 3.8-3 13.4-3 14.1 0 .7.5 1.2 1.2 1.2 4.9 0 9.4-6.1 9.4-10.5 0-3.1-1.5-6.7-5-6.7zm97-20c2.4 0 16.4 3.8 19.1 5 .9.3 1.6 1.4 1.6 2.3 0 .2-.1.6-.1.6-3.7 10.8-10.9 42.2-14.3 68.9 0 1-.8 1.7-1.9 1.7-2 0-14.9-3.4-18-4.8-1.2-.5-2.2-1.3-2.2-3.1 0-3.3.3-7.6.9-12.6v-.5c0-1-.8-1.6-2-1.6l-5.1.3c-1.2 0-1.7 1.2-2.1 2.2-1 6.2-2 12.3-2.7 18.3-.1 1-1 1.7-2.1 1.7-2.1 0-15.8-4-17.9-4.8-1.3-.5-2.2-1.4-2.2-3.1 0-3.5.5-8.1 1.2-13.6 0 0 .1-1.3.1-2.1 0-.9-1.9-9.3-2-12.9 0-1.4.3-2.4 2.6-3 1.2-.3 2.2-1.4 2.4-2.7 3-14.5 6.5-28.9 9-34.6.6-1 1.4-1.6 2.7-1.6 2 0 15.1 3.3 19 4.9.9.3 1.6 1.4 1.6 2.3 0 .2-.1.6-.1.6-1.7 5-4.1 14.1-6.4 25.3l-.1.7c0 .9.6 1.7 1.7 1.7s2.9-.1 4.2-.1 2.1-1 2.3-2.2c2.9-13.5 5.8-26.2 8.3-31.5.4-.9 1.3-1.7 2.5-1.7zm33.5 78.6c-2.6 0-14.3-3.3-17.6-4.7-1.5-.7-2.3-2-2.3-3.1.2-15.8 8.4-58.1 13.3-69 .5-.9 1.4-1.5 2.7-1.5 2.8 0 14.1 3.1 18.6 4.9.9.3 1.9 1.3 1.9 2.2 0 .2-.1.6-.1.6-3.8 10.8-10.8 42.2-14.4 68.9-.3 1.1-1.1 1.7-2.1 1.7zm59.2-26.2c0 .3.1.7.3 1 3 4 6.4 7.9 9.4 10.9.5.5.7 1.2.7 1.7s-.1 1.2-.8 1.7c-3 2.7-14.9 10.9-18.3 10.9-1 0-2-.1-3.1-1-5.9-5-9.4-18.6-9.9-22-.1-1.2-.3-2.2-.8-2.2s-.7.9-.9 2.2c-1 7-2.2 14.2-3 21.1-.2 1.2-1.2 1.9-2.2 1.9-3.7 0-15.1-3.5-17.9-4.8-1.4-.6-2.1-1.6-2.1-3.1 0-12.8 5-38.9 9.2-56 .2-1 .3-2.2.3-3.4 0-1.6-.3-3.8-.3-4.8 0-1.4.8-2.1 1.9-2.6 3.8-1.4 12.8-4.2 23.3-4.2 14.7 0 31.2 15.4 31.2 26.8 0 11.3-6.9 19.9-15.6 24-.9.5-1.4 1.2-1.4 1.9zm-13.6-32.4c-1.3 0-2.2.8-2.6 1.9-.9 3.8-3 13.4-3 14.1 0 .7.5 1.2 1.2 1.2 4.9 0 9.4-6.1 9.4-10.5 0-3.1-1.5-6.7-5-6.7zm54.7 33.9c0 .9.7 1.6 1.7 1.6 5.9-.6 14.9-.8 15.7-.8 1.9 0 3 1 3.5 2.2 1.7 3.7 4.7 15.8 4.7 17.3 0 1-.8 2-1.9 2.1-6.6.6-25.3 2.1-32.1 2.6-2 0-3.1-.6-4-1.3-3.6-3-8.6-10.1-10.9-14.7-.3-.7-.7-2-.7-3.1 0-9.7 5.6-36.9 8.3-47.1.1-.5.1-1 .1-1.7s.1-5.2.1-6.2c0-1.5 1-2.2 2.2-2.4 6.2-1.4 21.9-2.7 33.9-2.7 3.5 0 6.6.1 9 .3 1.2.1 2.6.8 2.7 2.4.6 4.2 1 12.7 1.2 16.9 0 1.2-1 2.2-2.2 2.3-4.2.2-13.6.7-22.9 1-1.3.1-1.7.6-2.2 1.9-.2.7-.5 2.4-.5 3.1 0 1 .8 1.4 1.9 1.4 4.8-.2 9.2-.3 12-.3 1.7 0 2.9 1.2 3.1 2.3.9 4 1.7 11.1 2 15 0 1.2-1 2.2-2.3 2.3-4.2.1-12.7.6-19.2 1.2-1.4.1-2.2.6-2.6 1.7l-.6 2.7z"/><path class="st1" d="M388.7 153.7c-3.7.2-11.8.6-20.1 1.2-1.5.1-1.9.7-2.3 1.9-.3.9-1.3 4.9-1.3 5.7 0 .9.5 1.7 1.9 1.7 3.1-.1 10-.2 12-.2 2.2 0 3.1 1.2 3.3 2.4.6 4 1 12.2 1 16.2 0 1.3-.9 2.2-2.2 2.3-3.8.1-11.9.5-18.3.8-1.3.1-2.6 1-2.7 2.3-1.2 6.6-2.1 13.4-3.1 19.9-.1.9-.9 1.7-2.1 1.7-2.6 0-15.4-3.7-17.7-4.8-1.4-.6-2.2-1.7-2.2-3.6 0-12.6 5-41.1 9.5-57.8 0 0 .2-1.2.2-1.7 0-1.7-.2-4.3-.2-5.6 0-1.6 1-2.6 2.6-2.9 5.4-1.3 18.2-2.6 29.2-2.6 4.4 0 8.5.1 11.5.7 1.7.3 2.6 1.6 2.7 2.8.6 4.2.6 13 .7 17.2-.1 1.3-1 2.4-2.4 2.4zm5.6 44.6c-4.3-4.9-5.7-13.4-5.7-19.7 0-15.7 9-47.8 31.9-47.8 5.6 0 24 4.9 29.7 13.3 3.6 5.2 4.7 11.9 4.7 18.2 0 17.6-9.7 47.8-32.9 47.8-9-.1-19.9-3.1-27.7-11.8zm19-18.9c0 8 2.7 10 5 10 6.2 0 12.1-15.7 12.1-30.1 0-3.4-1-8.5-4.8-8.5-5.7 0-12.3 16.6-12.3 28.6zm91 4.1c0 .3.1.7.3 1 3 4 6.4 7.9 9.4 10.9.5.5.7 1.2.7 1.7s-.1 1.2-.8 1.7c-3 2.7-14.9 10.9-18.3 10.9-1 0-2-.1-3.1-1-5.9-5-9.4-18.6-9.9-22-.1-1.2-.3-2.2-.8-2.2s-.7.9-.9 2.2c-1 7-2.2 14.2-3 21.1-.2 1.2-1.2 1.9-2.2 1.9-3.7 0-15.1-3.5-17.9-4.8-1.4-.6-2.1-1.6-2.1-3.1 0-12.8 5-38.9 9.2-56 .2-1 .3-2.2.3-3.4 0-1.6-.3-3.8-.3-4.8 0-1.4.8-2.1 1.9-2.6 3.8-1.4 12.8-4.2 23.3-4.2 14.7 0 31.2 15.4 31.2 26.8 0 11.3-6.9 19.9-15.6 24-.9.5-1.4 1.2-1.4 1.9zm-13.6-32.4c-1.3 0-2.2.8-2.6 1.9-.9 3.8-3 13.4-3 14.1 0 .7.5 1.2 1.2 1.2 4.9 0 9.4-6.1 9.4-10.5 0-3.1-1.5-6.7-5-6.7zm97-20c2.4 0 16.4 3.8 19.1 5 .9.3 1.6 1.4 1.6 2.3 0 .2-.1.6-.1.6-3.7 10.8-10.9 42.2-14.3 68.9 0 1-.8 1.7-1.9 1.7-2 0-14.9-3.4-18-4.8-1.2-.5-2.2-1.3-2.2-3.1 0-3.3.3-7.6.9-12.6v-.5c0-1-.8-1.6-2-1.6l-5.1.3c-1.2 0-1.7 1.2-2.1 2.2-1 6.2-2 12.3-2.7 18.3-.1 1-1 1.7-2.1 1.7-2.1 0-15.8-4-17.9-4.8-1.3-.5-2.2-1.4-2.2-3.1 0-3.5.5-8.1 1.2-13.6 0 0 .1-1.3.1-2.1 0-.9-1.9-9.3-2-12.9 0-1.4.3-2.4 2.6-3 1.2-.3 2.2-1.4 2.4-2.7 3-14.5 6.5-28.9 9-34.6.6-1 1.4-1.6 2.7-1.6 2 0 15.1 3.3 19 4.9.9.3 1.6 1.4 1.6 2.3 0 .2-.1.6-.1.6-1.7 5-4.1 14.1-6.4 25.3l-.1.7c0 .9.6 1.7 1.7 1.7 1.2 0 2.9-.1 4.2-.1s2.1-1 2.3-2.2c2.9-13.5 5.8-26.2 8.3-31.5.4-.9 1.3-1.7 2.5-1.7zm33.5 78.6c-2.6 0-14.3-3.3-17.6-4.7-1.5-.7-2.3-2-2.3-3.1.2-15.8 8.4-58.1 13.3-69 .5-.9 1.4-1.5 2.7-1.5 2.8 0 14.1 3.1 18.6 4.9.9.3 1.9 1.3 1.9 2.2 0 .2-.1.6-.1.6-3.8 10.8-10.8 42.2-14.4 68.9-.3 1.1-1.1 1.7-2.1 1.7zm59.2-26.2c0 .3.1.7.3 1 3 4 6.4 7.9 9.4 10.9.5.5.7 1.2.7 1.7s-.1 1.2-.8 1.7c-3 2.7-14.9 10.9-18.3 10.9-1 0-2-.1-3.1-1-5.9-5-9.4-18.6-9.9-22-.1-1.2-.3-2.2-.8-2.2s-.7.9-.9 2.2c-1 7-2.2 14.2-3 21.1-.2 1.2-1.2 1.9-2.2 1.9-3.7 0-15.1-3.5-17.9-4.8-1.4-.6-2.1-1.6-2.1-3.1 0-12.8 5-38.9 9.2-56 .2-1 .3-2.2.3-3.4 0-1.6-.3-3.8-.3-4.8 0-1.4.8-2.1 1.9-2.6 3.8-1.4 12.8-4.2 23.3-4.2 14.7 0 31.2 15.4 31.2 26.8 0 11.3-6.9 19.9-15.6 24-.9.5-1.4 1.2-1.4 1.9zm-13.6-32.4c-1.3 0-2.2.8-2.6 1.9-.9 3.8-3 13.4-3 14.1 0 .7.5 1.2 1.2 1.2 4.9 0 9.4-6.1 9.4-10.5 0-3.1-1.5-6.7-5-6.7zm54.7 33.9c0 .9.7 1.6 1.7 1.6 5.9-.6 14.9-.8 15.7-.8 1.9 0 3 1 3.5 2.2 1.7 3.7 4.7 15.8 4.7 17.3 0 1-.8 2-1.9 2.1-6.6.6-25.3 2.1-32.1 2.6-2 0-3.1-.6-4-1.3-3.6-3-8.6-10.1-10.9-14.7-.3-.7-.7-2-.7-3.1 0-9.7 5.6-36.9 8.3-47.1.1-.5.1-1 .1-1.7s.1-5.2.1-6.2c0-1.5 1-2.2 2.2-2.4 6.2-1.4 21.9-2.7 33.9-2.7 3.5 0 6.6.1 9 .3 1.2.1 2.6.8 2.7 2.4.6 4.2 1 12.7 1.2 16.9 0 1.2-1 2.2-2.2 2.3-4.2.2-13.6.7-22.9 1-1.3.1-1.7.6-2.2 1.9-.2.7-.5 2.4-.5 3.1 0 1 .8 1.4 1.9 1.4 4.8-.2 9.2-.3 12-.3 1.7 0 2.9 1.2 3.1 2.3.9 4 1.7 11.1 2 15 0 1.2-1 2.2-2.3 2.3-4.2.1-12.7.6-19.2 1.2-1.4.1-2.2.6-2.6 1.7l-.6 2.7z"/><path class="st2" d="M386.8 151.8c-3.7.2-11.8.6-20.1 1.2-1.5.1-1.9.7-2.3 1.9-.3.9-1.3 4.9-1.3 5.7 0 .9.5 1.7 1.9 1.7 3.1-.1 10-.2 12-.2 2.2 0 3.1 1.2 3.3 2.4.6 4 1 12.2 1 16.2 0 1.3-.9 2.2-2.2 2.3-3.8.1-11.9.5-18.3.8-1.3.1-2.6 1-2.7 2.3-1.2 6.6-2.1 13.4-3.1 19.9-.1.9-.9 1.7-2.1 1.7-2.6 0-15.4-3.7-17.7-4.8-1.4-.6-2.2-1.7-2.2-3.6 0-12.6 5-41.1 9.5-57.8 0 0 .2-1.2.2-1.7 0-1.7-.2-4.3-.2-5.6 0-1.6 1-2.6 2.6-2.9 5.4-1.3 18.2-2.6 29.2-2.6 4.4 0 8.5.1 11.5.7 1.7.3 2.6 1.6 2.7 2.8.6 4.2.6 13 .7 17.2 0 1.4-1 2.4-2.4 2.4zm5.6 44.6c-4.3-4.9-5.7-13.4-5.7-19.7 0-15.7 9-47.8 31.9-47.8 5.6 0 24 4.9 29.7 13.3 3.6 5.2 4.7 11.9 4.7 18.2 0 17.6-9.7 47.8-32.9 47.8-9 0-19.9-3.1-27.7-11.8zm19.1-18.8c0 8 2.7 10 5 10 6.2 0 12.1-15.7 12.1-30.1 0-3.4-1-8.5-4.8-8.5-5.8-.1-12.3 16.6-12.3 28.6zm91 4c0 .3.1.7.3 1 3 4 6.4 7.9 9.4 10.9.5.5.7 1.2.7 1.7s-.1 1.2-.8 1.7c-3 2.7-14.9 10.9-18.3 10.9-1 0-2-.1-3.1-1-5.9-5-9.4-18.6-9.9-22-.1-1.2-.3-2.2-.8-2.2s-.7.9-.9 2.2c-1 7-2.2 14.2-3 21.1-.2 1.2-1.2 1.9-2.2 1.9-3.7 0-15.1-3.5-17.9-4.8-1.4-.6-2.1-1.6-2.1-3.1 0-12.8 5-38.9 9.2-56 .2-1 .3-2.2.3-3.4 0-1.6-.3-3.8-.3-4.8 0-1.4.8-2.1 1.9-2.6 3.8-1.4 12.8-4.2 23.3-4.2 14.7 0 31.2 15.4 31.2 26.8 0 11.3-6.9 19.9-15.6 24-.9.5-1.4 1.2-1.4 1.9zm-13.6-32.3c-1.3 0-2.2.8-2.6 1.9-.9 3.8-3 13.4-3 14.1s.5 1.2 1.2 1.2c4.9 0 9.4-6.1 9.4-10.5 0-3.1-1.5-6.7-5-6.7zm96.9-20c2.4 0 16.4 3.8 19.1 5 .9.3 1.6 1.4 1.6 2.3 0 .2-.1.6-.1.6-3.7 10.8-10.9 42.2-14.3 68.9 0 1-.8 1.7-1.9 1.7-2 0-14.9-3.4-18-4.8-1.2-.5-2.2-1.3-2.2-3.1 0-3.3.3-7.6.9-12.6v-.5c0-1-.8-1.6-2-1.6l-5.1.3c-1.2 0-1.7 1.2-2.1 2.2-1 6.2-2 12.3-2.7 18.3-.1 1-1 1.7-2.1 1.7-2.1 0-15.8-4-17.9-4.8-1.3-.5-2.2-1.4-2.2-3.1 0-3.5.5-8.1 1.2-13.6 0 0 .1-1.3.1-2.1 0-.9-1.9-9.3-2-12.9 0-1.4.3-2.4 2.6-3 1.2-.3 2.2-1.4 2.4-2.7 3-14.5 6.5-28.9 9-34.6.6-1 1.4-1.6 2.7-1.6 2 0 15.1 3.3 19 4.9.9.3 1.6 1.4 1.6 2.3 0 .2-.1.6-.1.6-1.7 5-4.1 14.1-6.4 25.3l-.1.7c0 .9.6 1.7 1.7 1.7 1.2 0 2.9-.1 4.2-.1s2.1-1 2.3-2.2c2.9-13.5 5.8-26.2 8.3-31.5.4-.9 1.3-1.7 2.5-1.7zm33.5 78.5c-2.6 0-14.3-3.3-17.6-4.7-1.5-.7-2.3-2-2.3-3.1.2-15.8 8.4-58.1 13.3-69 .5-.9 1.4-1.5 2.7-1.5 2.8 0 14.1 3.1 18.6 4.9.9.3 1.9 1.3 1.9 2.2 0 .2-.1.6-.1.6-3.8 10.8-10.8 42.2-14.4 68.9-.2 1.1-1 1.7-2.1 1.7zm59.2-26.2c0 .3.1.7.3 1 3 4 6.4 7.9 9.4 10.9.5.5.7 1.2.7 1.7s-.1 1.2-.8 1.7c-3 2.7-14.9 10.9-18.3 10.9-1 0-2-.1-3.1-1-5.9-5-9.4-18.6-9.9-22-.1-1.2-.3-2.2-.8-2.2s-.7.9-.9 2.2c-1 7-2.2 14.2-3 21.1-.2 1.2-1.2 1.9-2.2 1.9-3.7 0-15.1-3.5-17.9-4.8-1.4-.6-2.1-1.6-2.1-3.1 0-12.8 5-38.9 9.2-56 .2-1 .3-2.2.3-3.4 0-1.6-.3-3.8-.3-4.8 0-1.4.8-2.1 1.9-2.6 3.8-1.4 12.8-4.2 23.3-4.2 14.7 0 31.2 15.4 31.2 26.8 0 11.3-6.9 19.9-15.6 24-.9.5-1.4 1.2-1.4 1.9zm-13.6-32.3c-1.3 0-2.2.8-2.6 1.9-.9 3.8-3 13.4-3 14.1s.5 1.2 1.2 1.2c4.9 0 9.4-6.1 9.4-10.5 0-3.1-1.5-6.7-5-6.7zm54.7 33.9c0 .9.7 1.6 1.7 1.6 5.9-.6 14.9-.8 15.7-.8 1.9 0 3 1 3.5 2.2 1.7 3.7 4.7 15.8 4.7 17.3 0 1-.8 2-1.9 2.1-6.6.6-25.3 2.1-32.1 2.6-2 0-3.1-.6-4-1.3-3.6-3-8.6-10.1-10.9-14.7-.3-.7-.7-2-.7-3.1 0-9.7 5.6-36.9 8.3-47.1.1-.5.1-1 .1-1.7s.1-5.2.1-6.2c0-1.5 1-2.2 2.2-2.4 6.2-1.4 21.9-2.7 33.9-2.7 3.5 0 6.6.1 9 .3 1.2.1 2.6.8 2.7 2.4.6 4.2 1 12.7 1.2 16.9 0 1.2-1 2.2-2.2 2.3-4.2.2-13.6.7-22.9 1-1.3.1-1.7.6-2.2 1.9-.2.7-.5 2.4-.5 3.1 0 1 .8 1.4 1.9 1.4 4.8-.2 9.2-.3 12-.3 1.7 0 2.9 1.2 3.1 2.3.9 4 1.7 11.1 2 15 0 1.2-1 2.2-2.3 2.3-4.2.1-12.7.6-19.2 1.2-1.4.1-2.2.6-2.6 1.7l-.6 2.7z"/><path class="st3" d="M437.5 104.4c-.8 0-3.5-.8-4-1-.4-.2-.7-.6-.7-1.1.1-5.9 3.1-20.8 4.7-24.6.2-.3.5-.5.9-.5.7 0 3.3.7 4.3 1.1.4.1.5.4.5.8v.2c-1.3 3.7-3.9 14.7-4.9 24.4-.1.4-.4.7-.8.7zm13.6-27c-.3 2.1-1.7 5.7-2.9 7.4-.2.3-.5.5-.9.5-.5 0-1.7-.4-2.2-.7-.4-.3-.5-.5-.5-.9v-.2c.7-2 1.6-5.3 1.8-7.5 0-.4.3-.7.7-.7.6 0 2.6.7 3.2 1 .6.3.8.7.8 1.1zm3.8 27c-.9 0-3.4-.8-4-1-.5-.2-.7-.6-.7-1.1.2-5.9 3.3-20.7 5-24.5.2-.4.6-.6 1.1-.6.6 0 4.8.9 6.6 1.6.4.2.5.7.5 1.1v11.4c0 .2 0 .3.1.3s.2-.3.2-.3c1.7-4.3 3.6-9.7 5.6-13.6.2-.3.5-.6 1-.6 1.3 0 5.8 1.2 7.2 1.8.4.1.5.4.5.8v.2c-1.3 4.2-3.7 14.5-4.8 23.8 0 .4-.4.6-.7.6-.7 0-3.3-.7-4.1-1-.5-.2-.7-.6-.7-1.1 0-4 2.5-14.8 2.5-15.3 0-.1 0-.2-.1-.2l-.2.2c-1.6 3.6-3 8.1-4.8 13-.1.3-.5.6-.9.6-.6 0-3-.8-4.1-1.3-.5-.2-.7-.7-.7-1.1-.4-3.2-.3-8-.4-11.4 0-.2-.1-.3-.1-.3l-.2.2c-1.1 4.6-2.1 10.9-2.7 16.9-.5.6-.8.9-1.1.9zm28.9-7.1c0-.5-.7-2.2-.7-2.9 0-.4.2-.7.7-.8.4-.1 1-.2 1-.2.6-.1.7-.3 1-.8 2.2-4.3 5.7-12.5 7.5-14.6.2-.3.5-.4.8-.4.4 0 1.1.3 1.4.3.3 0 .7-.2.7-.5s.2-.5.5-.5c.6 0 3.5 1 4.1 1.3.4.2.7.6.8 1.1.4 2.3.7 9.2.7 15.3 0 3.9-.1 7.4-.3 9.2 0 .3-.3.6-.8.6-.7 0-3.6-.4-4.3-.7-.4-.1-.7-.5-.7-1.1 0-.9.1-3.9.1-4.6 0-.4-.2-.6-.7-.6-1.8 0-4.8.2-5.3.2s-.7.2-.9.7c-.8 1.7-1.5 3.9-2.1 5.3-.2.3-.4.5-.7.5-.7 0-3.1-1.1-3.7-1.6-.3-.2-.5-.4-.5-.8v-.3l1.3-3.7c.1-.1.1-.3.1-.4zm8-5.1c0 .2.2.3.6.3h3.2c.4 0 .7-.2.8-.8v-2.8c0-2.2-.1-4.4-.1-5.7 0-.2-.1-.4-.2-.4s-.2.1-.2.2c-1 2.2-2.4 5.4-4 8.8 0 .2-.1.3-.1.4zm14.2-3.8c0-4.5.2-8.6.5-10.4.1-.4.4-.7.9-.7.9 0 3.5.5 4.3.8.4.2.7.4.7.9v.9c-.2 2.6-.4 5.7-.4 9.8 0 2.3 0 4.8.2 7.7 0 .2 0 .3.1.3s.1-.1.2-.3c2.2-5.8 6.3-17.1 7.5-19.6.2-.4.4-.5.8-.5.7 0 3.8 1.5 4.4 2 .2.2.3.4.3.7 0 .1 0 .3-.1.4-1.8 4.3-7.9 19.9-10.2 23.4-.2.3-.7.5-1.1.5-1.8 0-5.3-1.5-6.8-2.6-.4-.2-.5-.7-.6-1.2-.5-3.3-.7-7.8-.7-12.1zm16.7 8.9c0-.5-.7-2.2-.7-2.9 0-.4.2-.7.7-.8.4-.1 1-.2 1-.2.6-.1.7-.3 1-.8 2.2-4.3 5.7-12.5 7.5-14.6.2-.3.5-.4.8-.4.4 0 1.1.3 1.4.3.3 0 .7-.2.7-.5s.2-.5.5-.5c.6 0 3.5 1 4.1 1.3.4.2.7.6.8 1.1.4 2.3.7 9.2.7 15.3 0 3.9-.1 7.4-.3 9.2 0 .3-.3.6-.8.6-.7 0-3.6-.4-4.3-.7-.4-.1-.7-.5-.7-1.1 0-.9.1-3.9.1-4.6 0-.4-.2-.6-.7-.6-1.8 0-4.8.2-5.3.2s-.7.2-.9.7c-.8 1.7-1.5 3.9-2.1 5.3-.2.3-.4.5-.7.5-.7 0-3.1-1.1-3.7-1.6-.3-.2-.5-.4-.5-.8v-.3l1.3-3.7c.1-.1.1-.3.1-.4zm8-5.1c0 .2.2.3.6.3h3.2c.4 0 .7-.2.8-.8v-2.8c0-2.2-.1-4.4-.1-5.7 0-.2-.1-.4-.2-.4s-.2.1-.2.2c-1 2.2-2.4 5.4-4 8.8 0 .2-.1.3-.1.4zm17.9 12.2c-.8 0-3.5-.8-4-1-.4-.2-.7-.6-.7-1.1.1-5.9 3.1-20.8 4.7-24.6.2-.3.5-.5.9-.5.7 0 3.3.7 4.3 1.1.4.1.5.4.5.8v.2c-1.3 3.7-3.9 14.7-4.9 24.4-.1.4-.5.7-.8.7zm18.9-5.6c.2.9.9 3.6.9 4 0 .4-.3.6-.7.7-2.2.2-9.8.9-10.5.9-.4 0-.8-.1-1.1-.4-.8-.9-2-2.6-2.5-3.6-.2-.3-.2-.7-.2-1v-.6c.6-6.3 2.8-16.9 4.4-21.1.1-.3.5-.5.9-.5.7 0 3.3.7 4.4 1.1.3.1.5.4.5.8v.3c-2.3 8.1-4.2 17.7-4.2 18.8 0 .3.2.5.5.5s4.9-.5 6.4-.5c.5-.1 1 .1 1.2.6zm4.3-1.5c0-.5-.7-2.2-.7-2.9 0-.4.2-.7.7-.8.4-.1 1-.2 1-.2.6-.1.7-.3 1-.8 2.2-4.3 5.7-12.5 7.5-14.6.2-.3.5-.4.8-.4.4 0 1.1.3 1.4.3.3 0 .7-.2.7-.5s.2-.5.5-.5c.6 0 3.5 1 4.1 1.3.4.2.7.6.8 1.1.4 2.3.7 9.2.7 15.3 0 3.9-.1 7.4-.3 9.2 0 .3-.3.6-.8.6-.7 0-3.6-.4-4.3-.7-.4-.1-.7-.5-.7-1.1 0-.9.1-3.9.1-4.6 0-.4-.2-.6-.7-.6-1.8 0-4.8.2-5.3.2s-.7.2-.9.7c-.8 1.7-1.5 3.9-2.1 5.3-.2.3-.4.5-.7.5-.7 0-3.1-1.1-3.7-1.6-.3-.2-.5-.4-.5-.8v-.3l1.3-3.7c.1-.1.1-.3.1-.4zm8-5.1c0 .2.2.3.6.3h3.2c.4 0 .7-.2.8-.8v-2.8c0-2.2-.1-4.4-.1-5.7 0-.2-.1-.4-.2-.4s-.2.1-.2.2c-1 2.2-2.4 5.4-4 8.8 0 .2-.1.3-.1.4zm33.8-7.4c0 2.9-2 4.9-4.6 6.2-.2.1-.3.2-.3.4 0 .1 0 .3.2.4 1.6 1.3 3 3.5 3 5.2 0 3.6-5.6 7.5-11.3 7.5-.8 0-2.3 0-2.9-.2-1.9-.7-3.8-2.8-4.8-4.2-.2-.3-.3-.7-.3-1 0-2.3 2-12.6 3.1-16.7v-.6c0-.6-.3-1.9-.3-2.2 0-.3.2-.6.5-.7 1.8-.9 5.5-1.8 7.9-1.8 5.4-.2 9.8 4.7 9.8 7.7zm-15.1 13.6c0 .5.5.7 1 .7 2.6 0 6.4-1.4 6.4-4 0-2.1-2.5-2.3-3.5-2.3h-2.2c-.4 0-.7.2-.8.7-.4 1.5-.9 4.5-.9 4.9zm1.9-10.2c0 .4.2.5.6.5 2.5 0 6.9-1.5 6.9-4.4 0-2.1-2.3-2.8-4-2.8-.4 0-.9 0-1.3.1s-.7.4-.8.8c-.5 1.6-1.4 5.4-1.4 5.8zm27.7 10.6c.2.9.9 3.6.9 4 0 .4-.3.6-.7.7-2.2.2-9.8.9-10.5.9-.4 0-.8-.1-1.1-.4-.8-.9-2-2.6-2.5-3.6-.2-.3-.2-.7-.2-1v-.6c.6-6.3 2.8-16.9 4.4-21.1.1-.3.5-.5.9-.5.7 0 3.3.7 4.4 1.1.3.1.5.4.5.8v.3c-2.3 8.1-4.2 17.7-4.2 18.8 0 .3.2.5.5.5s4.9-.5 6.4-.5c.6-.1 1 .1 1.2.6zm8.6-.5c0 .3.2.4.5.4s5.7-.4 7.5-.4c.5 0 .9.4 1.1.7.4.9 1.1 3.5 1.1 3.8 0 .3-.3.7-.7.7-2.4.2-11 .9-11.6.9-.4 0-.9-.2-1.1-.4-.8-.7-1.8-2.2-2.4-3.3-.2-.3-.2-.6-.2-1 0-3.5 2.3-14.1 3.3-18 .1-.3.1-.4.1-.8v-2.4c0-.4.2-.8.7-.9 2.1-.4 7.5-.8 11.4-.8 1 0 1.9 0 2.6.1.5 0 .9.3 1 .8.2.9.3 3.2.3 3.7 0 .4-.4.7-.7.7-1.6.1-5.5.3-8.9.4-.4 0-.7.3-.8.7-.4 1.2-1 4.1-1 4.4 0 .3.2.5.6.5.2 0 4.4-.3 5.9-.3.6 0 .9.4 1 .8.2 1 .4 2.6.4 3.5 0 .4-.3.7-.7.7l-7.7.4c-.4 0-.8.3-.9.7-.3 1.4-.8 3.8-.8 4.4z"/><path class="st0" d="M380.3 73.8c-7.2 14-17.2 26.2-28 27.1-6.2.5-14.4-4.9-14.7-9.1-.7-8.1 17.1-13.1 32.8-18.9 2.4-4.6 3.9-8.1 3.9-8.1s-2.6 1.4-6.9 1.7c-11.1 1-23.2-7.9-24.1-18.2-1.8-20.2 22.3-52.6 39.8-54.2C391-6.6 399.4.6 400 7.2c.7 7.5-8 22-11.8 22.3-1.5.1-4.9-2-5.1-4.5-.1-1.6 1.8-5.4 3-7.8 2-3.7 2.6-5.4 4.5-5.5 1.2-.1 2.8 1.4 2.8 1.4s1.3-3.4 1-6.6c-.3-3.2-2.9-5.5-6.1-5.3-16.1 1.4-33.1 31.8-31.6 48.7.4 4.3 3.6 11.5 9.4 10.9 5.2-.5 10.6-6.3 13.3-11.3 3.6-6.4 5.3-10.4 6.6-10.5 1.3-.1 7.6 3.6 7.8 5.4.2 1.8-2.8 5.6-10 22 9.2-6.2 16.1-15 18.7-19.5 1.4-2.4 1.8-3.2 2.3-3.2.8-.1 2.5 2.1 2.6 3.5.1 1.4-.2 2.6-1.9 5.3-3 4.7-13 15-25.2 21.3zm-14 6.1c-11.3 4.7-21.5 9.2-21.2 12.7.2 2 2 3.1 4.3 2.9 6.1-.6 12.2-8.2 16.9-15.6z"/><path class="st0" d="M402 50.9c-.9-9.8 9.5-25.8 16.3-26.4 4.5-.4 11.9 3.1 12.3 7.2.3 3.1-2 9.6-6.6 14.8-3.6 4.2-11.7 5.1-11.7 5.1s-.1 1.1 0 2.2c.3 3.8 3.5 6.2 6.8 5.9 6.4-.6 13.1-9.8 16.5-15.5 1.4-2.4 1.8-3.2 2.3-3.2.8-.1 2.5 2.1 2.6 3.5s-.2 2.6-1.9 5.3c-3.2 5-10.2 14.6-20.1 15.4-6.9.5-15.7-4.6-16.5-14.3zm22.3-17.8c0-.6-.6-.9-1.3-.8-2.2.2-10.3 12.4-10.1 14.8 3.6-.3 11.6-11 11.4-14z"/><path class="st0" d="M434.9 50.6c-.6-6.7 3.7-18.8 7.7-29-3.2-.4-5.5-3-5.6-4.2 0-.6.5-1.4 1.1-1.4.8-.1 2.1 1.1 6.4.9 2.7-6.5 4.9-11.4 4.8-12.2-.1-.8.1-1.4.9-1.5 2.4-.2 6.8 2.9 7.1 6.6.2 1.9-.3 3-1.6 5.7 3.3-.5 6.1-.9 6.8-1 1.5-.1 1.9.1 2 1.1.1.9-2.2 5.8-5.7 6.1-1.4.1-3.6.2-6 .2-1 2.5-2.3 5.7-3.7 9.8-4.7 13.2-4.8 17.7-4.6 19.7.4 4.8 2.5 6.4 2.6 7.9.1 1.1-1.3 2.7-2.3 2.8-3.3.3-9.2-4.1-9.9-11.5zm67.4-12.3c1.4-2.4 1.8-3.2 2.3-3.2.8-.1 2.5 2.1 2.6 3.5s-.2 2.6-1.9 5.3c-3.3 5-9 14.1-15.3 14.7-5.3.5-11.6-3.7-12.2-10.9-.7-7.8 3.7-16.6 6.2-25 1-3.2 1.7-5.2 3-5.3 2.4-.2 8.2 1.5 8.4 3.4.2 2-.8 3.4-2.4 7.4-5.6 14.7-6.5 17.8-6.2 21.8.2 2.4 1.5 3.6 3 3.4 2.9-.2 9.1-9.4 12.5-15.1zm.7-36.8c.3 2.9-2.4 8.4-5.9 8.7-3.4.3-5.8-1.8-6-4.9-.3-3.1 3.1-7.9 5.7-8.1 3-.2 6 1.4 6.2 4.3z"/><path class="st0" d="M526.1 46.8c-.6-7.3 9.5-22.9 9.3-25.5-.1-.8-.9-1.2-1.4-1.1-1.1.1-5 3.9-9 9.8-2.5 3.6-5.1 8.4-7.7 12.7-6.8 11.3-5.7 14.2-7.4 14.3-2.8.2-9.5-1.9-9.9-6.4-.7-8.1 8.4-30.8 8.7-34 0-.7.4-.8 1.5-.9 3.4-.3 8 1.7 8.3 4.3.2 2.6-7.5 18.7-7.1 22.5 0 0 5.3-8.7 10.7-16.1s10.2-12.2 13.4-12.5c4.9-.4 9.9 2.5 10.2 5.6.4 4.3-9.6 21.3-9 28 .3 3 1.5 3.9 1.6 5s-1 2.3-2.1 2.4c-4 .2-9.6-2.4-10.1-8.1zm40.5-7.8c-.5-6.1 3-16.9 6.7-26.4-2.5-.8-4.2-3-4.3-3.9 0-.6.5-1.4 1.1-1.4.7-.1 1.8.9 5 .9 3.2-7.9 6.1-14.2 6-15s.1-1.4.9-1.5c2.4-.2 6.8 2.9 7.1 6.6.2 2.4-.6 3.4-3 8.8 4-.5 7.7-1.1 8.5-1.2 1.5-.1 1.9.1 2 1.1.1.9-2.2 5.8-5.7 6.1-1.6.1-4.4.2-7.3.2l-2.6 7.1c-4.7 13.2-4.8 17.7-4.6 19.7.3 3 1.7 5.4 4.9 5.1 4-.3 9.8-9 13.2-14.7 1.4-2.4 1.8-3.2 2.3-3.2.8-.1 2.5 2.1 2.6 3.5s-.2 2.6-1.9 5.3c-3.2 5-8.8 14.1-15.1 14.6-6.3.2-15.2-4.2-15.8-11.7z"/><path class="st0" d="M622.1 11c.7-.1 4.7.6 5.3 7 .4 4.8-1.8 13.1-5.8 20 6.1-1.4 9.4-6 12.5-11.2 1.4-2.4 1.8-3.2 2.3-3.2.8-.1 2.5 2.1 2.6 3.5s-.3 2.4-2 5.3c-3.1 5.1-9.3 11.2-19 12l-1.2.1c-2.8 2.7-6 4.7-9.5 5-6.4.6-13.1-5.1-13.7-12.4-.8-9.6 9.5-29.8 17.6-30.5 2.8-.3 9.4 2.3 10.9 4.4zM604 39.7c.2 2.7 1.8 3.7 3.2 3.6.9-.1 1.9-.5 2.9-1.4-.2-.4-.3-.6-.4-1-.1-1.7 1.9-4.2 3.4-4.4.3 0 .7 0 1.1.2 3.6-6.3 6.3-15.5 6-19.4-.2-2.1-1.2-3.2-2.8-3.1-5.5.5-14.1 16.9-13.4 25.5z"/><path class="st0" d="M658.1 33.2c-2.3 4.4-6.6 10.8-11.8 11.3-5.3.5-12.6-2.3-13.3-10.3-.8-9.7 7-24.7 8.6-29.5.4-1.4 1.1-2 1.6-2 1.4-.1 8.2 2.5 8.4 4.7s-.2 2.9-3.5 11.4c-3.3 8.7-5 13.4-4.6 18.2.1 1.5 1.1 2.5 2 2.4 1.7-.1 6.4-4.5 11.7-13.7 5.3-9.3 8.1-18.9 8.5-21.1.2-1.2.8-1.9 1.7-2 1.9-.2 7.6 2.8 7.7 4.6.2 1.8-.3 4.9-3.8 14.5-3.4 9.6-3.8 11.1-3.6 12.8.1 1.3 1.1 2.3 2.7 2.1 3.8-.3 9.7-8.4 13.1-14.1 1.4-2.4 1.8-3.2 2.3-3.2.8-.1 2.5 2.1 2.6 3.5s-.2 2.6-1.9 5.3c-3.2 5-9.4 13.7-15.7 14.3-6 .4-12.3-4.5-12.7-9.2z"/><path class="st0" d="M683.3 25.4c-.9-10.2 10.5-25.8 19-26.5 5.6-.5 10.4 3.4 10.7 7 .4 4.2-2.3 12.3-4.7 12.5s-4.7-2-4.8-2.6c0-.3.2-.7.7-1.3 1.5-1.8 4-5.7 3.7-8.3-.1-.8-.7-1.2-1.3-1.1-5.5.5-13.4 14-12.7 22 .4 4.8 4 8 8.1 7.6 5.6-.5 11.5-9.5 14.9-15.2 1.4-2.4 1.8-3.2 2.3-3.2.8-.1 2.5 2.1 2.6 3.5s-.2 2.6-1.9 5.3c-3.2 5-9.2 14.2-17.9 14.9-8.2.7-17.7-4.1-18.7-14.6z"/><path class="st0" d="M739.5 26.6c-.6-6.7 8.3-20.3 8-23.2-.1-1-.7-1.5-1.4-1.4-1.9.2-11.7 13-17.3 22.7s-5.5 14.1-7.4 14.2c-1.9.2-7.1-2.6-7.3-5.2-.2-2.5.2-6.1 4-19.4 4.6-16.1 12.4-34.1 12.2-36-.1-.7 0-1.1.9-1.2s7.4 2.3 7.7 5.2c.3 2.9-2.3 6.7-6.1 16.8-4 10.5-7 20.8-7 20.8s14.6-23.7 22.4-24.4c5.7-.5 9.6 3.7 9.9 7.3.5 5.9-9.3 21.2-8.9 25.8.1 1.7 1.8 2.4 1.9 3.2.1 1.2-1.3 3.1-2.7 3.2-2.9.3-8.3-1.7-8.9-8.4z"/><path class="st1" d="M378.3 71.8c-7.2 14-17.2 26.2-28 27.1-6.2.5-14.4-4.9-14.7-9.1-.7-8.1 17.1-13.1 32.8-18.9 2.4-4.6 3.9-8.1 3.9-8.1s-2.6 1.4-6.9 1.7c-11.1 1-23.2-7.9-24.1-18.2-1.8-20.2 22.3-52.6 39.8-54.2 7.9-.7 16.3 6.5 16.9 13.1.7 7.5-8 22-11.8 22.3-1.5.1-4.9-2-5.1-4.5-.1-1.6 1.8-5.4 3-7.8 2-3.7 2.6-5.4 4.5-5.5 1.2-.1 2.8 1.4 2.8 1.4s1.3-3.4 1-6.6-2.9-5.5-6.1-5.3C370.2.6 353.2 31 354.7 47.9c.4 4.3 3.6 11.5 9.4 10.9 5.2-.5 10.6-6.3 13.3-11.3 3.6-6.4 5.3-10.4 6.6-10.5 1.3-.1 7.6 3.6 7.8 5.4.2 1.8-2.8 5.6-10 22 9.2-6.2 16.1-15 18.7-19.5 1.4-2.4 1.8-3.2 2.3-3.2.8-.1 2.5 2.1 2.6 3.5.1 1.4-.2 2.6-1.9 5.3-3 4.7-13 15-25.2 21.3zm-14 6.1c-11.3 4.7-21.5 9.2-21.2 12.7.2 2 2 3.1 4.3 2.8 6.1-.5 12.2-8.1 16.9-15.5z"/><path class="st1" d="M400 48.9c-.9-9.8 9.5-25.8 16.3-26.4 4.5-.4 11.9 3.1 12.3 7.2.3 3.1-2 9.6-6.6 14.8-3.6 4.2-11.7 5.1-11.7 5.1s-.1 1.1 0 2.2c.3 3.8 3.5 6.1 6.8 5.9 6.4-.6 13.1-9.8 16.5-15.5 1.4-2.4 1.8-3.2 2.3-3.2.8-.1 2.5 2.1 2.6 3.5s-.2 2.6-1.9 5.3c-3.2 5-10.2 14.6-20.1 15.4-6.9.5-15.7-4.6-16.5-14.3zm22.3-17.8c0-.6-.6-.9-1.3-.8-2.2.2-10.3 12.4-10.1 14.8 3.6-.3 11.6-11 11.4-14z"/><path class="st1" d="M432.9 48.6c-.6-6.7 3.7-18.8 7.7-29-3.2-.4-5.5-3-5.6-4.2 0-.6.5-1.4 1.1-1.4.8-.1 2.1 1.1 6.4.9 2.7-6.5 4.9-11.4 4.8-12.2s.1-1.4.9-1.5c2.4-.2 6.8 2.9 7.1 6.6.2 1.9-.3 3-1.6 5.7 3.3-.5 6.1-.9 6.8-1 1.5-.1 1.9.1 2 1.1.1.9-2.2 5.8-5.7 6.1-1.4.1-3.6.2-6 .2-1 2.5-2.3 5.7-3.7 9.8-4.7 13.2-4.8 17.7-4.6 19.7.4 4.8 2.5 6.4 2.6 7.9.1 1.1-1.3 2.7-2.3 2.8-3.3.3-9.2-4.1-9.9-11.5zm67.4-12.3c1.4-2.4 1.8-3.2 2.3-3.2.8-.1 2.5 2.1 2.6 3.5s-.2 2.6-1.9 5.3c-3.2 5-8.9 14.2-15.2 14.7-5.3.5-11.6-3.7-12.2-10.9-.7-7.8 3.7-16.6 6.2-25 1-3.2 1.7-5.2 3-5.3 2.4-.2 8.2 1.5 8.4 3.4.2 2-.8 3.4-2.4 7.4-5.6 14.7-6.5 17.8-6.2 21.8.2 2.4 1.5 3.6 3 3.4 2.8-.2 9-9.4 12.4-15.1zM501-.5c.3 2.9-2.4 8.4-5.9 8.7-3.4.3-5.8-1.8-6-4.9-.3-3.1 3.1-7.9 5.7-8.1 3-.2 6 1.4 6.2 4.3z"/><path class="st1" d="M524.1 44.8c-.6-7.3 9.5-22.9 9.3-25.5-.1-.8-.9-1.2-1.4-1.1-1.1.1-5 3.9-9 9.8-2.5 3.6-5.1 8.4-7.7 12.7-6.7 11.3-5.6 14.2-7.3 14.3-2.8.2-9.5-1.9-9.9-6.4-.7-8.1 8.4-30.8 8.7-34 0-.7.4-.8 1.5-.9 3.4-.3 8 1.7 8.3 4.3.2 2.6-7.5 18.7-7.1 22.5 0 0 5.3-8.7 10.7-16.1s10.2-12.2 13.4-12.5c4.9-.4 9.9 2.5 10.2 5.6.4 4.3-9.6 21.3-9 28 .3 3 1.5 3.9 1.6 5s-1 2.3-2.1 2.4c-4.1.2-9.7-2.4-10.2-8.1zm40.5-7.8c-.5-6.1 3-16.9 6.7-26.4-2.5-.8-4.2-3-4.3-3.9 0-.6.5-1.4 1.1-1.4.7-.1 1.8.9 5 .9 3.2-7.9 6.1-14.2 6-15s.1-1.4.9-1.5c2.4-.2 6.8 2.9 7.1 6.6.2 2.4-.6 3.4-3 8.8 4-.5 7.7-1.1 8.5-1.2 1.5-.1 1.9.1 2 1.1.1.9-2.2 5.8-5.7 6.1-1.6.1-4.4.2-7.3.2l-2.6 7.1c-4.7 13.2-4.8 17.7-4.6 19.7.3 3 1.7 5.4 4.9 5.1 4-.3 9.8-9 13.2-14.7 1.4-2.4 1.8-3.2 2.3-3.2.8-.1 2.5 2.1 2.6 3.5s-.2 2.6-1.9 5.3c-3.2 5-8.8 14.1-15.1 14.6-6.3.2-15.2-4.2-15.8-11.7z"/><path class="st1" d="M620.1 9c.7-.1 4.7.6 5.3 7 .4 4.8-1.8 13.1-5.8 20 6.1-1.4 9.4-6 12.5-11.2 1.4-2.4 1.8-3.2 2.3-3.2.8-.1 2.5 2.1 2.6 3.5s-.3 2.4-2 5.3c-3.1 5.1-9.3 11.2-19 12l-1.2.1c-2.8 2.7-6 4.7-9.5 5-6.4.6-13.1-5.1-13.7-12.4-.8-9.6 9.5-29.8 17.6-30.5 2.8-.3 9.4 2.3 10.9 4.4zM602 37.7c.2 2.7 1.8 3.7 3.2 3.6.9-.1 1.9-.5 2.9-1.4-.2-.4-.3-.6-.4-1-.1-1.7 1.9-4.2 3.4-4.4.3 0 .7 0 1.1.2 3.6-6.3 6.3-15.5 6-19.4-.2-2.1-1.2-3.2-2.8-3.1-5.5.5-14.1 16.9-13.4 25.5z"/><path class="st1" d="M656.1 31.2c-2.3 4.4-6.6 10.8-11.8 11.3-5.3.5-12.6-2.3-13.3-10.3-.8-9.7 7-24.7 8.6-29.5.5-1.4 1.1-2 1.6-2 1.4-.1 8.2 2.5 8.4 4.7s-.2 2.9-3.5 11.4c-3.3 8.7-5 13.4-4.6 18.2.1 1.5 1.1 2.5 2 2.4 1.7-.1 6.4-4.5 11.7-13.7 5.3-9.3 8.1-18.9 8.5-21.1.2-1.2.8-1.9 1.7-2 1.9-.2 7.6 2.9 7.7 4.6.2 1.8-.3 4.9-3.8 14.5-3.4 9.6-3.8 11.1-3.6 12.8.1 1.3 1.1 2.3 2.7 2.1 3.8-.3 9.7-8.4 13.1-14.1 1.4-2.4 1.8-3.2 2.3-3.2.8-.1 2.5 2.1 2.6 3.5s-.2 2.6-1.9 5.3c-3.2 5-9.4 13.7-15.7 14.3-6 .4-12.3-4.5-12.7-9.2z"/><path class="st1" d="M681.3 23.4c-.9-10.2 10.5-25.8 19-26.5 5.6-.5 10.4 3.4 10.7 7 .4 4.2-2.3 12.3-4.7 12.5s-4.7-2-4.8-2.6c0-.3.2-.7.7-1.3 1.5-1.8 4-5.7 3.7-8.3-.1-.8-.7-1.2-1.3-1.1-5.5.5-13.4 14-12.7 22 .4 4.8 4 8 8.1 7.6 5.6-.5 11.5-9.5 14.9-15.2 1.4-2.4 1.8-3.2 2.3-3.2.8-.1 2.5 2.1 2.6 3.5s-.2 2.6-1.9 5.3c-3.2 5-9.2 14.2-17.9 14.9-8.2.7-17.7-4.1-18.7-14.6z"/><path class="st1" d="M737.5 24.6c-.6-6.7 8.3-20.3 8-23.2-.1-1-.7-1.5-1.4-1.4-1.9.2-11.7 13-17.3 22.7s-5.5 14.1-7.4 14.2c-1.9.2-7.1-2.6-7.3-5.2s.2-6.1 4-19.4c4.6-16.1 12.4-34.1 12.2-36-.1-.7 0-1.1.9-1.2s7.4 2.3 7.7 5.2c.3 2.9-2.3 6.7-6.1 16.8-4 10.5-7 20.8-7 20.8s14.6-23.7 22.4-24.4c5.7-.5 9.6 3.7 9.9 7.3.5 5.9-9.3 21.2-8.9 25.8.1 1.7 1.8 2.4 1.9 3.3.1 1.2-1.3 3.1-2.7 3.2-2.9.2-8.3-1.8-8.9-8.5z"/><g><path class="st4" d="M377.3 70.8c-7.2 14-17.2 26.2-28 27.1-6.2.5-14.4-4.9-14.7-9.1-.7-8.1 17.1-13.1 32.8-18.9 2.4-4.6 3.9-8.1 3.9-8.1s-2.6 1.4-6.9 1.7c-11.1 1-23.2-7.9-24.1-18.2-1.8-20.2 22.3-52.6 39.8-54.2 7.9-.7 16.3 6.5 16.9 13.1.7 7.5-7.9 22-11.8 22.3-1.5.1-4.9-2-5.1-4.5-.1-1.6 1.8-5.4 3-7.8 2-3.7 2.6-5.4 4.5-5.5 1.2-.1 2.8 1.4 2.8 1.4s1.3-3.4 1-6.6-2.9-5.5-6.1-5.3C369.2-.4 352.2 30 353.7 46.9c.4 4.3 3.6 11.5 9.4 10.9 5.2-.5 10.5-6.3 13.3-11.3 3.6-6.4 5.3-10.4 6.6-10.5 1.3-.1 7.6 3.6 7.8 5.4.2 1.8-2.8 5.6-10 22 9.2-6.2 16.1-15 18.7-19.5 1.4-2.4 1.8-3.2 2.3-3.2.8-.1 2.5 2.1 2.6 3.5.1 1.4-.2 2.6-1.9 5.3-3 4.7-13 15-25.2 21.3zm-14 6.1c-11.3 4.7-21.5 9.2-21.2 12.7.2 2 2 3.1 4.3 2.8 6.1-.5 12.2-8.1 16.9-15.5z"/><path class="st4" d="M399 47.9c-.9-9.8 9.5-25.8 16.3-26.4 4.5-.4 11.9 3.1 12.3 7.2.3 3.1-2 9.6-6.6 14.8-3.6 4.2-11.7 5.1-11.7 5.1s-.1 1.1 0 2.2c.3 3.8 3.5 6.2 6.8 5.9 6.4-.6 13.1-9.8 16.5-15.5 1.4-2.4 1.8-3.2 2.3-3.2.8-.1 2.5 2.1 2.6 3.5s-.2 2.6-1.9 5.3c-3.2 5-10.2 14.6-20.1 15.4-6.9.5-15.7-4.6-16.5-14.3zm22.3-17.8c0-.6-.6-.9-1.3-.8-2.2.2-10.3 12.4-10.1 14.8 3.6-.3 11.6-11 11.4-14z"/><path class="st4" d="M431.9 47.6c-.6-6.7 3.7-18.8 7.7-29-3.2-.4-5.5-3-5.6-4.2 0-.6.5-1.4 1.1-1.4.8-.1 2.1 1.1 6.4.9 2.7-6.5 4.9-11.4 4.8-12.2s.1-1.4.9-1.5c2.4-.2 6.8 2.9 7.1 6.6.2 1.9-.3 3-1.6 5.7 3.3-.5 6.1-.9 6.8-1 1.5-.1 1.9.1 2 1.1.1.9-2.2 5.8-5.7 6.1-1.4.1-3.6.2-6 .2-1 2.5-2.3 5.7-3.7 9.8-4.7 13.2-4.8 17.7-4.6 19.7.4 4.8 2.5 6.4 2.6 7.9.1 1.1-1.3 2.7-2.3 2.8-3.3.3-9.2-4.1-9.9-11.5zm67.4-12.3c1.4-2.4 1.8-3.2 2.3-3.2.8-.1 2.5 2.1 2.6 3.5s-.2 2.6-1.9 5.3c-3.2 5-8.9 14.2-15.2 14.7-5.3.5-11.6-3.7-12.2-10.9-.7-7.8 3.7-16.6 6.2-25 1-3.2 1.7-5.2 3-5.3 2.4-.2 8.2 1.5 8.4 3.4.2 2-.8 3.4-2.4 7.4-5.6 14.7-6.5 17.8-6.2 21.8.2 2.4 1.5 3.6 3 3.4 2.8-.2 9-9.4 12.4-15.1zm.7-36.8c.3 2.9-2.4 8.4-5.9 8.7-3.4.3-5.8-1.8-6-4.9-.3-3.1 3.1-7.9 5.7-8.1 3-.2 6 1.4 6.2 4.3z"/><path class="st4" d="M523.1 43.8c-.6-7.3 9.5-22.9 9.3-25.5-.1-.8-.9-1.2-1.4-1.1-1.1.1-5 3.9-9 9.8-2.5 3.6-5.1 8.4-7.7 12.7-6.7 11.3-5.6 14.2-7.3 14.3-2.8.2-9.5-1.9-9.9-6.4-.7-8.1 8.4-30.8 8.7-34 0-.7.4-.8 1.5-.9 3.4-.3 8 1.7 8.3 4.3.2 2.6-7.5 18.7-7.1 22.5 0 0 5.3-8.7 10.7-16.1s10.2-12.2 13.4-12.5c4.9-.4 9.9 2.5 10.2 5.6.4 4.3-9.6 21.3-9 28 .3 3 1.5 3.9 1.6 5s-1 2.3-2.1 2.4c-4.1.2-9.7-2.4-10.2-8.1zm40.5-7.8c-.5-6.1 3-16.9 6.7-26.4-2.5-.8-4.2-3-4.3-3.9 0-.6.5-1.4 1.1-1.4.7-.1 1.8.9 5 .9 3.2-7.9 6.1-14.2 6-15s.1-1.4.9-1.5c2.4-.2 6.8 2.9 7.1 6.6.2 2.4-.6 3.4-3 8.8 4-.5 7.7-1.1 8.5-1.2 1.5-.1 1.9.1 2 1.1.1.9-2.2 5.8-5.7 6.1-1.6.1-4.4.2-7.3.2l-2.6 7.1c-4.7 13.2-4.8 17.7-4.6 19.7.3 3 1.7 5.4 4.9 5.1 4-.3 9.8-9 13.2-14.7 1.4-2.4 1.8-3.2 2.3-3.2.8-.1 2.5 2.1 2.6 3.5s-.2 2.6-1.9 5.3c-3.2 5-8.8 14.1-15.1 14.6-6.3.2-15.2-4.2-15.8-11.7z"/><path class="st4" d="M619.1 8c.7-.1 4.7.6 5.3 7 .4 4.8-1.8 13.1-5.8 20 6.1-1.4 9.4-6 12.5-11.2 1.4-2.4 1.8-3.2 2.3-3.2.8-.1 2.5 2.1 2.6 3.5s-.3 2.4-2 5.3c-3.1 5.1-9.3 11.2-19 12l-1.2.1c-2.8 2.7-6 4.7-9.5 5-6.4.6-13.1-5.1-13.7-12.4-.8-9.6 9.5-29.8 17.6-30.5 2.8-.3 9.4 2.3 10.9 4.4zM601 36.7c.2 2.7 1.8 3.7 3.2 3.6.9-.1 1.9-.5 2.9-1.4-.2-.4-.3-.6-.4-1-.1-1.7 1.9-4.2 3.4-4.4.3 0 .7 0 1.1.2 3.6-6.3 6.3-15.5 6-19.4-.2-2.1-1.2-3.2-2.8-3.1-5.5.5-14.1 16.9-13.4 25.5z"/><path class="st4" d="M655.1 30.2c-2.3 4.4-6.6 10.8-11.8 11.3-5.3.5-12.6-2.3-13.3-10.3-.8-9.7 7-24.7 8.6-29.5.4-1.4 1.1-2 1.6-2 1.4-.1 8.2 2.5 8.4 4.7s-.2 2.9-3.5 11.4c-3.3 8.7-5 13.4-4.6 18.2.1 1.5 1.1 2.5 2 2.4 1.7-.1 6.4-4.5 11.7-13.7 5.3-9.3 8.1-18.9 8.5-21.1.2-1.2.8-1.9 1.7-2 1.9-.2 7.6 2.9 7.7 4.6.2 1.8-.3 4.9-3.8 14.5-3.4 9.6-3.8 11.1-3.6 12.8.1 1.3 1.1 2.3 2.7 2.1 3.8-.3 9.7-8.4 13.1-14.1 1.4-2.4 1.8-3.2 2.3-3.2.8-.1 2.5 2.1 2.6 3.5s-.2 2.6-1.9 5.3c-3.2 5-9.4 13.7-15.7 14.3-6 .4-12.3-4.5-12.7-9.2z"/><path class="st4" d="M680.3 22.4c-.9-10.2 10.5-25.8 19-26.5 5.6-.5 10.4 3.4 10.7 7 .4 4.2-2.3 12.3-4.7 12.5s-4.7-2-4.8-2.6c0-.3.2-.7.7-1.3 1.5-1.8 4-5.7 3.7-8.3-.1-.8-.7-1.2-1.3-1.1-5.5.5-13.4 14-12.7 22 .4 4.8 4 8 8.1 7.6 5.6-.5 11.5-9.5 14.9-15.2 1.4-2.4 1.8-3.2 2.3-3.2.8-.1 2.5 2.1 2.6 3.5s-.2 2.6-1.9 5.3c-3.2 5-9.2 14.2-17.9 14.9-8.2.7-17.7-4.1-18.7-14.6z"/><path class="st4" d="M736.5 23.6c-.6-6.7 8.3-20.3 8-23.2-.1-1-.7-1.5-1.4-1.4-1.9.2-11.7 13-17.3 22.7s-5.5 14.1-7.4 14.2c-1.9.2-7.1-2.6-7.3-5.2-.2-2.5.2-6.1 4-19.4 4.6-16.1 12.4-34.1 12.2-36-.1-.7 0-1.1.9-1.2s7.4 2.3 7.7 5.2c.3 2.9-2.3 6.7-6.1 16.8-4 10.5-7 20.8-7 20.8s14.6-23.7 22.4-24.4c5.7-.5 9.6 3.7 9.9 7.3.5 5.9-9.3 21.2-8.9 25.8.1 1.7 1.8 2.4 1.9 3.3.1 1.2-1.3 3.1-2.7 3.2-2.9.2-8.3-1.8-8.9-8.5z"/></g></svg>