<?xml version="1.0" encoding="utf-8"?>
<!-- Generator: Adobe Illustrator 16.0.0, SVG Export Plug-In . SVG Version: 6.00 Build 0)  -->
<!DOCTYPE svg PUBLIC "-//W3C//DTD SVG 1.1//EN" "http://www.w3.org/Graphics/SVG/1.1/DTD/svg11.dtd">
<svg version="1.1" xmlns="http://www.w3.org/2000/svg" xmlns:xlink="http://www.w3.org/1999/xlink" x="0px" y="0px" width="640px"
	 height="400px" viewBox="0 0 640 400" enable-background="new 0 0 640 400" xml:space="preserve">
<g id="Layer_2">
	<rect fill="#A1E5CF" width="640" height="400"/>
	<path opacity="0.9" fill="#FFFBCC" d="M570.52,329.25c0,18.639-15.118,33.75-33.771,33.75l-434.499-18.969
		c-18.649,0-33.769-15.111-33.769-33.75L49.5,90.72c0-18.64,15.119-33.749,33.769-33.749L555.729,38
		c18.652,0,33.771,15.11,33.771,33.75L570.52,329.25z"/>
	<g>
		<path fill="#A1E5CF" d="M551.47,49.687c14.843,0.062,26.913,11.992,27.029,26.69l-18.548,247.585l0.049,0.224v0.226
			c0,14.794-12.176,26.837-27.086,26.903l-426.349-18.401L106.402,333h-0.13C91.306,333,79,320.751,79,305.92v-0.265l0.041-0.264
			L60.469,94.747C60.606,80.025,72.761,68,87.643,68h0.12l0.12,0.085L551.47,49.687 M551.355,43.687L87.643,62.18
			C69.337,62.18,54.5,76.91,54.5,95.088L73.129,305.92c0,18.173,14.837,32.897,33.144,32.897l426.454,18.498
			c18.302,0,33.144-14.729,33.144-32.903L584.5,76.591C584.5,58.416,569.658,43.687,551.355,43.687L551.355,43.687z"/>
	</g>
</g>
<g id="Layer_1">
	<g>
		<g>
			<path fill="#A1E5CF" d="M162.226,250.987c-3.402,0.357-6.925,0.776-10.565,1.253c-0.716,1.732-1.403,3.716-2.06,5.954
				c-0.657,2.239-1.403,4.611-2.238,7.118c1.253-0.118,2.507-0.224,3.761-0.312c1.253-0.09,2.507-0.135,3.76-0.135h0.806
				c1.611,0,2.939,0.389,3.984,1.164c1.043,0.776,1.88,1.731,2.507,2.865c0.627,1.135,1.119,2.358,1.478,3.671
				c0.358,1.313,0.656,2.507,0.895,3.581l-0.089-0.089c0.179,0.896,0.269,1.553,0.269,1.97c0,1.374-0.374,2.343-1.119,2.91
				c-0.747,0.567-1.985,1-3.716,1.298c-3.165,0.598-6.343,1.195-9.536,1.791c-3.194,0.598-6.373,1.253-9.536,1.97
				c-1.553,4.776-2.955,9.401-4.208,13.878c-1.253,4.478-2.388,8.506-3.402,12.088v-0.18c-0.239,1.374-0.806,2.359-1.701,2.955
				s-1.97,0.896-3.223,0.896c-1.732,0-3.568-0.389-5.507-1.164c-1.94-0.775-3.626-1.491-5.059-2.148
				c-1.433-0.896-2.402-1.775-2.91-2.642c-0.506-0.864-0.761-1.925-0.761-3.179c0-0.896,0.089-1.88,0.269-2.955
				c0.239-1.67,0.761-4.073,1.567-7.207c0.806-3.134,1.746-6.671,2.82-10.61c1.074-3.939,2.193-8.162,3.357-12.67
				c1.164-4.506,2.252-8.938,3.268-13.296c1.015-4.356,1.895-8.521,2.642-12.49c0.746-3.97,1.208-7.416,1.388-10.342
				c2.566-0.717,5.386-1.357,8.461-1.925c3.074-0.566,6.237-1.06,9.491-1.478c3.253-0.417,6.536-0.775,9.849-1.074
				c3.313-0.298,6.521-0.507,9.625-0.627h0.626c1.552,0,2.91,0.447,4.074,1.343c1.164,0.896,2.149,2.015,2.955,3.357
				c0.806,1.344,1.417,2.791,1.835,4.343c0.417,1.553,0.627,2.985,0.627,4.298c0,1.611-0.344,2.717-1.03,3.312
				c-0.687,0.598-1.956,1.017-3.805,1.254C168.911,250.212,165.628,250.629,162.226,250.987z"/>
			<path fill="#A1E5CF" d="M228.483,242.615c0.896,1.403,1.581,2.91,2.06,4.521c0.477,1.612,0.806,3.313,0.985,5.104
				c0.179,1.791,0.269,3.702,0.269,5.73c0,3.344-0.299,7.104-0.896,11.282c-0.597,4.179-1.508,8.416-2.731,12.714
				c-1.224,4.298-2.775,8.492-4.656,12.58c-1.88,4.089-4.089,7.716-6.626,10.879c-2.538,3.164-5.417,5.716-8.64,7.655
				s-6.805,2.91-10.745,2.91c-1.313,0-2.627-0.09-3.939-0.269h0.089c-7.939-0.776-13.923-3.327-17.952-7.655
				s-6.043-10.849-6.043-19.564c0-4.477,0.537-9.133,1.611-13.968c1.075-4.835,2.642-9.58,4.701-14.236
				c2.06-4.656,4.581-9.043,7.566-13.162c2.984-4.118,6.357-7.669,10.118-10.654c1.791-1.312,3.85-2.357,6.178-3.134
				c2.328-0.775,4.566-1.164,6.715-1.164c1.612,0,3.297,0.179,5.059,0.537c1.76,0.357,3.461,0.851,5.104,1.478
				c1.641,0.626,3.178,1.329,4.611,2.104c1.433,0.776,2.626,1.553,3.582,2.328C226.393,239.885,227.587,241.214,228.483,242.615z
				 M209.77,249.733c-0.956,0-2.09,0.717-3.402,2.149c-1.313,1.433-2.672,3.268-4.074,5.506c-1.403,2.238-2.762,4.731-4.074,7.477
				c-1.313,2.746-2.448,5.403-3.402,7.969c-1.195,3.224-2.149,6.581-2.865,10.073c-0.716,3.491-1.074,6.67-1.074,9.535
				c0,2.091,0.208,3.836,0.626,5.238c0.417,1.403,1.133,2.104,2.149,2.104c0.954,0,2.044-0.627,3.268-1.881
				c1.223-1.253,2.492-2.939,3.806-5.059c1.312-2.118,2.596-4.611,3.85-7.477c1.253-2.865,2.373-5.909,3.357-9.133
				s1.775-6.565,2.373-10.028c0.596-3.461,0.895-6.834,0.895-10.117c0-1.791-0.105-3.253-0.313-4.388
				c-0.209-1.133-0.552-1.791-1.029-1.97H209.77z"/>
			<path fill="#A1E5CF" d="M267.431,308.56c-1.493-1.433-3.03-3-4.611-4.701c-1.582-1.701-3.149-3.477-4.701-5.327
				c-1.553-1.85-3.015-3.729-4.387-5.641c-1.016,3.402-2,6.686-2.955,9.849c-0.956,3.165-1.88,6.357-2.776,9.581
				c-0.358,1.194-0.851,2.088-1.477,2.686c-0.627,0.596-1.538,0.896-2.731,0.896c-0.716,0-1.463-0.12-2.238-0.358
				c-1.433-0.418-2.807-0.806-4.119-1.164c-1.313-0.357-2.478-0.819-3.492-1.388c-1.016-0.566-1.82-1.327-2.417-2.283
				c-0.596-0.954-0.896-2.238-0.896-3.85c0-0.836,0.09-1.76,0.269-2.776c0.418-1.909,1.045-4.759,1.88-8.551
				c0.835-3.789,1.775-7.969,2.82-12.535c1.044-4.566,2.178-9.296,3.402-14.191c1.223-4.894,2.477-9.401,3.761-13.52
				c1.283-4.119,2.581-7.611,3.895-10.477c1.312-2.865,2.566-4.566,3.76-5.104c2.208-1.014,4.506-2.015,6.895-2.999
				c2.387-0.985,4.79-1.85,7.208-2.597c2.418-0.746,4.805-1.357,7.163-1.836c2.357-0.477,4.611-0.716,6.76-0.716
				c2.507,0,4.909,0.389,7.208,1.164c2.297,0.776,4.283,2.119,5.955,4.029c1.014,1.194,2.044,2.492,3.089,3.895
				c1.043,1.403,1.999,2.94,2.865,4.611c0.864,1.672,1.567,3.492,2.104,5.462s0.806,4.089,0.806,6.356
				c0,1.314-0.134,2.493-0.403,3.537c-0.269,1.045-0.642,2.074-1.119,3.089v-0.09c-2.09,4.119-5.417,7.925-9.983,11.416
				c-4.566,3.492-10.014,6.791-16.34,9.895c1.193,1.611,2.492,3.299,3.895,5.059c1.402,1.762,2.834,3.507,4.298,5.238
				c1.462,1.731,2.91,3.388,4.343,4.969c1.433,1.582,2.775,3,4.029,4.253v-0.089c1.312,1.253,1.97,2.537,1.97,3.85
				c0,0.896-0.313,1.717-0.94,2.462c-0.626,0.747-1.374,1.374-2.238,1.881c-0.866,0.508-1.732,0.926-2.597,1.253
				c-0.866,0.329-1.538,0.522-2.015,0.582l0.09-0.089c-0.716,0.179-1.403,0.343-2.06,0.492c-0.658,0.148-1.374,0.224-2.149,0.224
				c-1.134,0-2.359-0.21-3.671-0.627c-1.313-0.417-2.686-1.133-4.119-2.148C270.265,311.216,268.922,309.992,267.431,308.56z
				 M272.624,251.748c-1.732,0.329-3.552,0.911-5.462,1.746c-0.836,2.09-1.656,4.313-2.462,6.67
				c-0.806,2.359-1.656,4.851-2.552,7.477v-0.089c-0.12,0.357-0.239,0.716-0.358,1.074c-0.121,0.358-0.239,0.747-0.358,1.164
				c3.044-1.312,5.805-2.776,8.282-4.388c2.476-1.611,4.566-3.224,6.268-4.835s3.014-3.134,3.939-4.566
				c0.925-1.433,1.388-2.597,1.388-3.492v-0.089c-0.299-0.775-1.643-1.164-4.029-1.164
				C275.906,251.256,274.354,251.421,272.624,251.748z"/>
			<path fill="#A1E5CF" d="M387.051,259.403c-1.791,5.552-3.598,11.342-5.417,17.37c-1.822,6.03-3.612,12.118-5.373,18.266
				c-1.761,6.148-3.357,11.939-4.79,17.37l0.09-0.269c-0.12,1.493-0.537,2.521-1.254,3.089c-0.716,0.567-1.701,0.851-2.954,0.851
				c-0.837,0-1.746-0.134-2.731-0.402c-0.984-0.269-2.045-0.553-3.179-0.851c-1.253-0.598-2.417-1.119-3.491-1.567
				c-1.075-0.447-2.03-0.939-2.865-1.478c-0.837-0.537-1.493-1.208-1.97-2.014c-0.479-0.807-0.717-1.865-0.717-3.179
				c0-0.775,0.148-1.701,0.448-2.776v0.09c0.416-2.089,0.939-4.491,1.566-7.208c0.627-2.715,1.328-5.686,2.104-8.908
				c-1.911,0.299-3.776,0.582-5.597,0.851c-1.821,0.269-3.626,0.553-5.417,0.851c-1.074,3.462-2.029,6.746-2.865,9.849
				c-0.836,3.104-1.582,6.06-2.238,8.864c-0.358,1.313-0.657,2.462-0.896,3.447c-0.239,0.984-0.522,1.806-0.851,2.462
				s-0.761,1.148-1.298,1.478c-0.537,0.327-1.254,0.492-2.149,0.492c-0.357,0-0.761-0.03-1.208-0.089
				c-0.448-0.061-0.972-0.18-1.567-0.358c-1.553-0.657-3.06-1.239-4.521-1.746c-1.464-0.507-2.775-1.074-3.939-1.701
				s-2.089-1.372-2.775-2.238c-0.686-0.864-1.03-1.984-1.03-3.357c0-0.954,0.21-2.029,0.627-3.224
				c1.553-4.656,3.089-9.863,4.611-15.624c1.521-5.76,3.028-11.64,4.521-17.639c1.491-5.999,2.924-11.894,4.298-17.684
				c1.372-5.789,2.686-11.072,3.939-15.849c0.537-1.433,1.148-2.446,1.836-3.044c0.686-0.596,1.625-0.896,2.82-0.896
				c0.537,0,1.388,0.179,2.552,0.537s2.402,0.806,3.716,1.343c1.312,0.538,2.61,1.135,3.895,1.791
				c1.283,0.657,2.373,1.313,3.269,1.97l-0.09-0.089c1.254,0.836,2.148,1.627,2.686,2.372c0.538,0.747,0.807,1.627,0.807,2.642
				c0,0.896-0.18,1.88-0.537,2.955c-1.017,2.925-2.18,6.372-3.492,10.341c-1.313,3.971-2.687,8.282-4.119,12.938
				c1.433-0.119,2.865-0.238,4.298-0.358c1.433-0.119,2.806-0.237,4.119-0.357h-0.09l1.701-0.09
				c1.73-5.909,3.416-11.743,5.059-17.505c1.642-5.76,3.237-10.879,4.791-15.355c0.477-1.552,1.104-2.655,1.88-3.312
				c0.775-0.656,1.76-0.985,2.955-0.985c0.954,0,2.028,0.21,3.223,0.627h-0.089c1.253,0.358,2.655,0.866,4.208,1.522
				c1.552,0.657,2.984,1.433,4.298,2.327c1.312,0.896,2.417,1.852,3.312,2.865c0.896,1.016,1.343,2.001,1.343,2.955
				c0,0.837-0.179,1.791-0.537,2.865C390.482,248.928,388.841,253.853,387.051,259.403z"/>
			<path fill="#A1E5CF" d="M415.433,238.184c1.193,0.836,2.044,1.627,2.552,2.372c0.507,0.747,0.762,1.627,0.762,2.642
				c0,0.896-0.18,1.911-0.537,3.044c-0.896,2.567-1.881,5.567-2.955,8.999c-1.074,3.433-2.193,7.104-3.357,11.013
				c-1.164,3.91-2.328,7.955-3.492,12.133c-1.164,4.179-2.299,8.282-3.402,12.311c-1.105,4.029-2.149,7.91-3.134,11.641
				c-0.985,3.73-1.866,7.089-2.642,10.072c-0.418,1.313-0.881,2.253-1.388,2.82c-0.508,0.567-1.358,0.851-2.552,0.851
				c-0.3,0-0.657-0.03-1.074-0.089c-0.419-0.061-0.896-0.18-1.433-0.358c-1.433-0.479-2.836-0.955-4.208-1.433
				c-1.374-0.478-2.628-1.059-3.761-1.746c-1.134-0.686-2.044-1.507-2.731-2.462c-0.686-0.954-1.029-2.118-1.029-3.492
				c0-0.596,0.03-1.089,0.09-1.478c0.06-0.388,0.149-0.851,0.269-1.388c0.357-2.328,0.896-5.238,1.611-8.729
				c0.717-3.492,1.553-7.267,2.507-11.327c0.954-4.059,1.984-8.282,3.089-12.669c1.104-4.388,2.194-8.654,3.269-12.804
				c1.074-4.148,2.118-8.043,3.134-11.685c1.015-3.641,1.939-6.745,2.775-9.312c0.597-1.551,1.254-2.641,1.97-3.268
				c0.717-0.627,1.671-0.94,2.865-0.94c0.775,0,1.716,0.165,2.82,0.492c1.104,0.329,2.269,0.747,3.492,1.254
				c1.223,0.508,2.402,1.074,3.537,1.701c1.133,0.627,2.148,1.269,3.044,1.925L415.433,238.184z"/>
			<path fill="#A1E5CF" d="M448.023,308.56c-1.493-1.433-3.03-3-4.611-4.701c-1.583-1.701-3.149-3.477-4.701-5.327
				c-1.553-1.85-3.015-3.729-4.387-5.641c-1.016,3.402-2.001,6.686-2.955,9.849c-0.956,3.165-1.88,6.357-2.775,9.581
				c-0.358,1.194-0.851,2.088-1.478,2.686c-0.627,0.596-1.538,0.896-2.731,0.896c-0.716,0-1.463-0.12-2.238-0.358
				c-1.433-0.418-2.806-0.806-4.118-1.164c-1.313-0.357-2.478-0.819-3.492-1.388c-1.016-0.566-1.82-1.327-2.418-2.283
				c-0.596-0.954-0.895-2.238-0.895-3.85c0-0.836,0.089-1.76,0.269-2.776c0.418-1.909,1.045-4.759,1.88-8.551
				c0.835-3.789,1.775-7.969,2.82-12.535c1.044-4.566,2.179-9.296,3.402-14.191c1.223-4.894,2.477-9.401,3.761-13.52
				c1.283-4.119,2.581-7.611,3.895-10.477c1.312-2.865,2.566-4.566,3.761-5.104c2.208-1.014,4.507-2.015,6.895-2.999
				c2.387-0.985,4.79-1.85,7.208-2.597c2.417-0.746,4.804-1.357,7.163-1.836c2.357-0.477,4.61-0.716,6.76-0.716
				c2.507,0,4.909,0.389,7.208,1.164c2.297,0.776,4.282,2.119,5.954,4.029c1.014,1.194,2.044,2.492,3.089,3.895
				c1.044,1.403,1.999,2.94,2.865,4.611c0.864,1.672,1.566,3.492,2.104,5.462c0.538,1.97,0.807,4.089,0.807,6.356
				c0,1.314-0.135,2.493-0.403,3.537c-0.269,1.045-0.642,2.074-1.119,3.089v-0.09c-2.09,4.119-5.417,7.925-9.983,11.416
				c-4.566,3.492-10.014,6.791-16.341,9.895c1.193,1.611,2.492,3.299,3.896,5.059c1.401,1.762,2.834,3.507,4.298,5.238
				c1.462,1.731,2.909,3.388,4.342,4.969c1.433,1.582,2.776,3,4.029,4.253v-0.089c1.312,1.253,1.97,2.537,1.97,3.85
				c0,0.896-0.313,1.717-0.939,2.462c-0.627,0.747-1.374,1.374-2.239,1.881c-0.865,0.508-1.731,0.926-2.596,1.253
				c-0.866,0.329-1.538,0.522-2.015,0.582l0.089-0.089c-0.716,0.179-1.403,0.343-2.059,0.492c-0.658,0.148-1.374,0.224-2.149,0.224
				c-1.135,0-2.358-0.21-3.671-0.627c-1.313-0.417-2.687-1.133-4.119-2.148C450.857,311.216,449.515,309.992,448.023,308.56z
				 M453.216,251.748c-1.731,0.329-3.552,0.911-5.462,1.746c-0.836,2.09-1.656,4.313-2.462,6.67
				c-0.806,2.359-1.656,4.851-2.552,7.477v-0.089c-0.12,0.357-0.239,0.716-0.358,1.074c-0.12,0.358-0.239,0.747-0.357,1.164
				c3.044-1.312,5.804-2.776,8.282-4.388c2.476-1.611,4.566-3.224,6.268-4.835s3.013-3.134,3.939-4.566
				c0.925-1.433,1.388-2.597,1.388-3.492v-0.089c-0.3-0.775-1.643-1.164-4.029-1.164
				C456.498,251.256,454.946,251.421,453.216,251.748z"/>
			<path fill="#A1E5CF" d="M492.88,237.646c2.387-0.596,4.999-1.208,7.834-1.835s5.79-1.209,8.864-1.746s6.224-1.015,9.446-1.433
				c3.224-0.417,6.416-0.686,9.581-0.806h0.447c1.91,0,3.387,0.389,4.433,1.164c1.043,0.776,1.835,1.94,2.372,3.492v-0.09
				c0.597,1.374,1.015,2.507,1.254,3.402c0.237,0.896,0.447,1.851,0.627,2.865l-0.09-0.09c0.238,0.776,0.358,1.582,0.358,2.418
				c0,1.611-0.358,2.746-1.075,3.402c-0.716,0.657-2.059,1.105-4.028,1.343c-3.104,0.3-6.299,0.643-9.581,1.029
				c-3.283,0.39-6.775,0.851-10.476,1.389c-0.717,1.97-1.464,4.104-2.238,6.401c-0.776,2.299-1.582,4.582-2.418,6.85
				c2.566-0.298,5.163-0.477,7.79-0.537h0.627c1.73,0,3.103,0.269,4.118,0.806c1.015,0.537,1.85,1.553,2.508,3.045v-0.09
				c0.716,1.374,1.223,2.672,1.521,3.895c0.298,1.225,0.596,2.463,0.896,3.716l-0.09-0.09c0.238,0.896,0.358,1.612,0.358,2.149
				c0,1.016-0.344,1.835-1.029,2.462c-0.688,0.627-1.583,1.119-2.687,1.478c-1.105,0.358-2.388,0.643-3.85,0.851
				c-1.464,0.21-2.971,0.434-4.522,0.672h0.09c-2.269,0.479-4.477,0.91-6.626,1.298c-2.148,0.389-4.268,0.821-6.356,1.299
				c-0.479,1.194-0.956,2.493-1.433,3.895c-0.479,1.403-0.776,2.642-0.896,3.716c2.268-0.417,4.611-0.806,7.028-1.164
				c2.418-0.358,4.97-0.537,7.655-0.537c1.612,0,2.91,0.313,3.896,0.94c0.984,0.626,1.746,1.656,2.283,3.089v-0.09
				c0.716,1.433,1.356,3.015,1.925,4.745c0.566,1.732,0.851,3.373,0.851,4.925c0,1.374-0.329,2.328-0.985,2.865
				c-0.657,0.537-1.851,0.985-3.581,1.343c-3.82,0.837-7.745,1.688-11.774,2.552c-4.029,0.866-7.924,1.716-11.685,2.553l0.09-0.09
				c-1.672,0.417-3.075,0.627-4.208,0.627c-1.314,0-2.463-0.18-3.447-0.537c-0.985-0.358-1.896-0.882-2.731-1.567
				s-1.687-1.491-2.552-2.417c-0.865-0.925-1.806-1.984-2.82-3.179v0.089c-0.835-0.896-1.491-1.88-1.97-2.954
				c-0.477-1.075-0.716-2.387-0.716-3.939c0-0.896,0.089-1.791,0.269-2.687l15.579-59.632L492.88,237.646z"/>
		</g>
		<g opacity="0.9">
			<path fill="#FFFBCC" d="M158.525,247.284c-3.402,0.357-6.925,0.776-10.565,1.253c-0.716,1.732-1.403,3.716-2.06,5.954
				c-0.657,2.239-1.403,4.611-2.238,7.118c1.253-0.118,2.507-0.224,3.761-0.312c1.253-0.09,2.507-0.135,3.76-0.135h0.806
				c1.611,0,2.939,0.389,3.984,1.164c1.043,0.776,1.88,1.731,2.507,2.865c0.627,1.135,1.119,2.358,1.478,3.671
				c0.358,1.313,0.656,2.507,0.895,3.581l-0.089-0.089c0.179,0.896,0.269,1.553,0.269,1.97c0,1.374-0.374,2.343-1.119,2.91
				c-0.747,0.567-1.985,1-3.716,1.298c-3.165,0.598-6.343,1.195-9.536,1.791c-3.194,0.598-6.373,1.253-9.536,1.97
				c-1.553,4.776-2.955,9.401-4.208,13.878c-1.253,4.478-2.388,8.506-3.402,12.088v-0.18c-0.239,1.374-0.806,2.359-1.701,2.955
				s-1.97,0.896-3.223,0.896c-1.732,0-3.568-0.389-5.507-1.164c-1.94-0.775-3.626-1.491-5.059-2.148
				c-1.433-0.896-2.402-1.775-2.91-2.642c-0.506-0.864-0.761-1.925-0.761-3.179c0-0.896,0.089-1.88,0.269-2.955
				c0.239-1.67,0.761-4.073,1.567-7.207c0.806-3.134,1.746-6.671,2.82-10.61c1.074-3.939,2.193-8.162,3.357-12.67
				c1.164-4.506,2.252-8.938,3.268-13.296c1.015-4.356,1.895-8.521,2.642-12.49c0.746-3.97,1.208-7.416,1.388-10.342
				c2.566-0.717,5.386-1.357,8.461-1.925c3.074-0.566,6.237-1.06,9.491-1.478c3.253-0.417,6.536-0.775,9.849-1.074
				c3.313-0.298,6.521-0.507,9.625-0.627h0.626c1.552,0,2.91,0.447,4.074,1.343c1.164,0.896,2.149,2.015,2.955,3.357
				c0.806,1.344,1.417,2.791,1.835,4.343c0.417,1.553,0.627,2.985,0.627,4.298c0,1.611-0.344,2.717-1.03,3.312
				c-0.687,0.598-1.956,1.017-3.805,1.254C165.21,246.509,161.928,246.926,158.525,247.284z"/>
			<path fill="#FFFBCC" d="M224.782,238.912c0.896,1.403,1.581,2.91,2.06,4.521c0.477,1.612,0.806,3.313,0.985,5.104
				c0.179,1.791,0.269,3.702,0.269,5.73c0,3.344-0.299,7.104-0.896,11.282c-0.597,4.179-1.508,8.416-2.731,12.714
				c-1.224,4.298-2.775,8.492-4.656,12.58c-1.88,4.089-4.089,7.716-6.626,10.879c-2.538,3.164-5.417,5.716-8.64,7.655
				s-6.805,2.91-10.745,2.91c-1.313,0-2.627-0.09-3.939-0.269h0.089c-7.939-0.776-13.923-3.327-17.952-7.655
				s-6.043-10.849-6.043-19.564c0-4.477,0.537-9.133,1.611-13.968c1.075-4.835,2.642-9.58,4.701-14.236
				c2.06-4.656,4.581-9.043,7.566-13.162c2.984-4.118,6.357-7.669,10.118-10.654c1.791-1.312,3.85-2.357,6.178-3.134
				c2.328-0.775,4.566-1.164,6.715-1.164c1.612,0,3.297,0.179,5.059,0.537c1.76,0.357,3.461,0.851,5.104,1.478
				c1.641,0.626,3.178,1.329,4.611,2.104c1.433,0.776,2.626,1.553,3.582,2.328C222.692,236.182,223.887,237.511,224.782,238.912z
				 M206.069,246.03c-0.956,0-2.09,0.717-3.402,2.149c-1.313,1.433-2.672,3.268-4.074,5.506c-1.403,2.238-2.762,4.731-4.074,7.477
				c-1.313,2.746-2.448,5.403-3.402,7.969c-1.195,3.224-2.149,6.581-2.865,10.073c-0.716,3.491-1.074,6.67-1.074,9.535
				c0,2.091,0.208,3.836,0.626,5.238c0.417,1.403,1.133,2.104,2.149,2.104c0.954,0,2.044-0.627,3.268-1.881
				c1.223-1.253,2.492-2.939,3.806-5.059c1.312-2.118,2.596-4.611,3.85-7.477c1.253-2.865,2.373-5.909,3.357-9.133
				s1.775-6.565,2.373-10.028c0.596-3.461,0.895-6.834,0.895-10.117c0-1.791-0.105-3.253-0.313-4.388
				c-0.209-1.133-0.552-1.791-1.029-1.97H206.069z"/>
			<path fill="#FFFBCC" d="M263.73,304.856c-1.493-1.433-3.03-3-4.611-4.701c-1.582-1.701-3.149-3.477-4.701-5.327
				c-1.553-1.85-3.015-3.729-4.387-5.641c-1.016,3.402-2,6.686-2.955,9.849c-0.956,3.165-1.88,6.357-2.776,9.581
				c-0.358,1.194-0.851,2.088-1.477,2.686c-0.627,0.596-1.538,0.896-2.731,0.896c-0.716,0-1.463-0.12-2.238-0.358
				c-1.433-0.418-2.807-0.806-4.119-1.164c-1.313-0.357-2.478-0.819-3.492-1.388c-1.016-0.566-1.82-1.327-2.417-2.283
				c-0.596-0.954-0.896-2.238-0.896-3.85c0-0.836,0.09-1.76,0.269-2.776c0.418-1.909,1.045-4.759,1.88-8.551
				c0.835-3.789,1.775-7.969,2.82-12.535c1.044-4.566,2.178-9.296,3.402-14.191c1.223-4.894,2.477-9.401,3.761-13.52
				c1.283-4.119,2.581-7.611,3.895-10.477c1.312-2.865,2.566-4.566,3.76-5.104c2.208-1.014,4.506-2.015,6.895-2.999
				c2.387-0.985,4.79-1.85,7.208-2.597c2.418-0.746,4.805-1.357,7.163-1.836c2.357-0.477,4.611-0.716,6.76-0.716
				c2.507,0,4.909,0.389,7.208,1.164c2.297,0.776,4.283,2.119,5.955,4.029c1.014,1.194,2.044,2.492,3.089,3.895
				c1.043,1.403,1.999,2.94,2.865,4.611c0.864,1.672,1.567,3.492,2.104,5.462s0.806,4.089,0.806,6.356
				c0,1.314-0.134,2.493-0.403,3.537c-0.269,1.045-0.642,2.074-1.119,3.089v-0.09c-2.09,4.119-5.417,7.925-9.983,11.416
				c-4.566,3.492-10.014,6.791-16.34,9.895c1.193,1.611,2.492,3.299,3.895,5.059c1.402,1.762,2.834,3.507,4.298,5.238
				c1.462,1.731,2.91,3.388,4.343,4.969c1.433,1.582,2.775,3,4.029,4.253v-0.089c1.312,1.253,1.97,2.537,1.97,3.85
				c0,0.896-0.313,1.717-0.94,2.462c-0.626,0.747-1.374,1.374-2.238,1.881c-0.866,0.508-1.732,0.926-2.597,1.253
				c-0.866,0.329-1.538,0.522-2.015,0.582l0.09-0.089c-0.716,0.179-1.403,0.343-2.06,0.492c-0.658,0.148-1.374,0.224-2.149,0.224
				c-1.134,0-2.359-0.21-3.671-0.627c-1.313-0.417-2.686-1.133-4.119-2.148C266.564,307.513,265.221,306.289,263.73,304.856z
				 M268.923,248.045c-1.732,0.329-3.552,0.911-5.462,1.746c-0.836,2.09-1.656,4.313-2.462,6.67
				c-0.806,2.359-1.656,4.851-2.552,7.477v-0.089c-0.12,0.357-0.239,0.716-0.358,1.074c-0.121,0.358-0.239,0.747-0.358,1.164
				c3.044-1.312,5.805-2.776,8.282-4.388c2.476-1.611,4.566-3.224,6.268-4.835s3.014-3.134,3.939-4.566
				c0.925-1.433,1.388-2.597,1.388-3.492v-0.089c-0.299-0.775-1.643-1.164-4.029-1.164
				C272.205,247.553,270.654,247.718,268.923,248.045z"/>
			<path fill="#FFFBCC" d="M383.35,255.7c-1.791,5.552-3.598,11.342-5.416,17.37c-1.822,6.03-3.613,12.118-5.373,18.266
				c-1.762,6.148-3.357,11.939-4.791,17.37l0.09-0.269c-0.119,1.493-0.537,2.521-1.254,3.089c-0.715,0.567-1.701,0.851-2.953,0.851
				c-0.838,0-1.746-0.134-2.732-0.402c-0.984-0.269-2.045-0.553-3.178-0.851c-1.254-0.598-2.418-1.119-3.492-1.567
				c-1.074-0.447-2.029-0.939-2.865-1.478c-0.836-0.537-1.492-1.208-1.969-2.014c-0.479-0.807-0.717-1.865-0.717-3.179
				c0-0.775,0.148-1.701,0.447-2.776v0.09c0.416-2.089,0.939-4.491,1.566-7.208c0.627-2.715,1.328-5.686,2.105-8.908
				c-1.912,0.299-3.777,0.582-5.598,0.851s-3.625,0.553-5.416,0.851c-1.074,3.462-2.029,6.746-2.865,9.849
				c-0.836,3.104-1.582,6.06-2.238,8.864c-0.359,1.313-0.658,2.462-0.896,3.447c-0.238,0.984-0.521,1.806-0.85,2.462
				s-0.762,1.148-1.299,1.478c-0.537,0.327-1.254,0.492-2.148,0.492c-0.357,0-0.762-0.03-1.209-0.089
				c-0.447-0.061-0.971-0.18-1.566-0.358c-1.553-0.657-3.061-1.239-4.521-1.746c-1.465-0.507-2.776-1.074-3.94-1.701
				c-1.164-0.627-2.089-1.372-2.776-2.238c-0.686-0.864-1.03-1.984-1.03-3.357c0-0.954,0.21-2.029,0.627-3.224
				c1.553-4.656,3.089-9.863,4.611-15.624c1.521-5.76,3.029-11.64,4.521-17.639s2.924-11.894,4.299-17.684
				c1.371-5.789,2.686-11.072,3.939-15.849c0.537-1.433,1.148-2.446,1.836-3.044c0.686-0.596,1.625-0.896,2.82-0.896
				c0.537,0,1.387,0.179,2.551,0.537s2.402,0.806,3.717,1.343c1.311,0.538,2.609,1.135,3.895,1.791
				c1.283,0.657,2.373,1.313,3.268,1.97l-0.09-0.089c1.254,0.836,2.148,1.627,2.686,2.372c0.539,0.747,0.807,1.627,0.807,2.642
				c0,0.896-0.18,1.88-0.537,2.955c-1.016,2.925-2.18,6.372-3.492,10.341c-1.312,3.971-2.686,8.282-4.119,12.938
				c1.434-0.119,2.865-0.238,4.299-0.358c1.432-0.119,2.805-0.237,4.119-0.357h-0.09l1.701-0.09
				c1.73-5.909,3.416-11.743,5.059-17.505c1.641-5.76,3.236-10.879,4.791-15.355c0.477-1.552,1.104-2.655,1.879-3.312
				c0.775-0.656,1.76-0.985,2.955-0.985c0.955,0,2.029,0.21,3.223,0.627h-0.088c1.252,0.358,2.654,0.866,4.207,1.522
				c1.553,0.657,2.984,1.433,4.299,2.327c1.312,0.896,2.416,1.852,3.312,2.865c0.895,1.016,1.342,2.001,1.342,2.955
				c0,0.837-0.178,1.791-0.537,2.865C386.781,245.225,385.141,250.149,383.35,255.7z"/>
			<path fill="#FFFBCC" d="M411.731,234.48c1.193,0.836,2.044,1.627,2.552,2.372c0.507,0.747,0.762,1.627,0.762,2.642
				c0,0.896-0.18,1.911-0.537,3.044c-0.896,2.567-1.881,5.567-2.955,8.999c-1.074,3.433-2.193,7.104-3.357,11.013
				c-1.164,3.91-2.328,7.955-3.492,12.133c-1.164,4.179-2.299,8.282-3.402,12.311c-1.105,4.029-2.149,7.91-3.134,11.641
				c-0.985,3.73-1.866,7.089-2.642,10.072c-0.418,1.313-0.881,2.253-1.388,2.82c-0.508,0.567-1.358,0.851-2.552,0.851
				c-0.3,0-0.657-0.03-1.074-0.089c-0.419-0.061-0.896-0.18-1.433-0.358c-1.433-0.479-2.836-0.955-4.208-1.433
				c-1.374-0.478-2.628-1.059-3.761-1.746c-1.134-0.686-2.044-1.507-2.731-2.462c-0.686-0.954-1.029-2.118-1.029-3.492
				c0-0.596,0.03-1.089,0.09-1.478c0.06-0.388,0.149-0.851,0.269-1.388c0.357-2.328,0.896-5.238,1.611-8.729
				c0.717-3.492,1.553-7.267,2.507-11.327c0.954-4.059,1.984-8.282,3.089-12.669c1.104-4.388,2.194-8.654,3.269-12.804
				c1.074-4.148,2.118-8.043,3.134-11.685c1.015-3.641,1.939-6.745,2.775-9.312c0.597-1.551,1.254-2.641,1.97-3.268
				c0.717-0.627,1.671-0.94,2.865-0.94c0.775,0,1.716,0.165,2.82,0.492c1.104,0.329,2.269,0.747,3.492,1.254
				c1.223,0.508,2.402,1.074,3.537,1.701c1.133,0.627,2.148,1.269,3.044,1.925L411.731,234.48z"/>
			<path fill="#FFFBCC" d="M444.322,304.856c-1.493-1.433-3.03-3-4.611-4.701c-1.583-1.701-3.149-3.477-4.701-5.327
				c-1.553-1.85-3.015-3.729-4.387-5.641c-1.016,3.402-2.001,6.686-2.955,9.849c-0.956,3.165-1.88,6.357-2.775,9.581
				c-0.358,1.194-0.851,2.088-1.478,2.686c-0.627,0.596-1.538,0.896-2.731,0.896c-0.716,0-1.463-0.12-2.238-0.358
				c-1.433-0.418-2.806-0.806-4.118-1.164c-1.313-0.357-2.478-0.819-3.492-1.388c-1.016-0.566-1.82-1.327-2.418-2.283
				c-0.596-0.954-0.895-2.238-0.895-3.85c0-0.836,0.089-1.76,0.269-2.776c0.418-1.909,1.045-4.759,1.88-8.551
				c0.835-3.789,1.775-7.969,2.82-12.535c1.044-4.566,2.179-9.296,3.402-14.191c1.223-4.894,2.477-9.401,3.761-13.52
				c1.283-4.119,2.581-7.611,3.895-10.477c1.312-2.865,2.566-4.566,3.761-5.104c2.208-1.014,4.507-2.015,6.895-2.999
				c2.387-0.985,4.79-1.85,7.208-2.597c2.417-0.746,4.804-1.357,7.163-1.836c2.357-0.477,4.61-0.716,6.76-0.716
				c2.507,0,4.909,0.389,7.208,1.164c2.297,0.776,4.282,2.119,5.954,4.029c1.014,1.194,2.044,2.492,3.089,3.895
				c1.044,1.403,1.999,2.94,2.865,4.611c0.864,1.672,1.566,3.492,2.104,5.462c0.538,1.97,0.807,4.089,0.807,6.356
				c0,1.314-0.135,2.493-0.403,3.537c-0.269,1.045-0.642,2.074-1.119,3.089v-0.09c-2.09,4.119-5.417,7.925-9.983,11.416
				c-4.566,3.492-10.014,6.791-16.341,9.895c1.193,1.611,2.492,3.299,3.896,5.059c1.401,1.762,2.834,3.507,4.298,5.238
				c1.462,1.731,2.909,3.388,4.342,4.969c1.433,1.582,2.776,3,4.029,4.253v-0.089c1.312,1.253,1.97,2.537,1.97,3.85
				c0,0.896-0.313,1.717-0.939,2.462c-0.627,0.747-1.374,1.374-2.239,1.881c-0.865,0.508-1.731,0.926-2.596,1.253
				c-0.866,0.329-1.538,0.522-2.015,0.582l0.089-0.089c-0.716,0.179-1.403,0.343-2.059,0.492c-0.658,0.148-1.374,0.224-2.149,0.224
				c-1.135,0-2.358-0.21-3.671-0.627c-1.313-0.417-2.687-1.133-4.119-2.148C447.156,307.513,445.813,306.289,444.322,304.856z
				 M449.515,248.045c-1.731,0.329-3.552,0.911-5.462,1.746c-0.836,2.09-1.656,4.313-2.462,6.67
				c-0.806,2.359-1.656,4.851-2.552,7.477v-0.089c-0.12,0.357-0.239,0.716-0.358,1.074c-0.12,0.358-0.239,0.747-0.357,1.164
				c3.044-1.312,5.804-2.776,8.282-4.388c2.476-1.611,4.566-3.224,6.268-4.835s3.013-3.134,3.939-4.566
				c0.925-1.433,1.388-2.597,1.388-3.492v-0.089c-0.3-0.775-1.643-1.164-4.029-1.164
				C452.797,247.553,451.245,247.718,449.515,248.045z"/>
			<path fill="#FFFBCC" d="M489.179,233.942c2.387-0.596,4.999-1.208,7.834-1.835s5.79-1.209,8.864-1.746s6.224-1.015,9.446-1.433
				c3.224-0.417,6.416-0.686,9.581-0.806h0.447c1.91,0,3.387,0.389,4.433,1.164c1.043,0.776,1.835,1.94,2.372,3.492v-0.09
				c0.597,1.374,1.015,2.507,1.254,3.402c0.237,0.896,0.447,1.851,0.627,2.865l-0.09-0.09c0.238,0.776,0.358,1.582,0.358,2.418
				c0,1.611-0.358,2.746-1.075,3.402c-0.716,0.657-2.059,1.105-4.028,1.343c-3.104,0.3-6.299,0.643-9.581,1.029
				c-3.283,0.39-6.775,0.851-10.476,1.389c-0.717,1.97-1.464,4.104-2.238,6.401c-0.776,2.299-1.582,4.582-2.418,6.85
				c2.566-0.298,5.163-0.477,7.79-0.537h0.627c1.73,0,3.103,0.269,4.118,0.806c1.015,0.537,1.85,1.553,2.508,3.045v-0.09
				c0.716,1.374,1.223,2.672,1.521,3.895c0.298,1.225,0.596,2.463,0.896,3.716l-0.09-0.09c0.238,0.896,0.358,1.612,0.358,2.149
				c0,1.016-0.344,1.835-1.029,2.462c-0.688,0.627-1.583,1.119-2.687,1.478c-1.105,0.358-2.388,0.643-3.85,0.851
				c-1.464,0.21-2.971,0.434-4.522,0.672h0.09c-2.269,0.479-4.477,0.91-6.626,1.298c-2.148,0.389-4.268,0.821-6.356,1.299
				c-0.479,1.194-0.956,2.493-1.433,3.895c-0.479,1.403-0.776,2.642-0.896,3.716c2.268-0.417,4.611-0.806,7.028-1.164
				c2.418-0.358,4.97-0.537,7.655-0.537c1.612,0,2.91,0.313,3.896,0.94c0.984,0.626,1.746,1.656,2.283,3.089v-0.09
				c0.716,1.433,1.356,3.015,1.925,4.745c0.566,1.732,0.851,3.373,0.851,4.925c0,1.374-0.329,2.328-0.985,2.865
				c-0.657,0.537-1.851,0.985-3.581,1.343c-3.82,0.837-7.745,1.688-11.774,2.552c-4.029,0.866-7.924,1.716-11.685,2.553l0.09-0.09
				c-1.672,0.417-3.075,0.627-4.208,0.627c-1.314,0-2.463-0.18-3.447-0.537c-0.985-0.358-1.896-0.882-2.731-1.567
				s-1.687-1.491-2.552-2.417c-0.865-0.925-1.806-1.984-2.82-3.179v0.089c-0.835-0.896-1.491-1.88-1.97-2.954
				c-0.477-1.075-0.716-2.387-0.716-3.939c0-0.896,0.089-1.791,0.269-2.687l15.579-59.632L489.179,233.942z"/>
		</g>
		<g>
			<path fill="#BF5A56" d="M156.675,245.435c-3.402,0.357-6.925,0.776-10.565,1.253c-0.716,1.732-1.403,3.716-2.06,5.954
				c-0.657,2.239-1.403,4.611-2.238,7.118c1.253-0.118,2.507-0.224,3.761-0.312c1.253-0.09,2.507-0.135,3.76-0.135h0.806
				c1.611,0,2.939,0.389,3.984,1.164c1.043,0.776,1.88,1.731,2.507,2.865c0.627,1.135,1.119,2.358,1.478,3.671
				c0.358,1.313,0.656,2.507,0.895,3.581l-0.089-0.089c0.179,0.896,0.269,1.553,0.269,1.97c0,1.374-0.374,2.343-1.119,2.91
				c-0.747,0.567-1.985,1-3.716,1.298c-3.165,0.598-6.343,1.195-9.536,1.791c-3.194,0.598-6.373,1.253-9.536,1.97
				c-1.553,4.776-2.955,9.401-4.208,13.878c-1.253,4.478-2.388,8.506-3.402,12.088v-0.18c-0.239,1.374-0.806,2.359-1.701,2.955
				s-1.97,0.896-3.223,0.896c-1.732,0-3.568-0.389-5.507-1.164c-1.94-0.775-3.626-1.491-5.059-2.148
				c-1.433-0.896-2.402-1.775-2.91-2.642c-0.506-0.864-0.761-1.925-0.761-3.179c0-0.896,0.089-1.88,0.269-2.955
				c0.239-1.67,0.761-4.073,1.567-7.207c0.806-3.134,1.746-6.671,2.82-10.61c1.074-3.939,2.193-8.162,3.357-12.67
				c1.164-4.506,2.252-8.938,3.268-13.296c1.015-4.356,1.895-8.521,2.642-12.49c0.746-3.97,1.208-7.416,1.388-10.342
				c2.566-0.717,5.386-1.357,8.461-1.925c3.074-0.566,6.237-1.06,9.491-1.478c3.253-0.417,6.536-0.775,9.849-1.074
				c3.313-0.298,6.521-0.507,9.625-0.627h0.626c1.552,0,2.91,0.447,4.074,1.343c1.164,0.896,2.149,2.015,2.955,3.357
				c0.806,1.344,1.417,2.791,1.835,4.343c0.417,1.553,0.627,2.985,0.627,4.298c0,1.611-0.344,2.717-1.03,3.312
				c-0.687,0.598-1.956,1.017-3.805,1.254C163.36,244.659,160.078,245.076,156.675,245.435z"/>
			<path fill="#BF5A56" d="M222.932,237.062c0.896,1.403,1.581,2.91,2.06,4.521c0.477,1.612,0.806,3.313,0.985,5.104
				c0.179,1.791,0.269,3.702,0.269,5.73c0,3.344-0.299,7.104-0.896,11.282c-0.597,4.179-1.508,8.416-2.731,12.714
				c-1.224,4.298-2.775,8.492-4.656,12.58c-1.88,4.089-4.089,7.716-6.626,10.879c-2.538,3.164-5.417,5.716-8.64,7.655
				s-6.805,2.91-10.745,2.91c-1.313,0-2.627-0.09-3.939-0.269h0.089c-7.939-0.776-13.923-3.327-17.952-7.655
				s-6.043-10.849-6.043-19.564c0-4.477,0.537-9.133,1.611-13.968c1.075-4.835,2.642-9.58,4.701-14.236
				c2.06-4.656,4.581-9.043,7.566-13.162c2.984-4.118,6.357-7.669,10.118-10.654c1.791-1.312,3.85-2.357,6.178-3.134
				c2.328-0.775,4.566-1.164,6.715-1.164c1.612,0,3.297,0.179,5.059,0.537c1.76,0.357,3.461,0.851,5.104,1.478
				c1.641,0.626,3.178,1.329,4.611,2.104c1.433,0.776,2.626,1.553,3.582,2.328C220.842,234.332,222.037,235.661,222.932,237.062z
				 M204.219,244.181c-0.956,0-2.09,0.717-3.402,2.149c-1.313,1.433-2.672,3.268-4.074,5.506c-1.403,2.238-2.762,4.731-4.074,7.477
				c-1.313,2.746-2.448,5.403-3.402,7.969c-1.195,3.224-2.149,6.581-2.865,10.073c-0.716,3.491-1.074,6.67-1.074,9.535
				c0,2.091,0.208,3.836,0.626,5.238c0.417,1.403,1.133,2.104,2.149,2.104c0.954,0,2.044-0.627,3.268-1.881
				c1.223-1.253,2.492-2.939,3.806-5.059c1.312-2.118,2.596-4.611,3.85-7.477c1.253-2.865,2.373-5.909,3.357-9.133
				s1.775-6.565,2.373-10.028c0.596-3.461,0.895-6.834,0.895-10.117c0-1.791-0.105-3.253-0.313-4.388
				c-0.209-1.133-0.552-1.791-1.029-1.97H204.219z"/>
			<path fill="#BF5A56" d="M261.88,303.007c-1.493-1.433-3.03-3-4.611-4.701c-1.582-1.701-3.149-3.477-4.701-5.327
				c-1.553-1.85-3.015-3.729-4.387-5.641c-1.016,3.402-2,6.686-2.955,9.849c-0.956,3.165-1.88,6.357-2.776,9.581
				c-0.358,1.194-0.851,2.088-1.477,2.686c-0.627,0.596-1.538,0.896-2.731,0.896c-0.716,0-1.463-0.12-2.238-0.358
				c-1.433-0.418-2.807-0.806-4.119-1.164c-1.313-0.357-2.478-0.819-3.492-1.388c-1.016-0.566-1.82-1.327-2.417-2.283
				c-0.596-0.954-0.896-2.238-0.896-3.85c0-0.836,0.09-1.76,0.269-2.776c0.418-1.909,1.045-4.759,1.88-8.551
				c0.835-3.789,1.775-7.969,2.82-12.535c1.044-4.566,2.178-9.296,3.402-14.191c1.223-4.894,2.477-9.401,3.761-13.52
				c1.283-4.119,2.581-7.611,3.895-10.477c1.312-2.865,2.566-4.566,3.76-5.104c2.208-1.014,4.506-2.015,6.895-2.999
				c2.387-0.985,4.79-1.85,7.208-2.597c2.418-0.746,4.805-1.357,7.163-1.836c2.357-0.477,4.611-0.716,6.76-0.716
				c2.507,0,4.909,0.389,7.208,1.164c2.297,0.776,4.283,2.119,5.955,4.029c1.014,1.194,2.044,2.492,3.089,3.895
				c1.043,1.403,1.999,2.94,2.865,4.611c0.864,1.672,1.567,3.492,2.104,5.462s0.806,4.089,0.806,6.356
				c0,1.314-0.134,2.493-0.403,3.537c-0.269,1.045-0.642,2.074-1.119,3.089v-0.09c-2.09,4.119-5.417,7.925-9.983,11.416
				c-4.566,3.492-10.014,6.791-16.34,9.895c1.193,1.611,2.492,3.299,3.895,5.059c1.402,1.762,2.834,3.507,4.298,5.238
				c1.462,1.731,2.91,3.388,4.343,4.969c1.433,1.582,2.775,3,4.029,4.253v-0.089c1.312,1.253,1.97,2.537,1.97,3.85
				c0,0.896-0.313,1.717-0.94,2.462c-0.626,0.747-1.374,1.374-2.238,1.881c-0.866,0.508-1.732,0.926-2.597,1.253
				c-0.866,0.329-1.538,0.522-2.015,0.582l0.09-0.089c-0.716,0.179-1.403,0.343-2.06,0.492c-0.658,0.148-1.374,0.224-2.149,0.224
				c-1.134,0-2.359-0.21-3.671-0.627c-1.313-0.417-2.686-1.133-4.119-2.148C264.714,305.663,263.371,304.439,261.88,303.007z
				 M267.073,246.195c-1.732,0.329-3.552,0.911-5.462,1.746c-0.836,2.09-1.656,4.313-2.462,6.67
				c-0.806,2.359-1.656,4.851-2.552,7.477v-0.089c-0.12,0.357-0.239,0.716-0.358,1.074c-0.121,0.358-0.239,0.747-0.358,1.164
				c3.044-1.312,5.805-2.776,8.282-4.388c2.476-1.611,4.566-3.224,6.268-4.835s3.014-3.134,3.939-4.566
				c0.925-1.433,1.388-2.597,1.388-3.492v-0.089c-0.299-0.775-1.643-1.164-4.029-1.164
				C270.355,245.703,268.804,245.868,267.073,246.195z"/>
			<path fill="#BF5A56" d="M381.5,253.851c-1.791,5.552-3.598,11.342-5.416,17.37c-1.822,6.03-3.613,12.118-5.373,18.266
				c-1.762,6.148-3.357,11.939-4.791,17.37l0.09-0.269c-0.119,1.493-0.537,2.521-1.254,3.089c-0.715,0.567-1.701,0.851-2.953,0.851
				c-0.838,0-1.746-0.134-2.732-0.402c-0.984-0.269-2.045-0.553-3.178-0.851c-1.254-0.598-2.418-1.119-3.492-1.567
				c-1.074-0.447-2.029-0.939-2.865-1.478c-0.836-0.537-1.492-1.208-1.969-2.014c-0.479-0.807-0.717-1.865-0.717-3.179
				c0-0.775,0.148-1.701,0.447-2.776v0.09c0.416-2.089,0.939-4.491,1.566-7.208c0.627-2.715,1.328-5.686,2.105-8.908
				c-1.912,0.299-3.777,0.582-5.598,0.851s-3.625,0.553-5.416,0.851c-1.074,3.462-2.029,6.746-2.865,9.849
				c-0.836,3.104-1.582,6.06-2.238,8.864c-0.359,1.313-0.658,2.462-0.896,3.447c-0.238,0.984-0.521,1.806-0.85,2.462
				s-0.762,1.148-1.299,1.478c-0.537,0.327-1.254,0.492-2.148,0.492c-0.357,0-0.762-0.03-1.209-0.089
				c-0.447-0.061-0.971-0.18-1.566-0.358c-1.553-0.657-3.061-1.239-4.521-1.746c-1.464-0.507-2.776-1.074-3.94-1.701
				c-1.164-0.627-2.089-1.372-2.776-2.238c-0.686-0.864-1.03-1.984-1.03-3.357c0-0.954,0.21-2.029,0.627-3.224
				c1.553-4.656,3.089-9.863,4.611-15.624c1.522-5.76,3.029-11.64,4.521-17.639s2.924-11.894,4.299-17.684
				c1.371-5.789,2.686-11.072,3.939-15.849c0.537-1.433,1.148-2.446,1.836-3.044c0.686-0.596,1.625-0.896,2.82-0.896
				c0.537,0,1.387,0.179,2.551,0.537s2.402,0.806,3.717,1.343c1.311,0.538,2.609,1.135,3.895,1.791
				c1.283,0.657,2.373,1.313,3.268,1.97l-0.09-0.089c1.254,0.836,2.148,1.627,2.686,2.372c0.539,0.747,0.807,1.627,0.807,2.642
				c0,0.896-0.18,1.88-0.537,2.955c-1.016,2.925-2.18,6.372-3.492,10.341c-1.312,3.971-2.686,8.282-4.119,12.938
				c1.434-0.119,2.865-0.238,4.299-0.358c1.432-0.119,2.805-0.237,4.119-0.357h-0.09l1.701-0.09
				c1.73-5.909,3.416-11.743,5.059-17.505c1.641-5.76,3.236-10.879,4.791-15.355c0.477-1.552,1.104-2.655,1.879-3.312
				c0.775-0.656,1.76-0.985,2.955-0.985c0.955,0,2.029,0.21,3.223,0.627h-0.088c1.252,0.358,2.654,0.866,4.207,1.522
				c1.553,0.657,2.984,1.433,4.299,2.327c1.312,0.896,2.416,1.852,3.312,2.865c0.895,1.016,1.342,2.001,1.342,2.955
				c0,0.837-0.178,1.791-0.537,2.865C384.932,243.375,383.291,248.3,381.5,253.851z"/>
			<path fill="#BF5A56" d="M409.882,232.631c1.193,0.836,2.044,1.627,2.552,2.372c0.507,0.747,0.762,1.627,0.762,2.642
				c0,0.896-0.18,1.911-0.537,3.044c-0.896,2.567-1.881,5.567-2.955,8.999c-1.074,3.433-2.193,7.104-3.357,11.013
				c-1.164,3.91-2.328,7.955-3.492,12.133c-1.164,4.179-2.299,8.282-3.402,12.311c-1.105,4.029-2.149,7.91-3.134,11.641
				c-0.985,3.73-1.866,7.089-2.642,10.072c-0.418,1.313-0.881,2.253-1.388,2.82c-0.508,0.567-1.358,0.851-2.552,0.851
				c-0.3,0-0.657-0.03-1.074-0.089c-0.419-0.061-0.896-0.18-1.433-0.358c-1.433-0.479-2.836-0.955-4.208-1.433
				c-1.374-0.478-2.628-1.059-3.761-1.746c-1.134-0.686-2.044-1.507-2.731-2.462c-0.686-0.954-1.029-2.118-1.029-3.492
				c0-0.596,0.03-1.089,0.09-1.478c0.06-0.388,0.149-0.851,0.269-1.388c0.357-2.328,0.896-5.238,1.611-8.729
				c0.717-3.492,1.553-7.267,2.507-11.327c0.954-4.059,1.984-8.282,3.089-12.669c1.104-4.388,2.194-8.654,3.269-12.804
				c1.074-4.148,2.118-8.043,3.134-11.685c1.015-3.641,1.939-6.745,2.775-9.312c0.597-1.551,1.254-2.641,1.97-3.268
				c0.717-0.627,1.671-0.94,2.865-0.94c0.775,0,1.716,0.165,2.82,0.492c1.104,0.329,2.269,0.747,3.492,1.254
				c1.223,0.508,2.402,1.074,3.537,1.701c1.133,0.627,2.148,1.269,3.044,1.925L409.882,232.631z"/>
			<path fill="#BF5A56" d="M442.473,303.007c-1.493-1.433-3.03-3-4.611-4.701c-1.583-1.701-3.149-3.477-4.701-5.327
				c-1.553-1.85-3.015-3.729-4.387-5.641c-1.016,3.402-2.001,6.686-2.955,9.849c-0.956,3.165-1.88,6.357-2.775,9.581
				c-0.358,1.194-0.851,2.088-1.478,2.686c-0.627,0.596-1.538,0.896-2.731,0.896c-0.716,0-1.463-0.12-2.238-0.358
				c-1.433-0.418-2.806-0.806-4.118-1.164c-1.313-0.357-2.478-0.819-3.492-1.388c-1.016-0.566-1.82-1.327-2.418-2.283
				c-0.596-0.954-0.895-2.238-0.895-3.85c0-0.836,0.089-1.76,0.269-2.776c0.418-1.909,1.045-4.759,1.88-8.551
				c0.835-3.789,1.775-7.969,2.82-12.535c1.044-4.566,2.179-9.296,3.402-14.191c1.223-4.894,2.477-9.401,3.761-13.52
				c1.283-4.119,2.581-7.611,3.895-10.477c1.312-2.865,2.566-4.566,3.761-5.104c2.208-1.014,4.507-2.015,6.895-2.999
				c2.387-0.985,4.79-1.85,7.208-2.597c2.417-0.746,4.804-1.357,7.163-1.836c2.357-0.477,4.61-0.716,6.76-0.716
				c2.507,0,4.909,0.389,7.208,1.164c2.297,0.776,4.282,2.119,5.954,4.029c1.014,1.194,2.044,2.492,3.089,3.895
				c1.044,1.403,1.999,2.94,2.865,4.611c0.864,1.672,1.566,3.492,2.104,5.462c0.538,1.97,0.807,4.089,0.807,6.356
				c0,1.314-0.135,2.493-0.403,3.537c-0.269,1.045-0.642,2.074-1.119,3.089v-0.09c-2.09,4.119-5.417,7.925-9.983,11.416
				c-4.566,3.492-10.014,6.791-16.341,9.895c1.193,1.611,2.492,3.299,3.896,5.059c1.401,1.762,2.834,3.507,4.298,5.238
				c1.462,1.731,2.909,3.388,4.342,4.969c1.433,1.582,2.776,3,4.029,4.253v-0.089c1.312,1.253,1.97,2.537,1.97,3.85
				c0,0.896-0.313,1.717-0.939,2.462c-0.627,0.747-1.374,1.374-2.239,1.881c-0.865,0.508-1.731,0.926-2.596,1.253
				c-0.866,0.329-1.538,0.522-2.015,0.582l0.089-0.089c-0.716,0.179-1.403,0.343-2.059,0.492c-0.658,0.148-1.374,0.224-2.149,0.224
				c-1.135,0-2.358-0.21-3.671-0.627c-1.313-0.417-2.687-1.133-4.119-2.148C445.307,305.663,443.964,304.439,442.473,303.007z
				 M447.665,246.195c-1.731,0.329-3.552,0.911-5.462,1.746c-0.836,2.09-1.656,4.313-2.462,6.67
				c-0.806,2.359-1.656,4.851-2.552,7.477v-0.089c-0.12,0.357-0.239,0.716-0.358,1.074c-0.12,0.358-0.239,0.747-0.357,1.164
				c3.044-1.312,5.804-2.776,8.282-4.388c2.476-1.611,4.566-3.224,6.268-4.835s3.013-3.134,3.939-4.566
				c0.925-1.433,1.388-2.597,1.388-3.492v-0.089c-0.3-0.775-1.643-1.164-4.029-1.164
				C450.947,245.703,449.396,245.868,447.665,246.195z"/>
			<path fill="#BF5A56" d="M487.329,232.093c2.387-0.596,4.999-1.208,7.834-1.835s5.79-1.209,8.864-1.746s6.224-1.015,9.446-1.433
				c3.224-0.417,6.416-0.686,9.581-0.806h0.447c1.91,0,3.387,0.389,4.433,1.164c1.043,0.776,1.835,1.94,2.372,3.492v-0.09
				c0.597,1.374,1.015,2.507,1.254,3.402c0.237,0.896,0.447,1.851,0.627,2.865l-0.09-0.09c0.238,0.776,0.358,1.582,0.358,2.418
				c0,1.611-0.358,2.746-1.075,3.402c-0.716,0.657-2.059,1.105-4.028,1.343c-3.104,0.3-6.299,0.643-9.581,1.029
				c-3.283,0.39-6.775,0.851-10.476,1.389c-0.717,1.97-1.464,4.104-2.238,6.401c-0.776,2.299-1.582,4.582-2.418,6.85
				c2.566-0.298,5.163-0.477,7.79-0.537h0.627c1.73,0,3.103,0.269,4.118,0.806c1.015,0.537,1.85,1.553,2.508,3.045v-0.09
				c0.716,1.374,1.223,2.672,1.521,3.895c0.298,1.225,0.596,2.463,0.896,3.716l-0.09-0.09c0.238,0.896,0.358,1.612,0.358,2.149
				c0,1.016-0.344,1.835-1.029,2.462c-0.688,0.627-1.583,1.119-2.687,1.478c-1.105,0.358-2.388,0.643-3.85,0.851
				c-1.464,0.21-2.971,0.434-4.522,0.672h0.09c-2.269,0.479-4.477,0.91-6.626,1.298c-2.148,0.389-4.268,0.821-6.356,1.299
				c-0.479,1.194-0.956,2.493-1.433,3.895c-0.479,1.403-0.776,2.642-0.896,3.716c2.268-0.417,4.611-0.806,7.028-1.164
				c2.418-0.358,4.97-0.537,7.655-0.537c1.612,0,2.91,0.313,3.896,0.94c0.984,0.626,1.746,1.656,2.283,3.089v-0.09
				c0.716,1.433,1.356,3.015,1.925,4.745c0.566,1.732,0.851,3.373,0.851,4.925c0,1.374-0.329,2.328-0.985,2.865
				c-0.657,0.537-1.851,0.985-3.581,1.343c-3.82,0.837-7.745,1.688-11.774,2.552c-4.029,0.866-7.924,1.716-11.685,2.553l0.09-0.09
				c-1.672,0.417-3.075,0.627-4.208,0.627c-1.314,0-2.463-0.18-3.447-0.537c-0.985-0.358-1.896-0.882-2.731-1.567
				s-1.687-1.491-2.552-2.417c-0.865-0.925-1.806-1.984-2.82-3.179v0.089c-0.835-0.896-1.491-1.88-1.97-2.954
				c-0.477-1.075-0.716-2.387-0.716-3.939c0-0.896,0.089-1.791,0.269-2.687l15.579-59.632L487.329,232.093z"/>
		</g>
	</g>
	<g>
		<path fill="#494B4D" d="M208.476,179.7c0.11,0.28,0.095,0.69-0.045,1.23c-0.28,0.9-0.585,1.93-0.915,3.09s-0.66,2.385-0.99,3.675
			c-0.33,1.29-0.655,2.61-0.975,3.96c-0.32,1.35-0.63,2.67-0.93,3.96c-0.3,1.29-0.575,2.51-0.825,3.66
			c-0.25,1.15-0.465,2.174-0.645,3.075c-0.101,0.34-0.235,0.561-0.405,0.66s-0.515,0.09-1.035-0.029
			c-0.52-0.141-1.015-0.281-1.485-0.421c-0.47-0.14-0.915-0.319-1.335-0.54c-0.46-0.22-0.765-0.475-0.915-0.765
			c-0.15-0.29-0.195-0.695-0.135-1.215c0.04-0.7,0.125-1.605,0.255-2.715c0.13-1.11,0.29-2.325,0.48-3.645
			c0.19-1.32,0.405-2.71,0.645-4.17c0.24-1.459,0.485-2.89,0.735-4.29c0.25-1.399,0.505-2.725,0.765-3.975
			c0.26-1.25,0.5-2.345,0.72-3.285c0.18-0.58,0.424-0.935,0.735-1.065c0.31-0.13,0.775-0.105,1.395,0.075
			c0.62,0.16,1.29,0.4,2.01,0.72c0.72,0.32,1.35,0.66,1.89,1.02C208.031,179.09,208.366,179.42,208.476,179.7z"/>
		<path fill="#494B4D" d="M216.696,183.555c-0.23,0.21-0.535,0.375-0.915,0.495c-0.6,0.18-1.36,0.27-2.28,0.27
			c-0.94,0.02-1.32-0.38-1.14-1.2c0.12-0.6,0.265-1.35,0.435-2.25c0.17-0.9,0.335-1.85,0.495-2.85c0.16-1,0.315-1.985,0.465-2.955
			c0.15-0.97,0.275-1.835,0.375-2.595c0.08-0.58,0.265-0.915,0.555-1.005c0.29-0.09,0.705-0.015,1.245,0.225
			c0.96,0.38,1.79,0.84,2.49,1.38c0.24,0.2,0.425,0.395,0.555,0.585c0.13,0.19,0.225,0.38,0.285,0.57
			c0.06,0.19,0.09,0.396,0.09,0.615c0,0.22-0.01,0.47-0.03,0.75c-0.08,0.56-0.195,1.17-0.345,1.83c-0.15,0.66-0.315,1.31-0.495,1.95
			c-0.18,0.641-0.365,1.245-0.555,1.815c-0.19,0.57-0.365,1.035-0.525,1.395C217.161,183.02,216.926,183.345,216.696,183.555z"/>
		<path fill="#494B4D" d="M227.361,191.94c-0.24,1.36-0.46,2.67-0.66,3.93c-0.2,1.26-0.375,2.44-0.525,3.54
			c-0.15,1.1-0.265,2.081-0.345,2.94c-0.08,0.36-0.21,0.596-0.39,0.705s-0.51,0.115-0.99,0.016c-0.46-0.102-0.925-0.226-1.395-0.375
			c-0.47-0.15-0.905-0.325-1.305-0.525c-0.5-0.24-0.84-0.5-1.02-0.78s-0.25-0.68-0.21-1.2c0-0.78,0.035-1.735,0.105-2.865
			c0.07-1.129,0.17-2.355,0.3-3.675c0.13-1.32,0.275-2.69,0.435-4.11c0.161-1.419,0.335-2.82,0.525-4.2
			c0.19-1.38,0.38-2.685,0.57-3.915s0.375-2.315,0.555-3.255c0.18-0.68,0.435-1.105,0.765-1.275s0.845-0.205,1.545-0.105
			c1.08,0.161,1.995,0.34,2.745,0.54c0.75,0.2,1.505,0.44,2.265,0.72c0.48,0.18,0.859,0.375,1.14,0.585
			c0.28,0.21,0.5,0.44,0.66,0.69c0.16,0.25,0.275,0.525,0.345,0.825c0.07,0.3,0.145,0.64,0.225,1.02c0,0.18,0.015,0.395,0.045,0.645
			c0.03,0.25,0.09,0.695,0.18,1.335c0.09,0.64,0.225,1.55,0.405,2.73c0.18,1.18,0.43,2.8,0.75,4.86c0.32-0.72,0.695-1.51,1.125-2.37
			c0.43-0.859,0.875-1.74,1.335-2.64c0.46-0.9,0.935-1.8,1.425-2.7s0.965-1.75,1.425-2.55c0.459-0.92,0.859-1.675,1.2-2.265
			c0.34-0.59,0.69-1.04,1.05-1.35c0.36-0.31,0.765-0.485,1.215-0.525s1.025,0.04,1.725,0.24c0.82,0.221,1.685,0.48,2.595,0.78
			c0.91,0.3,1.805,0.65,2.685,1.05c0.58,0.28,0.945,0.605,1.095,0.975c0.15,0.37,0.115,0.885-0.105,1.545
			c-0.3,0.94-0.641,2.021-1.02,3.24c-0.38,1.22-0.765,2.5-1.155,3.84c-0.39,1.34-0.78,2.7-1.17,4.08c-0.39,1.38-0.76,2.7-1.11,3.96
			c-0.35,1.26-0.665,2.42-0.945,3.48c-0.28,1.061-0.5,1.94-0.66,2.64c-0.14,0.359-0.3,0.619-0.48,0.779s-0.53,0.181-1.05,0.061
			c-0.46-0.1-0.93-0.221-1.41-0.359c-0.48-0.141-0.9-0.311-1.26-0.511c-0.46-0.22-0.765-0.479-0.915-0.78
			c-0.15-0.3-0.175-0.699-0.075-1.2c0.08-0.6,0.21-1.375,0.39-2.325c0.18-0.95,0.39-2,0.63-3.15c0.24-1.149,0.505-2.355,0.795-3.615
			c0.29-1.26,0.604-2.479,0.945-3.66c-0.6,1.04-1.235,2.17-1.905,3.39c-0.67,1.22-1.32,2.42-1.95,3.6s-1.21,2.295-1.74,3.345
			c-0.53,1.05-0.956,1.925-1.275,2.625c-0.101,0.221-0.186,0.396-0.255,0.525c-0.07,0.13-0.155,0.224-0.255,0.285
			s-0.23,0.096-0.39,0.105s-0.37-0.016-0.63-0.075c-0.8-0.16-1.5-0.34-2.1-0.54c-0.22-0.08-0.41-0.165-0.57-0.255
			c-0.16-0.09-0.3-0.21-0.42-0.36s-0.225-0.334-0.315-0.555c-0.09-0.22-0.186-0.5-0.285-0.84c-0.4-1.44-0.785-3.1-1.155-4.98
			c-0.371-1.879-0.705-3.82-1.005-5.82C227.851,189.22,227.601,190.58,227.361,191.94z"/>
		<path fill="#494B4D" d="M272.075,197.475c-1.49,0.21-2.805,0.465-3.945,0.765c-0.4,0.78-0.75,1.505-1.05,2.175
			c-0.3,0.67-0.59,1.326-0.87,1.965c-0.161,0.34-0.355,0.54-0.585,0.601c-0.23,0.059-0.575,0.01-1.035-0.15
			c-0.26-0.101-0.545-0.215-0.855-0.346c-0.31-0.129-0.625-0.274-0.945-0.435c-0.24-0.159-0.45-0.295-0.63-0.405
			c-0.18-0.109-0.319-0.244-0.42-0.404c-0.1-0.16-0.155-0.365-0.165-0.615c-0.01-0.25,0.045-0.585,0.165-1.005
			c0.48-1.38,1.105-3,1.875-4.86s1.6-3.78,2.49-5.76c0.89-1.98,1.8-3.935,2.73-5.865c0.93-1.93,1.815-3.645,2.655-5.145
			c0.3-0.54,0.69-0.979,1.17-1.32c0.48-0.34,1.19-0.47,2.13-0.39c0.82,0.041,1.549,0.105,2.19,0.195
			c0.64,0.09,1.225,0.195,1.755,0.315c0.53,0.12,1.02,0.25,1.47,0.39c0.45,0.14,0.905,0.27,1.365,0.39
			c0.62,0.22,1.015,0.51,1.185,0.87c0.169,0.36,0.225,0.83,0.165,1.41c-0.12,1.42-0.22,3.05-0.3,4.89
			c-0.08,1.84-0.14,3.76-0.18,5.76c-0.041,2-0.065,4.005-0.075,6.015c-0.01,2.01-0.005,3.875,0.015,5.595
			c0,0.36-0.075,0.61-0.225,0.75c-0.15,0.141-0.485,0.211-1.005,0.211c-0.521,0-1-0.016-1.44-0.045
			c-0.44-0.031-0.89-0.126-1.35-0.285c-0.48-0.141-0.815-0.32-1.005-0.541c-0.19-0.219-0.326-0.609-0.405-1.17
			c-0.08-0.58-0.15-1.214-0.21-1.904c-0.06-0.69-0.12-1.445-0.18-2.265C275.06,197.06,273.565,197.265,272.075,197.475z
			 M273.545,192.3c0.91-0.1,1.825-0.18,2.745-0.24c-0.041-1.64-0.07-3.274-0.09-4.905c-0.02-1.63-0.01-3.245,0.03-4.845
			c-0.8,1.46-1.665,3.075-2.595,4.845s-1.865,3.605-2.805,5.505C271.73,192.52,272.635,192.4,273.545,192.3z"/>
		<path fill="#494B4D" d="M306.98,184.05c-0.46,1.16-0.97,2.396-1.53,3.705c-0.56,1.31-1.15,2.655-1.77,4.035
			c-0.62,1.38-1.24,2.72-1.86,4.02c-0.62,1.3-1.21,2.52-1.77,3.66c-0.56,1.14-1.06,2.12-1.5,2.94c-0.28,0.479-0.61,0.784-0.99,0.914
			c-0.38,0.131-0.92,0.105-1.62-0.074c-0.7-0.2-1.35-0.4-1.95-0.6c-0.6-0.2-1.23-0.461-1.89-0.781
			c-0.74-0.34-1.305-0.795-1.695-1.364c-0.39-0.57-0.645-1.095-0.765-1.575c-0.7-2.74-1.325-5.825-1.875-9.255
			c-0.55-3.43-1.044-7.195-1.485-11.295c-0.04-0.54,0.005-0.92,0.135-1.14c0.13-0.22,0.495-0.33,1.095-0.33
			c0.58,0,1.115,0.041,1.605,0.12c0.49,0.08,1.005,0.23,1.545,0.45c1.32,0.48,2.07,1.36,2.25,2.64c0.12,0.98,0.255,2.09,0.405,3.33
			c0.15,1.24,0.305,2.55,0.465,3.93c0.16,1.38,0.335,2.815,0.525,4.305c0.19,1.49,0.395,2.965,0.615,4.425
			c1.32-2.9,2.605-5.96,3.855-9.18c1.25-3.22,2.505-6.41,3.765-9.57c0.16-0.36,0.37-0.605,0.63-0.735
			c0.26-0.13,0.555-0.17,0.885-0.12c0.33,0.05,0.68,0.16,1.05,0.33c0.37,0.17,0.745,0.375,1.125,0.615
			c0.4,0.22,0.76,0.445,1.08,0.675c0.319,0.23,0.57,0.485,0.75,0.765c0.18,0.28,0.274,0.59,0.285,0.93
			c0.01,0.34-0.075,0.73-0.255,1.17C307.81,181.87,307.439,182.89,306.98,184.05z"/>
		<path fill="#494B4D" d="M316.084,197.475c-1.49,0.21-2.805,0.465-3.945,0.765c-0.4,0.78-0.75,1.505-1.05,2.175
			c-0.3,0.67-0.59,1.326-0.87,1.965c-0.161,0.34-0.355,0.54-0.585,0.601c-0.23,0.059-0.575,0.01-1.035-0.15
			c-0.26-0.101-0.545-0.215-0.855-0.346c-0.31-0.129-0.625-0.274-0.945-0.435c-0.24-0.159-0.45-0.295-0.63-0.405
			c-0.18-0.109-0.319-0.244-0.42-0.404c-0.1-0.16-0.155-0.365-0.165-0.615c-0.01-0.25,0.045-0.585,0.165-1.005
			c0.48-1.38,1.105-3,1.875-4.86s1.6-3.78,2.49-5.76c0.89-1.98,1.8-3.935,2.73-5.865c0.93-1.93,1.815-3.645,2.655-5.145
			c0.3-0.54,0.69-0.979,1.17-1.32c0.48-0.34,1.19-0.47,2.13-0.39c0.82,0.041,1.549,0.105,2.19,0.195
			c0.64,0.09,1.225,0.195,1.754,0.315c0.53,0.12,1.021,0.25,1.471,0.39c0.45,0.14,0.904,0.27,1.364,0.39
			c0.62,0.22,1.016,0.51,1.186,0.87c0.17,0.36,0.225,0.83,0.165,1.41c-0.12,1.42-0.221,3.05-0.3,4.89
			c-0.08,1.84-0.141,3.76-0.181,5.76s-0.064,4.005-0.074,6.015c-0.011,2.01-0.006,3.875,0.015,5.595c0,0.36-0.075,0.61-0.225,0.75
			c-0.15,0.141-0.485,0.211-1.006,0.211c-0.52,0-1-0.016-1.439-0.045c-0.44-0.031-0.891-0.126-1.351-0.285
			c-0.479-0.141-0.814-0.32-1.005-0.541c-0.19-0.219-0.325-0.609-0.405-1.17c-0.08-0.58-0.15-1.214-0.21-1.904
			c-0.06-0.69-0.12-1.445-0.18-2.265C319.069,197.06,317.574,197.265,316.084,197.475z M317.555,192.3
			c0.91-0.1,1.825-0.18,2.745-0.24c-0.041-1.64-0.07-3.274-0.09-4.905c-0.02-1.63-0.01-3.245,0.03-4.845
			c-0.8,1.46-1.665,3.075-2.595,4.845s-1.865,3.605-2.805,5.505C315.74,192.52,316.644,192.4,317.555,192.3z"/>
		<path fill="#494B4D" d="M341.375,179.7c0.109,0.28,0.095,0.69-0.045,1.23c-0.281,0.9-0.586,1.93-0.915,3.09
			c-0.33,1.16-0.66,2.385-0.99,3.675s-0.655,2.61-0.976,3.96c-0.319,1.35-0.63,2.67-0.93,3.96s-0.575,2.51-0.825,3.66
			c-0.25,1.15-0.465,2.174-0.645,3.075c-0.101,0.34-0.235,0.561-0.405,0.66s-0.515,0.09-1.035-0.029
			c-0.521-0.141-1.015-0.281-1.484-0.421c-0.471-0.14-0.915-0.319-1.335-0.54c-0.46-0.22-0.766-0.475-0.915-0.765
			c-0.15-0.29-0.195-0.695-0.136-1.215c0.041-0.7,0.126-1.605,0.255-2.715c0.131-1.11,0.291-2.325,0.48-3.645
			c0.19-1.32,0.405-2.71,0.645-4.17c0.24-1.459,0.485-2.89,0.735-4.29c0.25-1.399,0.505-2.725,0.765-3.975
			c0.26-1.25,0.5-2.345,0.721-3.285c0.18-0.58,0.425-0.935,0.734-1.065c0.311-0.13,0.775-0.105,1.396,0.075
			c0.619,0.16,1.29,0.4,2.01,0.72s1.351,0.66,1.89,1.02C340.93,179.09,341.265,179.42,341.375,179.7z"/>
		<path fill="#494B4D" d="M352.565,202.035c-1.331,0.25-2.596,0.494-3.796,0.734c-0.439,0.12-0.81,0.189-1.109,0.211
			c-0.3,0.02-0.561,0.004-0.78-0.046c-0.221-0.05-0.405-0.115-0.555-0.194c-0.15-0.08-0.296-0.17-0.436-0.271
			c-0.34-0.22-0.649-0.444-0.93-0.675s-0.649-0.525-1.11-0.885c-0.34-0.28-0.6-0.595-0.779-0.945c-0.181-0.35-0.23-0.775-0.15-1.275
			c0.06-0.78,0.16-1.705,0.3-2.775c0.141-1.069,0.311-2.225,0.51-3.465c0.2-1.24,0.421-2.524,0.66-3.855
			c0.24-1.33,0.5-2.655,0.78-3.975c0.28-1.32,0.564-2.59,0.855-3.81c0.289-1.219,0.574-2.34,0.854-3.36
			c0.2-0.58,0.455-0.925,0.765-1.035c0.311-0.109,0.775-0.075,1.396,0.105c0.619,0.16,1.29,0.385,2.01,0.675
			c0.72,0.29,1.351,0.615,1.891,0.975c0.52,0.38,0.844,0.71,0.975,0.99c0.13,0.28,0.104,0.68-0.075,1.2
			c-0.4,1.2-0.806,2.52-1.215,3.96c-0.41,1.44-0.82,2.92-1.23,4.44c-0.41,1.52-0.8,3.035-1.17,4.545
			c-0.37,1.51-0.715,2.955-1.034,4.335c0.919-0.16,1.779-0.28,2.579-0.36c0.8-0.08,1.67-0.15,2.61-0.21
			c0.56-0.04,0.985-0.005,1.275,0.105c0.289,0.11,0.555,0.355,0.795,0.735c0.24,0.36,0.435,0.725,0.585,1.095
			c0.149,0.37,0.265,0.725,0.345,1.065c0.14,0.42,0.175,0.7,0.105,0.84c-0.07,0.14-0.416,0.27-1.035,0.39
			C355.19,201.539,353.895,201.785,352.565,202.035z"/>
		<path fill="#494B4D" d="M368.195,197.475c-1.49,0.21-2.806,0.465-3.945,0.765c-0.4,0.78-0.75,1.505-1.05,2.175
			c-0.3,0.67-0.591,1.326-0.87,1.965c-0.16,0.34-0.355,0.54-0.585,0.601c-0.23,0.059-0.575,0.01-1.035-0.15
			c-0.26-0.101-0.545-0.215-0.855-0.346c-0.31-0.129-0.624-0.274-0.944-0.435c-0.24-0.159-0.45-0.295-0.63-0.405
			c-0.181-0.109-0.32-0.244-0.42-0.404c-0.101-0.16-0.155-0.365-0.165-0.615s0.045-0.585,0.165-1.005c0.479-1.38,1.104-3,1.875-4.86
			c0.77-1.86,1.6-3.78,2.489-5.76s1.801-3.935,2.73-5.865c0.93-1.93,1.814-3.645,2.655-5.145c0.3-0.54,0.689-0.979,1.17-1.32
			c0.479-0.34,1.189-0.47,2.13-0.39c0.819,0.041,1.55,0.105,2.189,0.195c0.641,0.09,1.226,0.195,1.755,0.315
			c0.53,0.12,1.021,0.25,1.471,0.39c0.45,0.14,0.904,0.27,1.364,0.39c0.62,0.22,1.016,0.51,1.186,0.87
			c0.17,0.36,0.225,0.83,0.165,1.41c-0.12,1.42-0.221,3.05-0.3,4.89c-0.08,1.84-0.141,3.76-0.181,5.76s-0.064,4.005-0.074,6.015
			c-0.011,2.01-0.006,3.875,0.015,5.595c0,0.36-0.075,0.61-0.225,0.75c-0.15,0.141-0.485,0.211-1.006,0.211
			c-0.52,0-1-0.016-1.439-0.045c-0.44-0.031-0.891-0.126-1.351-0.285c-0.479-0.141-0.814-0.32-1.005-0.541
			c-0.19-0.219-0.325-0.609-0.404-1.17c-0.08-0.58-0.15-1.214-0.21-1.904c-0.061-0.69-0.12-1.445-0.181-2.265
			C371.18,197.06,369.685,197.265,368.195,197.475z M369.665,192.3c0.91-0.1,1.825-0.18,2.745-0.24
			c-0.041-1.64-0.07-3.274-0.09-4.905c-0.021-1.63-0.011-3.245,0.029-4.845c-0.8,1.46-1.665,3.075-2.595,4.845
			s-1.865,3.605-2.805,5.505C367.85,192.52,368.755,192.4,369.665,192.3z"/>
		<path fill="#494B4D" d="M399.515,192.72c0.49,0.72,0.815,1.46,0.976,2.22c0.1,0.9-0.021,1.665-0.36,2.295s-0.89,1.245-1.65,1.845
			c-0.52,0.46-1.135,0.9-1.845,1.32s-1.46,0.799-2.25,1.139c-0.79,0.341-1.585,0.646-2.385,0.916c-0.8,0.27-1.56,0.494-2.28,0.675
			c-0.38,0.1-0.705,0.169-0.975,0.21c-0.271,0.039-0.53,0.05-0.78,0.029c-0.25-0.02-0.495-0.07-0.735-0.149
			c-0.239-0.08-0.52-0.21-0.84-0.39c-0.6-0.26-1.125-0.535-1.574-0.825c-0.45-0.29-0.976-0.665-1.575-1.125
			c-0.22-0.24-0.415-0.445-0.585-0.615c-0.17-0.169-0.305-0.35-0.405-0.54c-0.1-0.189-0.17-0.405-0.21-0.645
			c-0.04-0.24-0.04-0.55,0-0.93c0.06-1.24,0.17-2.645,0.33-4.215c0.16-1.57,0.335-3.2,0.524-4.89c0.19-1.69,0.36-3.39,0.511-5.1
			c0.149-1.71,0.244-3.335,0.285-4.875c0.76-0.42,1.64-0.81,2.64-1.17c1-0.36,2.045-0.67,3.135-0.93
			c1.09-0.26,2.194-0.45,3.315-0.57c1.119-0.12,2.185-0.15,3.194-0.09c1.01,0.06,1.936,0.225,2.775,0.495s1.53,0.665,2.07,1.185
			c0.699,0.7,1.284,1.45,1.755,2.25c0.47,0.8,0.814,1.73,1.035,2.79c0.1,0.58,0.095,1.14-0.016,1.68s-0.295,1.06-0.555,1.56
			s-0.58,0.965-0.96,1.395c-0.38,0.431-0.79,0.835-1.23,1.215c-0.479,0.36-0.97,0.725-1.47,1.095c-0.5,0.371-1.09,0.725-1.77,1.065
			C398.39,191.44,399.024,192,399.515,192.72z M388.055,196.305c-0.17,0.77-0.325,1.555-0.465,2.355
			c1.04-0.26,1.99-0.575,2.851-0.945c0.859-0.37,1.59-0.76,2.189-1.17c0.6-0.41,1.045-0.82,1.335-1.23
			c0.29-0.41,0.395-0.785,0.315-1.125c-0.101-0.2-0.301-0.38-0.601-0.54s-0.7-0.27-1.2-0.33s-1.079-0.045-1.739,0.045
			s-1.391,0.265-2.19,0.525C388.39,194.73,388.225,195.535,388.055,196.305z M393.125,187.41c1.01-0.58,1.86-1.165,2.55-1.755
			c0.69-0.59,1.195-1.15,1.516-1.68c0.319-0.529,0.439-0.955,0.359-1.275c-0.08-0.26-0.3-0.455-0.66-0.585
			c-0.359-0.13-0.824-0.18-1.395-0.15c-0.57,0.03-1.226,0.145-1.965,0.345c-0.74,0.2-1.541,0.5-2.4,0.9
			c-0.28,0.86-0.521,1.76-0.72,2.7c-0.2,0.94-0.44,1.94-0.72,3C390.97,188.49,392.115,187.99,393.125,187.41z"/>
		<path fill="#494B4D" d="M414.635,202.035c-1.331,0.25-2.596,0.494-3.796,0.734c-0.439,0.12-0.81,0.189-1.109,0.211
			c-0.3,0.02-0.561,0.004-0.78-0.046c-0.221-0.05-0.405-0.115-0.555-0.194c-0.15-0.08-0.296-0.17-0.436-0.271
			c-0.34-0.22-0.649-0.444-0.93-0.675s-0.649-0.525-1.11-0.885c-0.34-0.28-0.6-0.595-0.779-0.945c-0.181-0.35-0.23-0.775-0.15-1.275
			c0.06-0.78,0.16-1.705,0.3-2.775c0.141-1.069,0.311-2.225,0.51-3.465c0.2-1.24,0.421-2.524,0.66-3.855
			c0.24-1.33,0.5-2.655,0.78-3.975c0.28-1.32,0.564-2.59,0.855-3.81c0.289-1.219,0.574-2.34,0.854-3.36
			c0.2-0.58,0.455-0.925,0.765-1.035c0.311-0.109,0.775-0.075,1.396,0.105c0.619,0.16,1.29,0.385,2.01,0.675
			c0.72,0.29,1.351,0.615,1.891,0.975c0.52,0.38,0.844,0.71,0.975,0.99c0.13,0.28,0.104,0.68-0.075,1.2
			c-0.4,1.2-0.806,2.52-1.215,3.96c-0.41,1.44-0.82,2.92-1.23,4.44c-0.41,1.52-0.8,3.035-1.17,4.545
			c-0.37,1.51-0.715,2.955-1.034,4.335c0.919-0.16,1.779-0.28,2.579-0.36c0.8-0.08,1.67-0.15,2.61-0.21
			c0.56-0.04,0.985-0.005,1.275,0.105c0.289,0.11,0.555,0.355,0.795,0.735c0.24,0.36,0.435,0.725,0.585,1.095
			c0.149,0.37,0.265,0.725,0.345,1.065c0.14,0.42,0.175,0.7,0.105,0.84c-0.07,0.14-0.416,0.27-1.035,0.39
			C417.26,201.539,415.964,201.785,414.635,202.035z"/>
		<path fill="#494B4D" d="M427.084,177.9c1.05-0.24,2.15-0.46,3.3-0.66c1.15-0.2,2.33-0.375,3.54-0.525s2.415-0.245,3.615-0.285
			c1.141-0.02,1.87,0.42,2.19,1.32c0.26,0.48,0.439,0.915,0.54,1.305c0.1,0.39,0.199,0.815,0.3,1.275
			c0.08,0.521,0.04,0.87-0.12,1.05c-0.16,0.18-0.53,0.31-1.11,0.39c-1.199,0.14-2.439,0.28-3.72,0.42
			c-1.28,0.14-2.63,0.31-4.05,0.51c-0.3,0.9-0.58,1.835-0.84,2.805c-0.261,0.97-0.551,1.985-0.87,3.045c0.6-0.08,1.2-0.14,1.8-0.18
			c0.6-0.04,1.24-0.07,1.92-0.09c0.56-0.02,1,0.03,1.32,0.15c0.319,0.12,0.59,0.38,0.81,0.78c0.24,0.4,0.425,0.795,0.556,1.185
			c0.13,0.39,0.244,0.785,0.345,1.185c0.16,0.46,0.175,0.771,0.045,0.93c-0.13,0.16-0.476,0.3-1.035,0.42
			c-1.2,0.22-2.425,0.43-3.675,0.63c-1.25,0.2-2.455,0.42-3.615,0.66c-0.16,0.64-0.311,1.245-0.45,1.815
			c-0.14,0.57-0.29,1.135-0.449,1.695c0.939-0.16,1.834-0.29,2.685-0.39c0.85-0.1,1.774-0.18,2.775-0.24
			c0.56-0.04,0.994,0,1.305,0.12c0.31,0.12,0.574,0.36,0.795,0.72c0.24,0.4,0.425,0.775,0.555,1.125
			c0.13,0.35,0.275,0.705,0.436,1.065c0.1,0.4,0.1,0.675,0,0.825c-0.101,0.151-0.42,0.276-0.96,0.375c-1.28,0.24-2.58,0.49-3.9,0.75
			s-2.58,0.5-3.78,0.72c-0.8,0.2-1.405,0.245-1.814,0.135c-0.41-0.11-0.766-0.265-1.065-0.465c-0.34-0.22-0.665-0.444-0.975-0.675
			c-0.311-0.23-0.675-0.525-1.095-0.885c-0.34-0.28-0.605-0.61-0.795-0.99c-0.19-0.38-0.266-0.84-0.226-1.38l2.851-19.95
			C425.079,178.37,426.034,178.14,427.084,177.9z"/>
	</g>
	<g>
		<g>
			<path fill="#A1E5CF" d="M164.889,167.775c-6.005,2.299-13.834,3.996-21.208-0.678c-4.821-2.997-9.087-8.322-10.114-18.618
				c-2.616-26.999,20.683-53.099,34.477-58.992c6.84-2.878,12.485-3.498,17.033-0.73c3.739,2.206,6.024,5.171,7.316,8.352
				c1.439,3.419,1.484,6.835,0.077,11.011c-1.211,3.524-2.782,8.729-3.846,12.494c-0.289,1.039-1.092,1.995-2.584,0.859
				c-3.066-1.758-5.396-5.227-4.312-11.653c1.084-6.428,5.118-13.872,2.111-16.395c-4.385-3.796-23.924,8.804-34.27,28.072
				c-10.126,18.87-8.078,37.94-2.644,42.15c7.473,5.805,21.353-4.909,27.689-20.786c-3.956,1.106-7.912,2.212-10.906,2.727
				c-6.229,1.179-10.356-1.12-12.593-4.977c-0.738-1.202-0.427-1.989,1.081-2.121c9.792-0.984,19.069-4.962,26.725-5.758
				c6.273-0.676,10.034,1.782,11.997,5.41c0.75,1.327,0.576,2.229-1.081,2.121c-2.41-0.043-5.541,0.357-8.776,1.021
				C185.362,152.813,171.019,165.464,164.889,167.775z"/>
			<path fill="#A1E5CF" d="M202.177,162.38c8.729-0.342,15.642-9.388,19.54-16.695c0.451-0.884,1.289-0.957,1.79-0.05
				c0.492,0.8,0.435,3.761-1.212,6.649c-3.84,6.773-11.483,12.296-19.538,13.106c-13.283,1.374-19.037-11.315-13.411-25.421
				c5.625-14.106,15.832-20.487,21.334-17.908c2.756,1.342,4.779,2.749,6.656,4.906c2.105,2.348,1.826,8.81-2.105,14.537
				c-4.582,6.733-11.361,10.07-19.215,4.742C193.508,156.174,196.598,162.553,202.177,162.38z M208.762,137.532
				c2.967-4.692,4.794-10.339,3.228-11.363c-2.355-1.589-10.498,5.456-14.551,15.836c-0.259,0.656-0.519,1.312-0.682,1.854
				C202.173,146.657,206.073,141.776,208.762,137.532z"/>
			<path fill="#A1E5CF" d="M223.838,118.062c-1.176-1.376-0.611-2.164,0.969-2.196c2.942-0.153,5.856-0.619,8.656-1.18
				c2.743-6.044,5.245-11.224,6.824-13.683c0.824-1.445,1.88-1.431,2.513-0.22c1.409,2.832,1.711,6.288-0.326,11.954
				c4.076-0.463,5.812,1.286,6.769,2.574c0.843,1.192,0.489,1.962-1.083,2.1c-2.332-0.113-5.551,0.486-8.132,1.132
				c-3.471,7.375-8.551,18.057-11.762,27.203c-2.788,7.948-1.067,14.34,3.35,14.165c4.731-0.203,10.051-8.16,13.238-16.354
				c0.518-1.312,1.652-1.623,2.2-0.193c0.67,1.63,0.312,3.561-0.525,6.062c-1.096,3.156-7.202,12.978-15.608,13.396
				c-6.931,0.396-13.16-6.869-9.186-19.354c1.742-5.429,5.371-14.61,9.15-23.279C227.323,120.5,224.777,119.14,223.838,118.062z"/>
			<path fill="#A1E5CF" d="M263.199,144.589c1.949-7.875,7.78-20.838,11.179-26.622c0.832-1.339,1.538-1.718,2.458-0.849
				c1.718,1.539,2.949,5.968,0.895,11.425c-1.797,4.801-5.572,12.308-7.313,17.735c-1.982,6.295-1.415,10.361,1.918,9.859
				c4.695-0.622,9.85-8.039,12.359-15.54c0.441-0.988,1.184-0.947,1.676-0.146c0.984,1.603,0.863,3.829-0.165,6.558
				c-2.574,6.768-8.788,11.744-14.652,12.257C263.594,159.962,261.018,153.434,263.199,144.589z M284.162,115.21
				c-1.233,1.585-4.193,1.528-6.002-1.058c-1.923-2.682-1.674-5.868-0.154-7.796c1.52-1.927,4.667-0.936,6.276,1.773
				C285.882,110.733,285.395,113.625,284.162,115.21z"/>
			<path fill="#A1E5CF" d="M313.696,112.626c3.502,0.221,7.197,5.069,5.056,10.744c-1.796,4.801-6.25,13-8.183,18.657
				c-2.191,6.312-1.132,11.181,2.62,10.641c4.275-0.584,8.803-7.946,12.142-15.626c0.44-0.988,1.174-1.052,1.771-0.26
				c0.835,1.087,0.836,3.516-0.365,6.681c-2.314,6.112-8.445,12.031-14.52,12.562c-8.902,0.779-11.565-5.531-9.325-14.909
				c2.559-10.566,10.804-22.474,8.845-23.147c-1.084-0.328-6.902,3.137-12.963,11.055c-5.593,7.243-9.321,17.701-12.963,27.938
				c-0.337,0.98-0.929,1.454-1.954,0.594c-2.278-1.911-3.209-5.312-1.992-10.696c1.518-6.781,8.309-22.044,14.054-32.362
				c0.633-1.216,1.479-1.185,2.2-0.192c1.8,2.481,2.007,6.05,1.185,9.922C303.576,118.789,310.193,112.404,313.696,112.626z"/>
			<path fill="#A1E5CF" d="M340.503,107.854c-1.176-1.376-0.611-2.164,0.969-2.195c2.941-0.153,5.856-0.619,8.656-1.181
				c2.742-6.044,5.244-11.223,6.823-13.683c0.824-1.445,1.88-1.431,2.514-0.22c1.409,2.832,1.711,6.288-0.326,11.954
				c4.075-0.463,5.812,1.285,6.769,2.573c0.843,1.193,0.488,1.963-1.083,2.1c-2.332-0.113-5.551,0.486-8.133,1.133
				c-3.471,7.375-8.551,18.056-11.762,27.203c-2.787,7.948-1.066,14.34,3.351,14.164c4.731-0.202,10.05-8.16,13.238-16.354
				c0.519-1.312,1.652-1.623,2.199-0.192c0.67,1.63,0.312,3.561-0.524,6.061c-1.097,3.156-7.203,12.978-15.608,13.396
				c-6.931,0.396-13.16-6.869-9.187-19.353c1.742-5.429,5.371-14.611,9.15-23.279C343.987,110.293,341.441,108.933,340.503,107.854z
				"/>
			<path fill="#A1E5CF" d="M427.723,145.814c-6.809,0.595-9.793-3.365-9.486-9.513c-3.244,5.138-8.1,11.156-14.115,11.155
				c-7.491,0.022-8.37-7.604-6.671-14.719c0.609-2.691,1.696-5.953,3.192-9.355c-2.813,1.617-5.986,2.74-9.261,2.709
				c-1.639,9.008-7.12,19.936-14.337,23.101c-3.766,1.595-9.144,1.643-13.704-3.445c-5.149-5.777-4.366-14.921-0.491-23.703
				c3.348-7.575,9.328-14.008,15.575-14.977c3.124-0.484,4.987,0.303,7.434,2.938c2.788,2.92,5.776,3.293,5.93,11.09
				c0.056,0.628,0.006,1.266-0.025,2.113c5.96-0.627,11.29-6.054,14.347-12.126c0.901-1.767,2.375-4.219,3.477-6.109
				c0.737-1.225,1.688-1.203,2.609-0.333c2.606,3.253,2.467,7.699-0.763,14.208c-3.229,6.508-5.271,10.909-6.831,16.004
				c-1.646,5.316-1.011,8.955,1.312,8.962c4.112-0.044,9.354-7.679,14.108-17.276c5.567-11.146,7.973-18.637,10.825-23.426
				c0.823-1.443,1.643-1.726,2.562-0.857c1.736,1.747,2.969,6.178,0.913,11.634c-1.892,4.915-6.355,13.01-8.287,18.667
				c-2.191,6.312-1.397,10.569,2.355,10.03c4.275-0.585,9.117-7.973,12.455-15.654c0.441-0.988,1.27-1.167,1.876-0.269
				c0.606,0.896,0.845,3.619-0.374,6.576C439.832,139.478,433.902,145.273,427.723,145.814z M376.799,115.021
				c-2.521,2.542-5.352,6.378-7.299,10.664c-3.711,8.242-4.344,17.899-1.41,20.07c2.935,2.171,9.098-2.167,13.501-12.156
				c1.409-3.184,2.21-6.104,2.923-8.804C380.778,123.115,377.175,119.315,376.799,115.021z M381.949,114.781
				c-0.066,2.855,1,5.399,3.032,6.911c0.572-3.11,0.447-5.738,0.082-7.5C384.352,110.877,382.007,111.821,381.949,114.781z"/>
			<path fill="#A1E5CF" d="M468.417,105.528c2.585,4.206-1.119,10.123-2.719,15.963c-0.31,1.292-0.7,1.644-2.126,1.03
				c-2.624-1.037-4.365-4.051-3.311-8.893c0.822-3.872,3.569-8.649,2.003-9.673c-1.909-1.311-9.178,6.08-13.057,16.023
				c-4.725,12.338-1.765,20.839,4.423,20.403c8.808-0.665,15.615-9.703,19.332-16.677c0.45-0.884,1.383-1.07,1.895-0.059
				c0.388,0.809,0.197,3.465-1.336,6.448c-3.439,6.528-11.264,12.384-19.215,13.185c-13.283,1.374-18.922-11.22-13.297-25.326
				c5.549-13.783,15.632-20.364,21.144-17.679C465.128,101.699,466.95,103.229,468.417,105.528z"/>
			<path fill="#A1E5CF" d="M498.826,139.487c-8.798,0.77-11.556-5.427-9.212-14.813c2.567-10.461,10.727-22.151,8.969-22.946
				c-1.54-0.711-12.332,7.41-17.537,17.891c-3.229,6.51-6.463,14.18-8.417,20.788c-0.337,0.98-1.052,1.253-1.744,0.576
				c-1.841-1.739-3.04-4.59-1.391-11.066c2.749-10.794,21.309-49.566,28.866-60.886c0.833-1.339,1.89-1.327,2.523-0.116
				c1.627,2.918,1.771,8.183-1.632,15.129c-2.146,4.409-6.956,13.377-10.845,20.789c3.927-4.565,9.071-8.498,11.926-8.431
				c3.598,0.107,7.303,5.061,5.047,10.64c-1.901,4.81-6.26,12.895-8.191,18.551c-2.087,6.304-1.133,11.18,2.724,10.632
				c4.276-0.584,9.377-8.63,12.037-15.617c0.336-0.98,1.384-1.072,1.876-0.27c0.624,1.106,0.816,3.306-0.479,6.584
				C510.936,133.151,505.006,138.947,498.826,139.487z"/>
		</g>
		<g opacity="0.9">
			<path fill="#FFFBCC" d="M162.889,165.775c-6.005,2.299-13.834,3.996-21.208-0.678c-4.821-2.997-9.087-8.322-10.114-18.618
				c-2.616-26.999,20.683-53.099,34.477-58.992c6.84-2.878,12.485-3.498,17.033-0.73c3.739,2.206,6.024,5.171,7.316,8.352
				c1.439,3.419,1.484,6.835,0.077,11.011c-1.211,3.524-2.782,8.729-3.846,12.494c-0.289,1.039-1.092,1.995-2.584,0.859
				c-3.066-1.758-5.396-5.227-4.312-11.653c1.084-6.428,5.118-13.872,2.111-16.395c-4.385-3.796-23.924,8.804-34.27,28.072
				c-10.126,18.87-8.078,37.94-2.644,42.15c7.473,5.805,21.353-4.909,27.689-20.786c-3.956,1.106-7.912,2.212-10.906,2.727
				c-6.229,1.179-10.356-1.12-12.593-4.977c-0.738-1.202-0.427-1.989,1.081-2.121c9.792-0.984,19.069-4.962,26.725-5.758
				c6.273-0.676,10.034,1.782,11.997,5.41c0.75,1.327,0.576,2.229-1.081,2.121c-2.41-0.043-5.541,0.357-8.776,1.021
				C183.362,150.813,169.019,163.464,162.889,165.775z"/>
			<path fill="#FFFBCC" d="M200.177,160.38c8.729-0.342,15.642-9.388,19.54-16.695c0.451-0.884,1.289-0.957,1.79-0.05
				c0.492,0.8,0.435,3.761-1.212,6.649c-3.84,6.773-11.483,12.296-19.538,13.106c-13.283,1.374-19.037-11.315-13.411-25.421
				c5.625-14.106,15.832-20.487,21.334-17.908c2.756,1.342,4.779,2.749,6.656,4.906c2.105,2.348,1.826,8.81-2.105,14.537
				c-4.582,6.733-11.361,10.07-19.215,4.742C191.508,154.174,194.598,160.553,200.177,160.38z M206.762,135.532
				c2.967-4.692,4.794-10.339,3.228-11.363c-2.355-1.589-10.498,5.456-14.551,15.836c-0.259,0.656-0.519,1.312-0.682,1.854
				C200.173,144.657,204.073,139.776,206.762,135.532z"/>
			<path fill="#FFFBCC" d="M221.838,116.062c-1.176-1.376-0.611-2.164,0.969-2.196c2.942-0.153,5.856-0.619,8.656-1.18
				c2.743-6.044,5.245-11.224,6.824-13.683c0.824-1.445,1.88-1.431,2.513-0.22c1.409,2.832,1.711,6.288-0.326,11.954
				c4.076-0.463,5.812,1.286,6.769,2.574c0.843,1.192,0.489,1.962-1.083,2.1c-2.332-0.113-5.551,0.486-8.132,1.132
				c-3.471,7.375-8.551,18.057-11.762,27.203c-2.788,7.948-1.067,14.34,3.35,14.165c4.731-0.203,10.051-8.16,13.238-16.354
				c0.518-1.312,1.652-1.623,2.2-0.193c0.67,1.63,0.312,3.561-0.525,6.062c-1.096,3.156-7.202,12.978-15.608,13.396
				c-6.931,0.396-13.16-6.869-9.186-19.354c1.742-5.429,5.371-14.61,9.15-23.279C225.323,118.5,222.777,117.14,221.838,116.062z"/>
			<path fill="#FFFBCC" d="M261.199,142.589c1.949-7.875,7.78-20.838,11.179-26.622c0.832-1.339,1.538-1.718,2.458-0.849
				c1.718,1.539,2.949,5.968,0.895,11.425c-1.797,4.801-5.572,12.308-7.313,17.735c-1.982,6.295-1.415,10.361,1.918,9.859
				c4.695-0.622,9.85-8.039,12.359-15.54c0.441-0.988,1.184-0.947,1.676-0.146c0.984,1.603,0.863,3.829-0.165,6.558
				c-2.574,6.768-8.788,11.744-14.652,12.257C261.594,157.962,259.018,151.434,261.199,142.589z M282.162,113.21
				c-1.233,1.585-4.193,1.528-6.002-1.058c-1.923-2.682-1.674-5.868-0.154-7.796c1.52-1.927,4.667-0.936,6.276,1.773
				C283.882,108.733,283.395,111.625,282.162,113.21z"/>
			<path fill="#FFFBCC" d="M311.696,110.626c3.502,0.221,7.197,5.069,5.056,10.744c-1.796,4.801-6.25,13-8.183,18.657
				c-2.191,6.312-1.132,11.181,2.62,10.641c4.275-0.584,8.803-7.946,12.142-15.626c0.44-0.988,1.174-1.052,1.771-0.26
				c0.835,1.087,0.836,3.516-0.365,6.681c-2.314,6.112-8.445,12.031-14.52,12.562c-8.902,0.779-11.565-5.531-9.325-14.909
				c2.559-10.566,10.804-22.474,8.845-23.147c-1.084-0.328-6.902,3.137-12.963,11.055c-5.593,7.243-9.321,17.701-12.963,27.938
				c-0.337,0.98-0.929,1.454-1.954,0.594c-2.278-1.911-3.209-5.312-1.992-10.696c1.518-6.781,8.309-22.044,14.054-32.362
				c0.633-1.216,1.479-1.185,2.2-0.192c1.8,2.481,2.007,6.05,1.185,9.922C301.576,116.789,308.193,110.404,311.696,110.626z"/>
			<path fill="#FFFBCC" d="M338.503,105.854c-1.176-1.376-0.611-2.164,0.969-2.195c2.941-0.153,5.856-0.619,8.656-1.181
				c2.742-6.044,5.244-11.223,6.823-13.683c0.824-1.445,1.88-1.431,2.514-0.22c1.409,2.832,1.711,6.288-0.326,11.954
				c4.075-0.463,5.812,1.285,6.769,2.573c0.843,1.193,0.488,1.963-1.083,2.1c-2.332-0.113-5.551,0.486-8.133,1.133
				c-3.471,7.375-8.551,18.056-11.762,27.203c-2.787,7.948-1.066,14.34,3.351,14.164c4.731-0.202,10.05-8.16,13.238-16.354
				c0.519-1.312,1.652-1.623,2.199-0.192c0.67,1.63,0.312,3.561-0.524,6.061c-1.097,3.156-7.203,12.978-15.608,13.396
				c-6.931,0.396-13.16-6.869-9.187-19.353c1.742-5.429,5.371-14.611,9.15-23.279C341.987,108.293,339.441,106.933,338.503,105.854z
				"/>
			<path fill="#FFFBCC" d="M425.723,143.814c-6.809,0.595-9.793-3.365-9.486-9.513c-3.244,5.138-8.1,11.156-14.115,11.155
				c-7.491,0.022-8.37-7.604-6.671-14.719c0.609-2.691,1.696-5.953,3.192-9.355c-2.813,1.617-5.986,2.74-9.261,2.709
				c-1.639,9.008-7.12,19.936-14.337,23.101c-3.766,1.595-9.144,1.643-13.704-3.445c-5.149-5.777-4.366-14.921-0.491-23.703
				c3.348-7.575,9.328-14.008,15.575-14.977c3.124-0.484,4.987,0.303,7.434,2.938c2.788,2.92,5.776,3.293,5.93,11.09
				c0.056,0.628,0.006,1.266-0.025,2.113c5.96-0.627,11.29-6.054,14.347-12.126c0.901-1.767,2.375-4.219,3.477-6.109
				c0.737-1.225,1.688-1.203,2.609-0.333c2.606,3.253,2.467,7.699-0.763,14.208c-3.229,6.508-5.271,10.909-6.831,16.004
				c-1.646,5.316-1.011,8.955,1.312,8.962c4.112-0.044,9.354-7.679,14.108-17.276c5.567-11.146,7.973-18.637,10.825-23.426
				c0.823-1.443,1.643-1.726,2.562-0.857c1.736,1.747,2.969,6.178,0.913,11.634c-1.892,4.915-6.355,13.01-8.287,18.667
				c-2.191,6.312-1.397,10.569,2.355,10.03c4.275-0.585,9.117-7.973,12.455-15.654c0.441-0.988,1.27-1.167,1.876-0.269
				c0.606,0.896,0.845,3.619-0.374,6.576C437.832,137.478,431.902,143.273,425.723,143.814z M374.799,113.021
				c-2.521,2.542-5.352,6.378-7.299,10.664c-3.711,8.242-4.344,17.899-1.41,20.07c2.935,2.171,9.098-2.167,13.501-12.156
				c1.409-3.184,2.21-6.104,2.923-8.804C378.778,121.115,375.175,117.315,374.799,113.021z M379.949,112.781
				c-0.066,2.855,1,5.399,3.032,6.911c0.572-3.11,0.447-5.738,0.082-7.5C382.352,108.877,380.007,109.821,379.949,112.781z"/>
			<path fill="#FFFBCC" d="M466.417,103.528c2.585,4.206-1.119,10.123-2.719,15.963c-0.31,1.292-0.7,1.644-2.126,1.03
				c-2.624-1.037-4.365-4.051-3.311-8.893c0.822-3.872,3.569-8.649,2.003-9.673c-1.909-1.311-9.178,6.08-13.057,16.023
				c-4.725,12.338-1.765,20.839,4.423,20.403c8.808-0.665,15.615-9.703,19.332-16.677c0.45-0.884,1.383-1.07,1.895-0.059
				c0.388,0.809,0.197,3.465-1.336,6.448c-3.439,6.528-11.264,12.384-19.215,13.185c-13.283,1.374-18.922-11.22-13.297-25.326
				c5.549-13.783,15.632-20.364,21.144-17.679C463.128,99.699,464.95,101.229,466.417,103.528z"/>
			<path fill="#FFFBCC" d="M496.826,137.487c-8.798,0.77-11.556-5.427-9.212-14.813c2.567-10.461,10.727-22.151,8.969-22.946
				c-1.54-0.711-12.332,7.41-17.537,17.891c-3.229,6.51-6.463,14.18-8.417,20.788c-0.337,0.98-1.052,1.253-1.744,0.576
				c-1.841-1.739-3.04-4.59-1.391-11.066c2.749-10.794,21.309-49.566,28.866-60.886c0.833-1.339,1.89-1.327,2.523-0.116
				c1.627,2.918,1.771,8.183-1.632,15.129c-2.146,4.409-6.956,13.377-10.845,20.789c3.927-4.565,9.071-8.498,11.926-8.431
				c3.598,0.107,7.303,5.061,5.047,10.64c-1.901,4.81-6.26,12.895-8.191,18.551c-2.087,6.304-1.133,11.18,2.724,10.632
				c4.276-0.584,9.377-8.63,12.037-15.617c0.336-0.98,1.384-1.072,1.876-0.27c0.624,1.106,0.816,3.306-0.479,6.584
				C508.936,131.151,503.006,136.947,496.826,137.487z"/>
		</g>
		<g>
			<g>
				<path fill="#39809E" d="M161.889,164.775c-6.005,2.299-13.834,3.996-21.208-0.678c-4.821-2.997-9.087-8.322-10.114-18.618
					c-2.616-26.999,20.683-53.099,34.477-58.992c6.84-2.878,12.485-3.498,17.033-0.73c3.739,2.206,6.024,5.171,7.316,8.352
					c1.439,3.419,1.484,6.835,0.077,11.011c-1.211,3.524-2.782,8.729-3.846,12.494c-0.289,1.039-1.092,1.995-2.584,0.859
					c-3.066-1.758-5.396-5.227-4.312-11.653c1.084-6.428,5.118-13.872,2.111-16.395c-4.385-3.796-23.924,8.804-34.27,28.072
					c-10.126,18.87-8.078,37.94-2.644,42.15c7.473,5.805,21.353-4.909,27.689-20.786c-3.956,1.106-7.912,2.212-10.906,2.727
					c-6.229,1.179-10.356-1.12-12.593-4.977c-0.738-1.202-0.427-1.989,1.081-2.121c9.792-0.984,19.069-4.962,26.725-5.758
					c6.273-0.676,10.034,1.782,11.997,5.41c0.75,1.327,0.576,2.229-1.081,2.121c-2.41-0.043-5.541,0.357-8.776,1.021
					C182.362,149.813,168.019,162.464,161.889,164.775z"/>
				<path fill="#39809E" d="M199.177,159.38c8.729-0.342,15.642-9.388,19.54-16.695c0.451-0.884,1.289-0.957,1.79-0.05
					c0.492,0.8,0.435,3.761-1.212,6.649c-3.84,6.773-11.483,12.296-19.538,13.106c-13.283,1.374-19.037-11.315-13.411-25.421
					c5.625-14.106,15.832-20.487,21.334-17.908c2.756,1.342,4.779,2.749,6.656,4.906c2.105,2.348,1.826,8.81-2.105,14.537
					c-4.582,6.733-11.361,10.07-19.215,4.742C190.508,153.174,193.598,159.553,199.177,159.38z M205.762,134.532
					c2.967-4.692,4.794-10.339,3.228-11.363c-2.355-1.589-10.498,5.456-14.551,15.836c-0.259,0.656-0.519,1.312-0.682,1.854
					C199.173,143.657,203.073,138.776,205.762,134.532z"/>
				<path fill="#39809E" d="M220.838,115.062c-1.176-1.376-0.611-2.164,0.969-2.196c2.942-0.153,5.856-0.619,8.656-1.18
					c2.743-6.044,5.245-11.224,6.824-13.683c0.824-1.445,1.88-1.431,2.513-0.22c1.409,2.832,1.711,6.288-0.326,11.954
					c4.076-0.463,5.812,1.286,6.769,2.574c0.843,1.192,0.489,1.962-1.083,2.1c-2.332-0.113-5.551,0.486-8.132,1.132
					c-3.471,7.375-8.551,18.057-11.762,27.203c-2.788,7.948-1.067,14.34,3.35,14.165c4.731-0.203,10.051-8.16,13.238-16.354
					c0.518-1.312,1.652-1.623,2.2-0.193c0.67,1.63,0.312,3.561-0.525,6.062c-1.096,3.156-7.202,12.978-15.608,13.396
					c-6.931,0.396-13.16-6.869-9.186-19.354c1.742-5.429,5.371-14.61,9.15-23.279C224.323,117.5,221.777,116.14,220.838,115.062z"/>
				<path fill="#39809E" d="M260.199,141.589c1.949-7.875,7.78-20.838,11.179-26.622c0.832-1.339,1.538-1.718,2.458-0.849
					c1.718,1.539,2.949,5.968,0.895,11.425c-1.797,4.801-5.572,12.308-7.313,17.735c-1.982,6.295-1.415,10.361,1.918,9.859
					c4.695-0.622,9.85-8.039,12.359-15.54c0.441-0.988,1.184-0.947,1.676-0.146c0.984,1.603,0.863,3.829-0.165,6.558
					c-2.574,6.768-8.788,11.744-14.652,12.257C260.594,156.962,258.018,150.434,260.199,141.589z M281.162,112.21
					c-1.233,1.585-4.193,1.528-6.002-1.058c-1.923-2.682-1.674-5.868-0.154-7.796c1.52-1.927,4.667-0.936,6.276,1.773
					C282.882,107.733,282.395,110.625,281.162,112.21z"/>
				<path fill="#39809E" d="M310.696,109.626c3.502,0.221,7.197,5.069,5.056,10.744c-1.796,4.801-6.25,13-8.183,18.657
					c-2.191,6.312-1.132,11.181,2.62,10.641c4.275-0.584,8.803-7.946,12.142-15.626c0.44-0.988,1.174-1.052,1.771-0.26
					c0.835,1.087,0.836,3.516-0.365,6.681c-2.314,6.112-8.445,12.031-14.52,12.562c-8.902,0.779-11.565-5.531-9.325-14.909
					c2.559-10.566,10.804-22.474,8.845-23.147c-1.084-0.328-6.902,3.137-12.963,11.055c-5.593,7.243-9.321,17.701-12.963,27.938
					c-0.337,0.98-0.929,1.454-1.954,0.594c-2.278-1.911-3.209-5.312-1.992-10.696c1.518-6.781,8.309-22.044,14.054-32.362
					c0.633-1.216,1.479-1.185,2.2-0.192c1.8,2.481,2.007,6.05,1.185,9.922C300.576,115.789,307.193,109.404,310.696,109.626z"/>
				<path fill="#39809E" d="M337.503,104.854c-1.176-1.376-0.611-2.164,0.969-2.195c2.941-0.153,5.856-0.619,8.656-1.181
					c2.742-6.044,5.244-11.223,6.823-13.683c0.824-1.445,1.88-1.431,2.514-0.22c1.409,2.832,1.711,6.288-0.326,11.954
					c4.075-0.463,5.812,1.285,6.769,2.573c0.843,1.193,0.488,1.963-1.083,2.1c-2.332-0.113-5.551,0.486-8.133,1.133
					c-3.471,7.375-8.551,18.056-11.762,27.203c-2.787,7.948-1.066,14.34,3.351,14.164c4.731-0.202,10.05-8.16,13.238-16.354
					c0.519-1.312,1.652-1.623,2.199-0.192c0.67,1.63,0.312,3.561-0.524,6.061c-1.097,3.156-7.203,12.978-15.608,13.396
					c-6.931,0.396-13.16-6.869-9.187-19.353c1.742-5.429,5.371-14.611,9.15-23.279C340.987,107.293,338.441,105.933,337.503,104.854
					z"/>
				<path fill="#39809E" d="M424.723,142.814c-6.809,0.595-9.793-3.365-9.486-9.513c-3.244,5.138-8.1,11.156-14.115,11.155
					c-7.491,0.022-8.37-7.604-6.671-14.719c0.609-2.691,1.696-5.953,3.192-9.355c-2.813,1.617-5.986,2.74-9.261,2.709
					c-1.639,9.008-7.12,19.936-14.337,23.101c-3.766,1.595-9.144,1.643-13.704-3.445c-5.149-5.777-4.366-14.921-0.491-23.703
					c3.348-7.575,9.328-14.008,15.575-14.977c3.124-0.484,4.987,0.303,7.434,2.938c2.788,2.92,5.776,3.293,5.93,11.09
					c0.056,0.628,0.006,1.266-0.025,2.113c5.96-0.627,11.29-6.054,14.347-12.126c0.901-1.767,2.375-4.219,3.477-6.109
					c0.737-1.225,1.688-1.203,2.609-0.333c2.606,3.253,2.467,7.699-0.763,14.208c-3.229,6.508-5.271,10.909-6.831,16.004
					c-1.646,5.316-1.011,8.955,1.312,8.962c4.112-0.044,9.354-7.679,14.108-17.276c5.567-11.146,7.973-18.637,10.825-23.426
					c0.823-1.443,1.643-1.726,2.562-0.857c1.736,1.747,2.969,6.178,0.913,11.634c-1.892,4.915-6.355,13.01-8.287,18.667
					c-2.191,6.312-1.397,10.569,2.355,10.03c4.275-0.585,9.117-7.973,12.455-15.654c0.441-0.988,1.27-1.167,1.876-0.269
					c0.606,0.896,0.845,3.619-0.374,6.576C436.832,136.478,430.902,142.273,424.723,142.814z M373.799,112.021
					c-2.521,2.542-5.352,6.378-7.299,10.664c-3.711,8.242-4.344,17.899-1.41,20.07c2.935,2.171,9.098-2.167,13.501-12.156
					c1.409-3.184,2.21-6.104,2.923-8.804C377.778,120.115,374.175,116.315,373.799,112.021z M378.949,111.781
					c-0.066,2.855,1,5.399,3.032,6.911c0.572-3.11,0.447-5.738,0.082-7.5C381.352,107.877,379.007,108.821,378.949,111.781z"/>
				<path fill="#39809E" d="M465.417,102.528c2.585,4.206-1.119,10.123-2.719,15.963c-0.31,1.292-0.7,1.644-2.126,1.03
					c-2.624-1.037-4.365-4.051-3.311-8.893c0.822-3.872,3.569-8.649,2.003-9.673c-1.909-1.311-9.178,6.08-13.057,16.023
					c-4.725,12.338-1.765,20.839,4.423,20.403c8.808-0.665,15.615-9.703,19.332-16.677c0.45-0.884,1.383-1.07,1.895-0.059
					c0.388,0.809,0.197,3.465-1.336,6.448c-3.439,6.528-11.264,12.384-19.215,13.185c-13.283,1.374-18.922-11.22-13.297-25.326
					c5.549-13.783,15.632-20.364,21.144-17.679C462.128,98.699,463.95,100.229,465.417,102.528z"/>
				<path fill="#39809E" d="M495.826,136.487c-8.798,0.77-11.556-5.427-9.212-14.813c2.567-10.461,10.727-22.151,8.969-22.946
					c-1.54-0.711-12.332,7.41-17.537,17.891c-3.229,6.51-6.463,14.18-8.417,20.788c-0.337,0.98-1.052,1.253-1.744,0.576
					c-1.841-1.739-3.04-4.59-1.391-11.066c2.749-10.794,21.309-49.566,28.866-60.886c0.833-1.339,1.89-1.327,2.523-0.116
					c1.627,2.918,1.771,8.183-1.632,15.129c-2.146,4.409-6.956,13.377-10.845,20.789c3.927-4.565,9.071-8.498,11.926-8.431
					c3.598,0.107,7.303,5.061,5.047,10.64c-1.901,4.81-6.26,12.895-8.191,18.551c-2.087,6.304-1.133,11.18,2.724,10.632
					c4.276-0.584,9.377-8.63,12.037-15.617c0.336-0.98,1.384-1.072,1.876-0.27c0.624,1.106,0.816,3.306-0.479,6.584
					C507.936,130.151,502.006,135.947,495.826,136.487z"/>
			</g>
		</g>
	</g>
</g>
</svg>
