<?xml version="1.0" encoding="utf-8"?>
<!-- Generator: Adobe Illustrator 16.0.0, SVG Export Plug-In . SVG Version: 6.00 Build 0)  -->
<!DOCTYPE svg PUBLIC "-//W3C//DTD SVG 1.1//EN" "http://www.w3.org/Graphics/SVG/1.1/DTD/svg11.dtd">
<svg version="1.1" id="Layer_1" xmlns="http://www.w3.org/2000/svg" xmlns:xlink="http://www.w3.org/1999/xlink" x="0px" y="0px"
	 width="28px" height="28px" viewBox="0 0 28 28" enable-background="new 0 0 28 28" xml:space="preserve">
<path d="M14.758,15.998l-1.313-1.021c-0.4-0.332-0.947-0.771-0.947-1.572c0-0.805,0.547-1.317,1.021-1.791
	c1.53-1.205,3.062-2.487,3.062-5.189c0-2.779-1.749-4.241-2.587-4.935h2.26L18.624,0h-7.185C9.467,0,6.626,0.466,4.545,2.184
	C2.979,3.536,2.214,5.4,2.214,7.08c0,2.837,2.178,5.74,6.037,5.74c0.365,0,0.764-0.036,1.166-0.073
	c-0.181,0.439-0.363,0.806-0.363,1.426c0,1.121,0.594,1.814,1.089,2.476c-1.642,0.111-4.707,0.295-6.966,1.684
	c-2.152,1.279-2.808,3.143-2.808,4.457c0,2.705,2.54,5.211,7.852,5.211c6.271,0,9.591-3.471,9.591-6.904
	c0.01-2.506-1.463-3.76-3.047-5.098H14.758L14.758,15.998z M9.981,11.792c-3.138,0-4.559-4.056-4.559-6.503
	c0-0.953,0.181-1.937,0.801-2.705c0.585-0.731,1.604-1.207,2.555-1.207c3.025,0,4.586,4.092,4.586,6.725
	c0,0.658-0.072,1.826-0.911,2.669c-0.579,0.593-1.548,1.021-2.472,1.023V11.792z M10.018,26.508c-3.901,0-6.417-1.867-6.417-4.463
	c0-2.594,2.332-3.473,3.135-3.762c1.531-0.516,3.501-0.588,3.829-0.588c0.365,0,0.561,0,0.825,0.037
	c2.773,1.979,3.992,2.969,3.992,4.826c-0.002,2.232-1.87,3.947-5.367,3.932L10.018,26.508z"/>
<polygon points="23.971,11.728 23.971,8.098 22.154,8.098 22.154,11.728 18.525,11.728 18.525,13.574 22.154,13.574 22.154,17.236 
	23.971,17.236 23.971,13.574 27.631,13.574 27.631,11.728 "/>
</svg>
