<svg id="Layer_1" xmlns="http://www.w3.org/2000/svg" width="600" height="600" viewBox="-164 -190 600 600">
    <style>
        .st0{enable-background:new}.st0,.st1{opacity:.5;fill:#fffbcc}
    </style>
    <path class="st0" d="M339.7 127.9l4.9-47.6 4.9 47.6 21.6-19.1-19.1 22.9 30.1 3.6-30.1 3.6 19.1 22.9-21.6-19.1-4.9 47.6-4.9-47.6-21.6 19.1 19.1-22.9-30.1-3.6 30.1-3.6-19.1-22.9zM-29-128.2l1.4-21.5 1.4 21.5 16.3-14.2-14.2 16.3 21.5 1.4-21.5 1.4L-9.9-107l-16.3-14.2-1.4 21.5-1.4-21.5-16.3 14.2 14.2-16.3-21.5-1.4 21.5-1.4-14.2-16.3zM90.5 89.9l1.4-21.5 1.4 21.5 16.3-14.2L95.4 92l21.5 1.4-21.5 1.4 14.2 16.3-16.3-14.2-1.4 21.5-1.4-21.5-16.3 14.2 14.2-16.3-21.5-1.4L88.4 92 74.2 75.7l16.3 14.2zM-8.4 259.6l4.9-47.6 4.9 47.6L23 240.5 3.9 263.4 34 267l-30.1 3.6L23 293.5 1.4 274.4-3.5 322l-4.9-47.6-21.6 19.1 19.1-22.9L-41 267l30.1-3.6-19.1-22.9z"/>
    <path class="st1" d="M-95.7 5.3l-42.6-2.4L-95.7.6l2.4-58.4L-90.9.6l42.6 2.3-42.6 2.4-2.4 26.9z"/>
    <path class="st0" d="M270.2-82.7l1.4-21.5 1.4 21.5 16.3-14.2-14.2 16.3 21.5 1.4-21.5 1.4 14.2 16.3L273-75.7l-1.4 21.5-1.4-21.5-16.3 14.2 14.2-16.3-21.5-1.4 21.5-1.4-14.2-16.3zM203.7 304.8l1.4-21.5 1.4 21.5 16.3-14.2-14.2 16.3 21.5 1.4-21.5 1.4 14.2 16.3-16.3-14.2-1.4 21.5-1.4-21.5-16.3 14.2 14.2-16.3-21.5-1.4 21.5-1.4-14.2-16.3z"/>
</svg>
