<svg id="Layer_1" xmlns="http://www.w3.org/2000/svg" width="500" height="520" viewBox="0 0 500 520">
    <style>
        .st0{opacity:.3;stroke:#fff;stroke-width:32}.st0,.st1{fill:#fffbcc;stroke-linecap:round;stroke-linejoin:round;stroke-miterlimit:10}.st1{stroke:#fffbcc;stroke-width:20}
    </style>
    <path class="st0" d="M253.4 450.2l64 20.6L472.1 64.2 451.6 94l26.8-79.8-119.5 149.4-85.3 99.9-24.7-24.7-7.3 5.2-220-227.4 74.8 227.9-33.8 8.3-35 170.7 10.3-21.2 44.2-108.5 97 209.2 4.8-3.2 5 6z"/>
    <path class="st1" d="M253.4 450.2l64 20.6L472.1 64.2 451.6 94l26.8-79.8-119.5 149.4-85.3 99.9-24.7-24.7-7.3 5.2-220-227.4 74.8 227.9-33.8 8.3-35 170.7 10.3-21.2 44.2-108.5 97 209.2 4.8-3.2 5 6z"/>
</svg>
