<svg id="Layer_1" xmlns="http://www.w3.org/2000/svg" width="300" height="300" viewBox="0 0 300 300">
    <style>
        .st0{opacity:.5;fill:#fffbcc}
    </style>
    <path class="st0" d="M55.1 142.6L60 95l4.9 47.6 21.6-19.1-19.1 22.9 30.1 3.6-30.1 3.6 19.1 22.9-21.6-19.1L60 205l-4.9-47.6-21.6 19.1 19.1-22.9-30.1-3.6 30.1-3.6-19.1-22.9zM258.6 221.5L260 200l1.4 21.5 16.3-14.2-14.2 16.3L285 225l-21.5 1.4 14.2 16.3-16.3-14.2L260 250l-1.4-21.5-16.3 14.2 14.2-16.3L235 225l21.5-1.4-14.2-16.3zM168.6 71.5L170 50l1.4 21.5 16.3-14.2-14.2 16.3L195 75l-21.5 1.4 14.2 16.3-16.3-14.2L170 100l-1.4-21.5-16.3 14.2 14.2-16.3L145 75l21.5-1.4-14.2-16.3z"/>
</svg>
