<?xml version="1.0" encoding="utf-8"?>
<svg xmlns="http://www.w3.org/2000/svg" xmlns:xlink="http://www.w3.org/1999/xlink">
  <symbol id="burst" viewbox="0 0 100 100">
    <polygon points="47.1,43.1 50,0 52.9,43.1 85.4,14.6 56.9,47.1 100,50 56.9,52.9 85.4,85.4 52.9,56.9 50,100 47.1,56.9 14.6,85.4 43.1,52.9 0,50 43.1,47.1 14.6,14.6 "/>
  </symbol>
  <symbol id="star" viewbox="0 0 75 110">
    <polygon points="32.6,47.6 37.5,0 42.4,47.6 64,28.5 44.9,51.4 75,55 44.9,58.6 64,81.5 42.4,62.4 37.5,110 32.6,62.4 11,81.5 30.1,58.6 0,55 30.1,51.4 11,28.5 "/>
  </symbol>
  <symbol id="right" viewbox="0 0 100 100">
    <polygon points="70.2,47.3 67.5,0 64.8,47.3 0,50 64.8,52.7 67.5,100 70.2,52.7 100,50 "/>
  </symbol>
  <symbol id="left" viewbox="0 0 100 100">
    <polygon points="29.8,47.3 32.5,0 35.2,47.3 100,50 35.2,52.7 32.5,100 29.8,52.7 0,50 "/>
  </symbol>
</svg>
