<svg id="Layer_1" xmlns="http://www.w3.org/2000/svg" width="1000" height="1000" viewBox="0 0 1000 1000">
    <style>
        .st0{fill:#fff}
    </style>
    <path class="st0" d="M499.8 375.1L539.2.5l-19.8 376.1 97.5-363.8-78.3 368.4L691.8 37.1 556.7 388.8l205.2-316L573.5 399l252.1-279.9-237.1 292.7 292.7-237-279.9 252 326.2-188.4-316 205.2 351.7-135-344.1 153.1 368.4-78.3-363.8 97.5 376.1-19.8-374.6 39.4 374.6 39.3-376.1-19.7 363.8 97.5-368.4-78.4 344.1 153.2-351.7-135 316 205.1-326.2-188.3 279.9 252-292.7-237.1 237.1 292.8-252.1-280 188.4 326.2-205.2-315.9 135.1 351.7-153.2-344.2 78.3 368.5-97.5-363.9 19.8 376.2-39.4-374.6-39.3 374.6 19.7-376.2-97.5 363.9 78.4-368.5-153.2 344.2 135-351.7-205.1 315.9 188.3-326.2-252 280 237.1-292.8-292.8 237.1 280-252L72.2 762.5l315.9-205.1-351.6 135 344.1-153.2-368.5 78.4L376 520.1-.2 539.8l374.6-39.3L-.2 461.1 376 480.9 12.1 383.4l368.5 78.3L36.5 308.6l351.6 135L72.2 238.4l326.2 188.4-280-252 292.8 237-237.1-292.7 252 279.9L237.8 72.8l205.1 316-135-351.7 153.2 344.1-78.4-368.4 97.5 363.8L460.5.5z"/>
</svg>
