<?xml version="1.0" encoding="utf-8"?>
<!-- Generator: Adobe Illustrator 16.0.0, SVG Export Plug-In . SVG Version: 6.00 Build 0)  -->
<!DOCTYPE svg PUBLIC "-//W3C//DTD SVG 1.1//EN" "http://www.w3.org/Graphics/SVG/1.1/DTD/svg11.dtd">
<svg version="1.1" id="Layer_1" xmlns="http://www.w3.org/2000/svg" xmlns:xlink="http://www.w3.org/1999/xlink" x="0px" y="0px"
	 width="34px" height="28px" viewBox="0 0 34 28" enable-background="new 0 0 34 28" xml:space="preserve">
<path d="M33.945,3.315c-1.246,0.562-2.586,0.941-3.992,1.112c1.438-0.875,2.54-2.259,3.059-3.912
	c-1.344,0.812-2.832,1.399-4.416,1.716C27.327,0.858,25.52,0,23.521,0c-3.842,0-6.953,3.166-6.953,7.068
	c0,0.553,0.06,1.094,0.179,1.612C10.968,8.385,5.843,5.571,2.414,1.293c-0.6,1.045-0.94,2.258-0.94,3.554
	c0,2.454,1.227,4.616,3.093,5.883c-1.142-0.035-2.213-0.354-3.15-0.882v0.087c0,3.424,2.396,6.283,5.579,6.932
	c-0.584,0.16-1.199,0.248-1.831,0.248c-0.449,0-0.886-0.045-1.311-0.129c0.887,2.81,3.454,4.854,6.496,4.912
	c-2.379,1.896-5.378,3.023-8.638,3.023c-0.561,0-1.113-0.033-1.657-0.098C3.133,26.831,6.786,28,10.713,28
	c12.791,0,19.785-10.768,19.785-20.11c0-0.306-0.007-0.611-0.02-0.914C31.837,5.977,33.014,4.732,33.945,3.315z"/>
</svg>
