<?xml version="1.0" encoding="utf-8"?>
<!-- Generator: Adobe Illustrator 19.1.0, SVG Export Plug-In . SVG Version: 6.00 Build 0)  -->
<svg version="1.1" id="Layer_1" xmlns="http://www.w3.org/2000/svg" xmlns:xlink="http://www.w3.org/1999/xlink" x="0px" y="0px"
	 width="600px" height="600px" viewBox="-164 -190 600 600" style="enable-background:new -164 -190 600 600;" xml:space="preserve"
	>
<style type="text/css">
	.st0{opacity:0.5;fill:#FFFBCC;enable-background:new    ;}
	.st1{opacity:0.5;fill:#FFFBCC;}
</style>
<polygon class="st0" points="339.7,127.9 344.6,80.3 349.5,127.9 371.1,108.8 352,131.7 382.1,135.3 352,138.9 371.1,161.8 
	349.5,142.7 344.6,190.3 339.7,142.7 318.1,161.8 337.2,138.9 307.1,135.3 337.2,131.7 318.1,108.8 "/>
<polygon class="st0" points="-29,-128.2 -27.6,-149.7 -26.2,-128.2 -9.9,-142.4 -24.1,-126.1 -2.6,-124.7 -24.1,-123.3 -9.9,-107 
	-26.2,-121.2 -27.6,-99.7 -29,-121.2 -45.3,-107 -31.1,-123.3 -52.6,-124.7 -31.1,-126.1 -45.3,-142.4 "/>
<path class="st0" d="M90.5,89.9l1.4-21.5l1.4,21.5l16.3-14.2L95.4,92l21.5,1.4l-21.5,1.4l14.2,16.3L93.3,96.9l-1.4,21.5l-1.4-21.5
	l-16.3,14.2l14.2-16.3l-21.5-1.4L88.4,92L74.2,75.7L90.5,89.9z"/>
<polygon class="st0" points="-8.4,259.6 -3.5,212 1.4,259.6 23,240.5 3.9,263.4 34,267 3.9,270.6 23,293.5 1.4,274.4 -3.5,322 
	-8.4,274.4 -30,293.5 -10.9,270.6 -41,267 -10.9,263.4 -30,240.5 "/>
<polygon class="st1" points="-95.7,5.3 -138.3,2.9 -95.7,0.6 -93.3,-57.8 -90.9,0.6 -48.3,2.9 -90.9,5.3 -93.3,32.2 "/>
<polygon class="st0" points="270.2,-82.7 271.6,-104.2 273,-82.7 289.3,-96.9 275.1,-80.6 296.6,-79.2 275.1,-77.8 289.3,-61.5 
	273,-75.7 271.6,-54.2 270.2,-75.7 253.9,-61.5 268.1,-77.8 246.6,-79.2 268.1,-80.6 253.9,-96.9 "/>
<polygon class="st0" points="203.7,304.8 205.1,283.3 206.5,304.8 222.8,290.6 208.6,306.9 230.1,308.3 208.6,309.7 222.8,326 
	206.5,311.8 205.1,333.3 203.7,311.8 187.4,326 201.6,309.7 180.1,308.3 201.6,306.9 187.4,290.6 "/>
</svg>
